G75*
%MOIN*%
%OFA0B0*%
%FSLAX25Y25*%
%IPPOS*%
%LPD*%
%AMOC8*
5,1,8,0,0,1.08239X$1,22.5*
%
%ADD10C,0.02500*%
%ADD11R,0.03937X0.04331*%
%ADD12R,0.02500X0.05000*%
%ADD13R,0.07874X0.04724*%
%ADD14R,0.05315X0.02362*%
%ADD15C,0.07400*%
%ADD16R,0.04331X0.03937*%
%ADD17R,0.03543X0.01496*%
%ADD18R,0.05000X0.02500*%
%ADD19C,0.00700*%
%ADD20C,0.02900*%
%ADD21C,0.01000*%
D10*
X0259833Y0078500D03*
X0166333Y0172000D03*
D11*
X0193333Y0143346D03*
X0193333Y0136654D03*
X0193333Y0128346D03*
X0193333Y0121654D03*
X0233333Y0121654D03*
X0240833Y0121654D03*
X0248333Y0121654D03*
X0248333Y0128346D03*
X0240833Y0128346D03*
X0233333Y0128346D03*
X0233333Y0136654D03*
X0233333Y0143346D03*
D12*
X0216533Y0140000D03*
X0213333Y0140000D03*
X0210133Y0140000D03*
D13*
X0168865Y0111024D03*
X0168865Y0088976D03*
X0257802Y0088976D03*
X0257802Y0111024D03*
D14*
X0243333Y0105906D03*
X0243333Y0101969D03*
X0243333Y0098031D03*
X0243333Y0094094D03*
X0183333Y0094094D03*
X0183333Y0098031D03*
X0183333Y0101969D03*
X0183333Y0105906D03*
D15*
X0193333Y0090000D03*
X0203333Y0090000D03*
X0213333Y0090000D03*
X0223333Y0090000D03*
X0233333Y0090000D03*
D16*
X0223680Y0110000D03*
X0216987Y0110000D03*
X0209180Y0110000D03*
X0202487Y0110000D03*
D17*
X0204180Y0116882D03*
X0204180Y0119441D03*
X0204180Y0122000D03*
X0204180Y0124559D03*
X0204180Y0127118D03*
X0222487Y0127118D03*
X0222487Y0124559D03*
X0222487Y0122000D03*
X0222487Y0119441D03*
X0222487Y0116882D03*
D18*
X0243333Y0138400D03*
X0243333Y0141600D03*
X0253333Y0141600D03*
X0253333Y0138400D03*
D19*
X0253333Y0136000D01*
X0252833Y0135500D01*
X0243333Y0135500D01*
X0240833Y0133000D01*
X0240833Y0128346D01*
X0238180Y0128346D01*
X0237333Y0127500D01*
X0237333Y0126500D01*
X0235833Y0125000D01*
X0228333Y0125000D01*
X0225333Y0122000D01*
X0222487Y0122000D01*
X0222487Y0124559D02*
X0225392Y0124559D01*
X0229180Y0128346D01*
X0233333Y0128346D01*
X0235680Y0128346D01*
X0237333Y0130000D01*
X0237333Y0136500D01*
X0239233Y0138400D01*
X0243333Y0138400D01*
X0243333Y0141600D02*
X0253333Y0141600D01*
X0243333Y0141600D02*
X0243333Y0147500D01*
X0240833Y0150000D01*
X0218333Y0150000D01*
X0213333Y0145000D01*
X0213333Y0140000D01*
X0213333Y0137000D01*
X0210833Y0134500D01*
X0203333Y0134500D01*
X0203333Y0137500D01*
X0203333Y0134500D02*
X0202333Y0134500D01*
X0200833Y0133000D01*
X0189333Y0133000D01*
X0187333Y0131000D01*
X0187333Y0127000D01*
X0187302Y0126969D01*
X0187333Y0127000D02*
X0187333Y0122500D01*
X0188180Y0121654D01*
X0193333Y0121654D01*
X0197987Y0121654D01*
X0198333Y0122000D01*
X0204180Y0122000D01*
X0206333Y0122000D01*
X0206933Y0121400D01*
X0206933Y0120600D01*
X0208833Y0118700D01*
X0208833Y0114500D01*
X0207433Y0113100D01*
X0202933Y0113100D01*
X0202333Y0112500D01*
X0202333Y0110154D01*
X0202487Y0110000D01*
X0209180Y0110000D02*
X0216987Y0110000D01*
X0216987Y0114654D01*
X0217833Y0115500D01*
X0217833Y0118700D01*
X0219433Y0120300D01*
X0219433Y0126700D01*
X0219851Y0127118D01*
X0222487Y0127118D01*
X0222487Y0119441D02*
X0220574Y0119441D01*
X0219333Y0118200D01*
X0219333Y0114500D01*
X0220333Y0113500D01*
X0229833Y0113500D01*
X0233333Y0110000D01*
X0233333Y0090000D01*
X0223333Y0090000D02*
X0223333Y0100000D01*
X0218333Y0105000D01*
X0198333Y0105000D01*
X0196333Y0107000D01*
X0196333Y0112500D01*
X0198333Y0114500D01*
X0206333Y0114500D01*
X0207333Y0115500D01*
X0207333Y0118000D01*
X0205892Y0119441D01*
X0204180Y0119441D01*
X0204180Y0116882D02*
X0193333Y0116882D01*
X0193333Y0098031D01*
X0210302Y0098031D01*
X0213333Y0095000D01*
X0213333Y0090000D01*
X0193333Y0098031D02*
X0183333Y0098031D01*
X0183333Y0094094D02*
X0183333Y0085000D01*
X0183333Y0101969D02*
X0187302Y0101969D01*
X0188333Y0103000D01*
X0188333Y0110000D01*
X0187451Y0116882D02*
X0193333Y0116882D01*
X0187451Y0116882D02*
X0184833Y0119500D01*
X0184833Y0132500D01*
X0188987Y0136654D01*
X0193333Y0136654D01*
X0193333Y0143346D02*
X0202987Y0143346D01*
X0206333Y0140000D01*
X0210133Y0140000D01*
X0216533Y0140000D02*
X0220333Y0140000D01*
X0223680Y0143346D01*
X0233333Y0143346D01*
X0233333Y0136654D02*
X0224987Y0136654D01*
X0223333Y0135000D01*
X0248333Y0133000D02*
X0248333Y0128346D01*
X0248333Y0121654D02*
X0248333Y0115500D01*
X0247333Y0114500D01*
X0239333Y0114500D01*
X0235833Y0118000D01*
X0227333Y0118000D01*
X0225892Y0119441D01*
X0222487Y0119441D01*
X0222487Y0116882D02*
X0225451Y0116882D01*
X0226333Y0116000D01*
X0234833Y0116000D01*
X0240833Y0110000D01*
X0238833Y0108000D01*
X0238833Y0099000D01*
X0239802Y0098031D01*
X0243333Y0098031D01*
X0243333Y0101969D02*
X0248865Y0101969D01*
X0250833Y0100000D01*
X0255833Y0100000D02*
X0249928Y0105906D01*
X0243333Y0105906D01*
D20*
X0245633Y0110000D03*
X0240833Y0110000D03*
X0228133Y0110000D03*
X0218333Y0105000D03*
X0198333Y0105000D03*
X0188333Y0110000D03*
X0198333Y0130000D03*
X0203333Y0137500D03*
X0223333Y0135000D03*
X0248333Y0133000D03*
X0240833Y0117000D03*
X0250833Y0100000D03*
X0255833Y0100000D03*
X0183333Y0085000D03*
D21*
X0165433Y0084914D02*
X0165433Y0077100D01*
X0204690Y0077100D01*
X0204690Y0084666D01*
X0204778Y0084753D01*
X0204407Y0084600D01*
X0202259Y0084600D01*
X0200274Y0085422D01*
X0198755Y0086941D01*
X0198224Y0088224D01*
X0198152Y0088004D01*
X0197781Y0087275D01*
X0197300Y0086612D01*
X0196721Y0086034D01*
X0196059Y0085553D01*
X0195329Y0085181D01*
X0194551Y0084928D01*
X0193833Y0084814D01*
X0193833Y0089500D01*
X0192833Y0089500D01*
X0188148Y0089500D01*
X0188261Y0088782D01*
X0188514Y0088004D01*
X0188886Y0087275D01*
X0189367Y0086612D01*
X0189946Y0086034D01*
X0190608Y0085553D01*
X0191337Y0085181D01*
X0192116Y0084928D01*
X0192833Y0084814D01*
X0192833Y0089500D01*
X0192833Y0090500D01*
X0188148Y0090500D01*
X0188261Y0091218D01*
X0188514Y0091996D01*
X0188886Y0092725D01*
X0189367Y0093388D01*
X0189946Y0093966D01*
X0190608Y0094447D01*
X0191337Y0094819D01*
X0192116Y0095072D01*
X0192833Y0095186D01*
X0192833Y0090500D01*
X0193833Y0090500D01*
X0193833Y0095186D01*
X0194551Y0095072D01*
X0195329Y0094819D01*
X0196059Y0094447D01*
X0196721Y0093966D01*
X0197300Y0093388D01*
X0197781Y0092725D01*
X0198152Y0091996D01*
X0198224Y0091776D01*
X0198755Y0093059D01*
X0200274Y0094578D01*
X0202259Y0095400D01*
X0204407Y0095400D01*
X0206392Y0094578D01*
X0207911Y0093059D01*
X0208333Y0092040D01*
X0208755Y0093059D01*
X0210274Y0094578D01*
X0210686Y0094748D01*
X0209453Y0095981D01*
X0187689Y0095981D01*
X0187691Y0095980D01*
X0187691Y0092209D01*
X0186695Y0091213D01*
X0185383Y0091213D01*
X0185383Y0087405D01*
X0186004Y0086784D01*
X0186483Y0085627D01*
X0186483Y0084373D01*
X0186004Y0083216D01*
X0185118Y0082330D01*
X0183960Y0081850D01*
X0182707Y0081850D01*
X0181549Y0082330D01*
X0180663Y0083216D01*
X0180183Y0084373D01*
X0180183Y0085627D01*
X0180663Y0086784D01*
X0181283Y0087405D01*
X0181283Y0091213D01*
X0179972Y0091213D01*
X0178976Y0092209D01*
X0178976Y0095980D01*
X0179059Y0096063D01*
X0178976Y0096146D01*
X0178976Y0099917D01*
X0179059Y0100000D01*
X0178976Y0100083D01*
X0178976Y0103854D01*
X0179276Y0104154D01*
X0179176Y0104527D01*
X0179176Y0105815D01*
X0183243Y0105815D01*
X0183243Y0105996D01*
X0183243Y0108587D01*
X0180478Y0108587D01*
X0180097Y0108484D01*
X0179755Y0108287D01*
X0179476Y0108008D01*
X0179278Y0107666D01*
X0179176Y0107284D01*
X0179176Y0105996D01*
X0183243Y0105996D01*
X0183424Y0105996D01*
X0183424Y0108587D01*
X0185509Y0108587D01*
X0185183Y0109373D01*
X0185183Y0110627D01*
X0185663Y0111784D01*
X0186549Y0112670D01*
X0187707Y0113150D01*
X0188960Y0113150D01*
X0190118Y0112670D01*
X0191004Y0111784D01*
X0191283Y0111109D01*
X0191283Y0114832D01*
X0186602Y0114832D01*
X0185401Y0116033D01*
X0183984Y0117450D01*
X0182783Y0118651D01*
X0182783Y0133349D01*
X0183984Y0134550D01*
X0188138Y0138704D01*
X0189665Y0138704D01*
X0189665Y0139523D01*
X0190142Y0140000D01*
X0189665Y0140477D01*
X0189665Y0146216D01*
X0190661Y0147212D01*
X0196006Y0147212D01*
X0197002Y0146216D01*
X0197002Y0145396D01*
X0203836Y0145396D01*
X0207182Y0142050D01*
X0207183Y0142050D01*
X0207183Y0143204D01*
X0208179Y0144200D01*
X0211283Y0144200D01*
X0211283Y0145849D01*
X0217484Y0152050D01*
X0241682Y0152050D01*
X0244182Y0149550D01*
X0245383Y0148349D01*
X0245383Y0144550D01*
X0246537Y0144550D01*
X0247437Y0143650D01*
X0249229Y0143650D01*
X0250129Y0144550D01*
X0256537Y0144550D01*
X0257533Y0143554D01*
X0257533Y0136446D01*
X0256537Y0135450D01*
X0255383Y0135450D01*
X0255383Y0135151D01*
X0254182Y0133950D01*
X0253875Y0133643D01*
X0261233Y0133643D01*
X0261233Y0172900D01*
X0221976Y0172900D01*
X0221976Y0165334D01*
X0220834Y0164192D01*
X0205833Y0164192D01*
X0204690Y0165334D01*
X0204690Y0172900D01*
X0169154Y0172900D01*
X0169283Y0172587D01*
X0169283Y0171413D01*
X0168834Y0170329D01*
X0168004Y0169499D01*
X0166920Y0169050D01*
X0165747Y0169050D01*
X0165433Y0169180D01*
X0165433Y0133643D01*
X0172999Y0133643D01*
X0174142Y0132501D01*
X0174142Y0117499D01*
X0172999Y0116357D01*
X0165433Y0116357D01*
X0165433Y0115086D01*
X0173506Y0115086D01*
X0174502Y0114090D01*
X0174502Y0107957D01*
X0173506Y0106961D01*
X0165433Y0106961D01*
X0165433Y0093039D01*
X0173506Y0093039D01*
X0174502Y0092043D01*
X0174502Y0085910D01*
X0173506Y0084914D01*
X0165433Y0084914D01*
X0165433Y0083987D02*
X0180344Y0083987D01*
X0180183Y0084985D02*
X0173577Y0084985D01*
X0174502Y0085984D02*
X0180331Y0085984D01*
X0180861Y0086982D02*
X0174502Y0086982D01*
X0174502Y0087981D02*
X0181283Y0087981D01*
X0181283Y0088979D02*
X0174502Y0088979D01*
X0174502Y0089978D02*
X0181283Y0089978D01*
X0181283Y0090976D02*
X0174502Y0090976D01*
X0174502Y0091975D02*
X0179210Y0091975D01*
X0178976Y0092973D02*
X0173571Y0092973D01*
X0178976Y0093972D02*
X0165433Y0093972D01*
X0165433Y0094970D02*
X0178976Y0094970D01*
X0178976Y0095969D02*
X0165433Y0095969D01*
X0165433Y0096967D02*
X0178976Y0096967D01*
X0178976Y0097966D02*
X0165433Y0097966D01*
X0165433Y0098964D02*
X0178976Y0098964D01*
X0179022Y0099963D02*
X0165433Y0099963D01*
X0165433Y0100961D02*
X0178976Y0100961D01*
X0178976Y0101960D02*
X0165433Y0101960D01*
X0165433Y0102958D02*
X0178976Y0102958D01*
X0179079Y0103957D02*
X0165433Y0103957D01*
X0165433Y0104955D02*
X0179176Y0104955D01*
X0179176Y0106952D02*
X0165433Y0106952D01*
X0165433Y0105954D02*
X0183243Y0105954D01*
X0183243Y0106952D02*
X0183424Y0106952D01*
X0183424Y0107951D02*
X0183243Y0107951D01*
X0185359Y0108949D02*
X0174502Y0108949D01*
X0174495Y0107951D02*
X0179443Y0107951D01*
X0174502Y0109948D02*
X0185183Y0109948D01*
X0185316Y0110946D02*
X0174502Y0110946D01*
X0174502Y0111945D02*
X0185823Y0111945D01*
X0187208Y0112943D02*
X0174502Y0112943D01*
X0174502Y0113942D02*
X0191283Y0113942D01*
X0191283Y0112943D02*
X0189459Y0112943D01*
X0190843Y0111945D02*
X0191283Y0111945D01*
X0186494Y0114940D02*
X0173651Y0114940D01*
X0173580Y0116937D02*
X0184497Y0116937D01*
X0185495Y0115939D02*
X0165433Y0115939D01*
X0174142Y0117936D02*
X0183498Y0117936D01*
X0182783Y0118934D02*
X0174142Y0118934D01*
X0174142Y0119933D02*
X0182783Y0119933D01*
X0182783Y0120932D02*
X0174142Y0120932D01*
X0174142Y0121930D02*
X0182783Y0121930D01*
X0182783Y0122929D02*
X0174142Y0122929D01*
X0174142Y0123927D02*
X0182783Y0123927D01*
X0182783Y0124926D02*
X0174142Y0124926D01*
X0174142Y0125924D02*
X0182783Y0125924D01*
X0182783Y0126923D02*
X0174142Y0126923D01*
X0174142Y0127921D02*
X0182783Y0127921D01*
X0182783Y0128920D02*
X0174142Y0128920D01*
X0174142Y0129918D02*
X0182783Y0129918D01*
X0182783Y0130917D02*
X0174142Y0130917D01*
X0174142Y0131915D02*
X0182783Y0131915D01*
X0182783Y0132914D02*
X0173729Y0132914D01*
X0165433Y0133912D02*
X0183346Y0133912D01*
X0184345Y0134911D02*
X0165433Y0134911D01*
X0165433Y0135909D02*
X0185343Y0135909D01*
X0186342Y0136908D02*
X0165433Y0136908D01*
X0165433Y0137906D02*
X0187340Y0137906D01*
X0189665Y0138905D02*
X0165433Y0138905D01*
X0165433Y0139903D02*
X0190045Y0139903D01*
X0189665Y0140902D02*
X0165433Y0140902D01*
X0165433Y0141900D02*
X0189665Y0141900D01*
X0189665Y0142899D02*
X0165433Y0142899D01*
X0165433Y0143897D02*
X0189665Y0143897D01*
X0189665Y0144896D02*
X0165433Y0144896D01*
X0165433Y0145894D02*
X0189665Y0145894D01*
X0190342Y0146893D02*
X0165433Y0146893D01*
X0165433Y0147891D02*
X0213326Y0147891D01*
X0214324Y0148890D02*
X0165433Y0148890D01*
X0165433Y0149888D02*
X0215323Y0149888D01*
X0216321Y0150887D02*
X0180779Y0150887D01*
X0179991Y0150600D02*
X0183106Y0151734D01*
X0185645Y0153865D01*
X0187303Y0156735D01*
X0187303Y0156735D01*
X0187878Y0160000D01*
X0187303Y0163265D01*
X0185645Y0166135D01*
X0185645Y0166135D01*
X0183106Y0168266D01*
X0183106Y0168266D01*
X0179991Y0169400D01*
X0176676Y0169400D01*
X0173561Y0168266D01*
X0173561Y0168266D01*
X0171021Y0166135D01*
X0169364Y0163265D01*
X0169364Y0163265D01*
X0168788Y0160000D01*
X0169364Y0156735D01*
X0171021Y0153865D01*
X0173561Y0151734D01*
X0173561Y0151734D01*
X0176676Y0150600D01*
X0177463Y0150600D01*
X0179991Y0150600D01*
X0183106Y0151734D02*
X0183106Y0151734D01*
X0183286Y0151885D02*
X0217320Y0151885D01*
X0212327Y0146893D02*
X0196325Y0146893D01*
X0197002Y0145894D02*
X0211328Y0145894D01*
X0211283Y0144896D02*
X0204337Y0144896D01*
X0205335Y0143897D02*
X0207876Y0143897D01*
X0207183Y0142899D02*
X0206334Y0142899D01*
X0214143Y0134911D02*
X0220183Y0134911D01*
X0220183Y0134373D02*
X0220183Y0135627D01*
X0220663Y0136784D01*
X0221549Y0137670D01*
X0222707Y0138150D01*
X0223584Y0138150D01*
X0224138Y0138704D01*
X0229665Y0138704D01*
X0229665Y0139523D01*
X0230142Y0140000D01*
X0229665Y0140477D01*
X0229665Y0141296D01*
X0224529Y0141296D01*
X0221182Y0137950D01*
X0219483Y0137950D01*
X0219483Y0136796D01*
X0218487Y0135800D01*
X0215032Y0135800D01*
X0212883Y0133651D01*
X0211682Y0132450D01*
X0203182Y0132450D01*
X0202883Y0132151D01*
X0201682Y0130950D01*
X0196737Y0130950D01*
X0196802Y0130709D01*
X0196802Y0128831D01*
X0193818Y0128831D01*
X0193818Y0127862D01*
X0196802Y0127862D01*
X0196802Y0125984D01*
X0196700Y0125602D01*
X0196502Y0125260D01*
X0196383Y0125141D01*
X0197002Y0124523D01*
X0197002Y0123704D01*
X0197138Y0123704D01*
X0197484Y0124050D01*
X0200908Y0124050D01*
X0200908Y0124559D01*
X0204180Y0124559D01*
X0204180Y0124559D01*
X0204180Y0124870D01*
X0204180Y0127118D01*
X0204180Y0127118D01*
X0204180Y0127118D01*
X0204180Y0129366D01*
X0206149Y0129366D01*
X0206530Y0129264D01*
X0206659Y0129190D01*
X0206659Y0129894D01*
X0207801Y0131037D01*
X0218865Y0131037D01*
X0220008Y0129894D01*
X0220008Y0129563D01*
X0220011Y0129566D01*
X0224963Y0129566D01*
X0225959Y0128570D01*
X0225959Y0128024D01*
X0228331Y0130396D01*
X0229665Y0130396D01*
X0229665Y0131216D01*
X0230661Y0132212D01*
X0235283Y0132212D01*
X0235283Y0132788D01*
X0230661Y0132788D01*
X0229665Y0133784D01*
X0229665Y0134604D01*
X0226483Y0134604D01*
X0226483Y0134373D01*
X0226004Y0133216D01*
X0225118Y0132330D01*
X0223960Y0131850D01*
X0222707Y0131850D01*
X0221549Y0132330D01*
X0220663Y0133216D01*
X0220183Y0134373D01*
X0220374Y0133912D02*
X0213145Y0133912D01*
X0212146Y0132914D02*
X0220965Y0132914D01*
X0222549Y0131915D02*
X0202648Y0131915D01*
X0202211Y0129366D02*
X0201829Y0129264D01*
X0201487Y0129066D01*
X0201208Y0128787D01*
X0201010Y0128445D01*
X0200908Y0128064D01*
X0200908Y0127118D01*
X0200908Y0126173D01*
X0200998Y0125839D01*
X0200908Y0125505D01*
X0200908Y0124559D01*
X0204180Y0124559D01*
X0204180Y0127118D01*
X0200908Y0127118D01*
X0204180Y0127118D01*
X0204180Y0127118D01*
X0204180Y0129366D01*
X0202211Y0129366D01*
X0201340Y0128920D02*
X0196802Y0128920D01*
X0196802Y0129918D02*
X0206683Y0129918D01*
X0207681Y0130917D02*
X0196746Y0130917D01*
X0193818Y0127921D02*
X0200908Y0127921D01*
X0200908Y0126923D02*
X0196802Y0126923D01*
X0196786Y0125924D02*
X0200975Y0125924D01*
X0200908Y0124926D02*
X0196599Y0124926D01*
X0197002Y0123927D02*
X0197361Y0123927D01*
X0190283Y0125141D02*
X0189665Y0124523D01*
X0189665Y0123704D01*
X0189383Y0123704D01*
X0189383Y0126151D01*
X0189383Y0130151D01*
X0189865Y0130632D01*
X0189865Y0128831D01*
X0192849Y0128831D01*
X0192849Y0127862D01*
X0189865Y0127862D01*
X0189865Y0125984D01*
X0189967Y0125602D01*
X0190165Y0125260D01*
X0190283Y0125141D01*
X0190067Y0124926D02*
X0189383Y0124926D01*
X0189383Y0125924D02*
X0189881Y0125924D01*
X0189865Y0126923D02*
X0189383Y0126923D01*
X0189383Y0127921D02*
X0192849Y0127921D01*
X0189865Y0128920D02*
X0189383Y0128920D01*
X0189383Y0129918D02*
X0189865Y0129918D01*
X0189665Y0123927D02*
X0189383Y0123927D01*
X0204180Y0124559D02*
X0204180Y0124559D01*
X0204180Y0124926D02*
X0204180Y0124926D01*
X0204180Y0125924D02*
X0204180Y0125924D01*
X0204180Y0126923D02*
X0204180Y0126923D01*
X0204180Y0127921D02*
X0204180Y0127921D01*
X0204180Y0128920D02*
X0204180Y0128920D01*
X0218985Y0130917D02*
X0229665Y0130917D01*
X0230364Y0131915D02*
X0224117Y0131915D01*
X0225702Y0132914D02*
X0230535Y0132914D01*
X0229665Y0133912D02*
X0226292Y0133912D01*
X0220300Y0135909D02*
X0218597Y0135909D01*
X0219483Y0136908D02*
X0220786Y0136908D01*
X0219483Y0137906D02*
X0222118Y0137906D01*
X0222137Y0138905D02*
X0229665Y0138905D01*
X0230045Y0139903D02*
X0223136Y0139903D01*
X0224134Y0140902D02*
X0229665Y0140902D01*
X0242944Y0132212D02*
X0244182Y0133450D01*
X0245183Y0133450D01*
X0245183Y0132373D01*
X0245370Y0131922D01*
X0244665Y0131216D01*
X0244665Y0125477D01*
X0245142Y0125000D01*
X0244665Y0124523D01*
X0244665Y0118784D01*
X0245661Y0117788D01*
X0246283Y0117788D01*
X0246283Y0116550D01*
X0240182Y0116550D01*
X0238744Y0117988D01*
X0240349Y0117988D01*
X0240349Y0121169D01*
X0241318Y0121169D01*
X0241318Y0122138D01*
X0244302Y0122138D01*
X0244302Y0124016D01*
X0244200Y0124398D01*
X0244002Y0124740D01*
X0243883Y0124859D01*
X0244502Y0125477D01*
X0244502Y0131216D01*
X0243506Y0132212D01*
X0242944Y0132212D01*
X0243803Y0131915D02*
X0245364Y0131915D01*
X0245183Y0132914D02*
X0243646Y0132914D01*
X0244502Y0130917D02*
X0244665Y0130917D01*
X0244665Y0129918D02*
X0244502Y0129918D01*
X0244502Y0128920D02*
X0244665Y0128920D01*
X0244665Y0127921D02*
X0244502Y0127921D01*
X0244502Y0126923D02*
X0244665Y0126923D01*
X0244665Y0125924D02*
X0244502Y0125924D01*
X0243950Y0124926D02*
X0245067Y0124926D01*
X0244665Y0123927D02*
X0244302Y0123927D01*
X0244302Y0122929D02*
X0244665Y0122929D01*
X0244665Y0121930D02*
X0241318Y0121930D01*
X0241318Y0121169D02*
X0244302Y0121169D01*
X0244302Y0119291D01*
X0244200Y0118909D01*
X0244002Y0118567D01*
X0243723Y0118288D01*
X0243381Y0118090D01*
X0242999Y0117988D01*
X0241318Y0117988D01*
X0241318Y0121169D01*
X0241318Y0120932D02*
X0240349Y0120932D01*
X0240349Y0121169D02*
X0237365Y0121169D01*
X0237365Y0119368D01*
X0236802Y0119931D01*
X0236802Y0121169D01*
X0233818Y0121169D01*
X0233818Y0122138D01*
X0236802Y0122138D01*
X0236802Y0123069D01*
X0237365Y0123632D01*
X0237365Y0122138D01*
X0240349Y0122138D01*
X0240349Y0121169D01*
X0240349Y0121930D02*
X0233818Y0121930D01*
X0232849Y0121930D02*
X0228162Y0121930D01*
X0227232Y0121000D02*
X0228182Y0120050D01*
X0229865Y0120050D01*
X0229865Y0121169D01*
X0232849Y0121169D01*
X0232849Y0122138D01*
X0229865Y0122138D01*
X0229865Y0122950D01*
X0229182Y0122950D01*
X0227232Y0121000D01*
X0227301Y0120932D02*
X0229865Y0120932D01*
X0229865Y0122929D02*
X0229161Y0122929D01*
X0236802Y0122929D02*
X0237365Y0122929D01*
X0237365Y0120932D02*
X0236802Y0120932D01*
X0236802Y0119933D02*
X0237365Y0119933D01*
X0238796Y0117936D02*
X0245513Y0117936D01*
X0246283Y0116937D02*
X0239795Y0116937D01*
X0240349Y0118934D02*
X0241318Y0118934D01*
X0241318Y0119933D02*
X0240349Y0119933D01*
X0244302Y0119933D02*
X0244665Y0119933D01*
X0244665Y0118934D02*
X0244206Y0118934D01*
X0244302Y0120932D02*
X0244665Y0120932D01*
X0250383Y0117788D02*
X0251006Y0117788D01*
X0252002Y0118784D01*
X0252002Y0124523D01*
X0251525Y0125000D01*
X0252002Y0125477D01*
X0252002Y0131216D01*
X0251296Y0131922D01*
X0251483Y0132373D01*
X0251483Y0133450D01*
X0251984Y0133450D01*
X0253474Y0133450D01*
X0252525Y0132501D01*
X0252525Y0117499D01*
X0253667Y0116357D01*
X0261233Y0116357D01*
X0261233Y0115086D01*
X0253161Y0115086D01*
X0252165Y0114090D01*
X0252165Y0107957D01*
X0253161Y0106961D01*
X0261233Y0106961D01*
X0261233Y0093039D01*
X0253161Y0093039D01*
X0252165Y0092043D01*
X0252165Y0085910D01*
X0253161Y0084914D01*
X0261233Y0084914D01*
X0261233Y0081113D01*
X0260420Y0081450D01*
X0259247Y0081450D01*
X0258162Y0081001D01*
X0257332Y0080171D01*
X0256883Y0079087D01*
X0256883Y0077913D01*
X0257220Y0077100D01*
X0221976Y0077100D01*
X0221976Y0084666D01*
X0221889Y0084753D01*
X0222259Y0084600D01*
X0224407Y0084600D01*
X0226392Y0085422D01*
X0227911Y0086941D01*
X0228333Y0087960D01*
X0228755Y0086941D01*
X0230274Y0085422D01*
X0232259Y0084600D01*
X0234407Y0084600D01*
X0236392Y0085422D01*
X0237911Y0086941D01*
X0238733Y0088926D01*
X0238733Y0091074D01*
X0237911Y0093059D01*
X0236392Y0094578D01*
X0235383Y0094996D01*
X0235383Y0110849D01*
X0234182Y0112050D01*
X0232282Y0113950D01*
X0233984Y0113950D01*
X0237683Y0110251D01*
X0237683Y0109749D01*
X0236783Y0108849D01*
X0236783Y0098151D01*
X0237984Y0096950D01*
X0238953Y0095981D01*
X0239141Y0095981D01*
X0239276Y0095846D01*
X0239176Y0095473D01*
X0239176Y0094185D01*
X0243243Y0094185D01*
X0243243Y0094004D01*
X0243424Y0094004D01*
X0243424Y0094185D01*
X0247491Y0094185D01*
X0247491Y0095473D01*
X0247391Y0095846D01*
X0247691Y0096146D01*
X0247691Y0099355D01*
X0248163Y0098216D01*
X0249049Y0097330D01*
X0250207Y0096850D01*
X0251460Y0096850D01*
X0252618Y0097330D01*
X0253333Y0098045D01*
X0254049Y0097330D01*
X0255207Y0096850D01*
X0256460Y0096850D01*
X0257618Y0097330D01*
X0258504Y0098216D01*
X0258983Y0099373D01*
X0258983Y0100627D01*
X0258504Y0101784D01*
X0257618Y0102670D01*
X0256460Y0103150D01*
X0255582Y0103150D01*
X0250777Y0107955D01*
X0247526Y0107955D01*
X0246695Y0108787D01*
X0243740Y0108787D01*
X0243983Y0109373D01*
X0243983Y0110627D01*
X0243504Y0111784D01*
X0242838Y0112450D01*
X0248182Y0112450D01*
X0249383Y0113651D01*
X0250383Y0114651D01*
X0250383Y0117788D01*
X0251154Y0117936D02*
X0252525Y0117936D01*
X0252525Y0118934D02*
X0252002Y0118934D01*
X0252002Y0119933D02*
X0252525Y0119933D01*
X0252525Y0120932D02*
X0252002Y0120932D01*
X0252002Y0121930D02*
X0252525Y0121930D01*
X0252525Y0122929D02*
X0252002Y0122929D01*
X0252002Y0123927D02*
X0252525Y0123927D01*
X0252525Y0124926D02*
X0251599Y0124926D01*
X0252002Y0125924D02*
X0252525Y0125924D01*
X0252525Y0126923D02*
X0252002Y0126923D01*
X0252002Y0127921D02*
X0252525Y0127921D01*
X0252525Y0128920D02*
X0252002Y0128920D01*
X0252002Y0129918D02*
X0252525Y0129918D01*
X0252525Y0130917D02*
X0252002Y0130917D01*
X0252525Y0131915D02*
X0251303Y0131915D01*
X0251483Y0132914D02*
X0252938Y0132914D01*
X0254145Y0133912D02*
X0261233Y0133912D01*
X0261233Y0134911D02*
X0255143Y0134911D01*
X0256997Y0135909D02*
X0261233Y0135909D01*
X0261233Y0136908D02*
X0257533Y0136908D01*
X0257533Y0137906D02*
X0261233Y0137906D01*
X0261233Y0138905D02*
X0257533Y0138905D01*
X0257533Y0139903D02*
X0261233Y0139903D01*
X0261233Y0140902D02*
X0257533Y0140902D01*
X0257533Y0141900D02*
X0261233Y0141900D01*
X0261233Y0142899D02*
X0257533Y0142899D01*
X0257190Y0143897D02*
X0261233Y0143897D01*
X0261233Y0144896D02*
X0245383Y0144896D01*
X0245383Y0145894D02*
X0261233Y0145894D01*
X0261233Y0146893D02*
X0245383Y0146893D01*
X0245383Y0147891D02*
X0261233Y0147891D01*
X0261233Y0148890D02*
X0244843Y0148890D01*
X0243844Y0149888D02*
X0261233Y0149888D01*
X0261233Y0150887D02*
X0250779Y0150887D01*
X0249991Y0150600D02*
X0253106Y0151734D01*
X0255645Y0153865D01*
X0257303Y0156735D01*
X0257303Y0156735D01*
X0257878Y0160000D01*
X0257303Y0163265D01*
X0255645Y0166135D01*
X0255645Y0166135D01*
X0253106Y0168266D01*
X0253106Y0168266D01*
X0249991Y0169400D01*
X0246676Y0169400D01*
X0243561Y0168266D01*
X0243561Y0168266D01*
X0241021Y0166135D01*
X0239364Y0163265D01*
X0239364Y0163265D01*
X0238788Y0160000D01*
X0239364Y0156735D01*
X0241021Y0153865D01*
X0241021Y0153865D01*
X0243561Y0151734D01*
X0246676Y0150600D01*
X0249203Y0150600D01*
X0249991Y0150600D01*
X0249991Y0150600D01*
X0253106Y0151734D02*
X0253106Y0151734D01*
X0253286Y0151885D02*
X0261233Y0151885D01*
X0261233Y0152884D02*
X0254476Y0152884D01*
X0255645Y0153865D02*
X0255645Y0153865D01*
X0255645Y0153865D01*
X0255655Y0153882D02*
X0261233Y0153882D01*
X0261233Y0154881D02*
X0256232Y0154881D01*
X0256808Y0155879D02*
X0261233Y0155879D01*
X0261233Y0156878D02*
X0257328Y0156878D01*
X0257504Y0157876D02*
X0261233Y0157876D01*
X0261233Y0158875D02*
X0257680Y0158875D01*
X0257856Y0159873D02*
X0261233Y0159873D01*
X0261233Y0160872D02*
X0257725Y0160872D01*
X0257878Y0160000D02*
X0257878Y0160000D01*
X0257549Y0161870D02*
X0261233Y0161870D01*
X0261233Y0162869D02*
X0257372Y0162869D01*
X0257303Y0163265D02*
X0257303Y0163265D01*
X0256955Y0163868D02*
X0261233Y0163868D01*
X0261233Y0164866D02*
X0256378Y0164866D01*
X0255802Y0165865D02*
X0261233Y0165865D01*
X0261233Y0166863D02*
X0254778Y0166863D01*
X0253588Y0167862D02*
X0261233Y0167862D01*
X0261233Y0168860D02*
X0251474Y0168860D01*
X0245192Y0168860D02*
X0221976Y0168860D01*
X0221976Y0167862D02*
X0243079Y0167862D01*
X0241889Y0166863D02*
X0221976Y0166863D01*
X0221976Y0165865D02*
X0240865Y0165865D01*
X0241021Y0166135D02*
X0241021Y0166135D01*
X0241021Y0166135D01*
X0240289Y0164866D02*
X0221508Y0164866D01*
X0221976Y0169859D02*
X0261233Y0169859D01*
X0261233Y0170857D02*
X0221976Y0170857D01*
X0221976Y0171856D02*
X0261233Y0171856D01*
X0261233Y0172854D02*
X0221976Y0172854D01*
X0204690Y0172854D02*
X0169173Y0172854D01*
X0169283Y0171856D02*
X0204690Y0171856D01*
X0204690Y0170857D02*
X0169053Y0170857D01*
X0168364Y0169859D02*
X0204690Y0169859D01*
X0204690Y0168860D02*
X0181474Y0168860D01*
X0183588Y0167862D02*
X0204690Y0167862D01*
X0204690Y0166863D02*
X0184778Y0166863D01*
X0185802Y0165865D02*
X0204690Y0165865D01*
X0205158Y0164866D02*
X0186378Y0164866D01*
X0186955Y0163868D02*
X0239712Y0163868D01*
X0239294Y0162869D02*
X0187372Y0162869D01*
X0187303Y0163265D02*
X0187303Y0163265D01*
X0187549Y0161870D02*
X0239118Y0161870D01*
X0238942Y0160872D02*
X0187725Y0160872D01*
X0187878Y0160000D02*
X0187878Y0160000D01*
X0187856Y0159873D02*
X0238811Y0159873D01*
X0238788Y0160000D02*
X0238788Y0160000D01*
X0238987Y0158875D02*
X0187680Y0158875D01*
X0187504Y0157876D02*
X0239163Y0157876D01*
X0239339Y0156878D02*
X0187328Y0156878D01*
X0186808Y0155879D02*
X0239858Y0155879D01*
X0239364Y0156735D02*
X0239364Y0156735D01*
X0240435Y0154881D02*
X0186232Y0154881D01*
X0185655Y0153882D02*
X0241011Y0153882D01*
X0242190Y0152884D02*
X0184476Y0152884D01*
X0185645Y0153865D02*
X0185645Y0153865D01*
X0185645Y0153865D01*
X0175888Y0150887D02*
X0165433Y0150887D01*
X0165433Y0151885D02*
X0173380Y0151885D01*
X0172190Y0152884D02*
X0165433Y0152884D01*
X0165433Y0153882D02*
X0171011Y0153882D01*
X0170435Y0154881D02*
X0165433Y0154881D01*
X0165433Y0155879D02*
X0169858Y0155879D01*
X0169364Y0156735D02*
X0169364Y0156735D01*
X0169339Y0156878D02*
X0165433Y0156878D01*
X0165433Y0157876D02*
X0169163Y0157876D01*
X0168987Y0158875D02*
X0165433Y0158875D01*
X0165433Y0159873D02*
X0168811Y0159873D01*
X0168788Y0160000D02*
X0168788Y0160000D01*
X0168942Y0160872D02*
X0165433Y0160872D01*
X0165433Y0161870D02*
X0169118Y0161870D01*
X0169294Y0162869D02*
X0165433Y0162869D01*
X0165433Y0163868D02*
X0169712Y0163868D01*
X0170289Y0164866D02*
X0165433Y0164866D01*
X0165433Y0165865D02*
X0170865Y0165865D01*
X0171021Y0166135D02*
X0171021Y0166135D01*
X0171021Y0166135D01*
X0171889Y0166863D02*
X0165433Y0166863D01*
X0165433Y0167862D02*
X0173079Y0167862D01*
X0175192Y0168860D02*
X0165433Y0168860D01*
X0241847Y0151885D02*
X0243380Y0151885D01*
X0243561Y0151734D02*
X0243561Y0151734D01*
X0242846Y0150887D02*
X0245888Y0150887D01*
X0247190Y0143897D02*
X0249476Y0143897D01*
X0227852Y0129918D02*
X0219984Y0129918D01*
X0225609Y0128920D02*
X0226854Y0128920D01*
X0250383Y0116937D02*
X0253087Y0116937D01*
X0253015Y0114940D02*
X0250383Y0114940D01*
X0250383Y0115939D02*
X0261233Y0115939D01*
X0252165Y0113942D02*
X0249674Y0113942D01*
X0248676Y0112943D02*
X0252165Y0112943D01*
X0252165Y0111945D02*
X0243343Y0111945D01*
X0243851Y0110946D02*
X0252165Y0110946D01*
X0252165Y0109948D02*
X0243983Y0109948D01*
X0243808Y0108949D02*
X0252165Y0108949D01*
X0252171Y0107951D02*
X0250782Y0107951D01*
X0251780Y0106952D02*
X0261233Y0106952D01*
X0261233Y0105954D02*
X0252779Y0105954D01*
X0253777Y0104955D02*
X0261233Y0104955D01*
X0261233Y0103957D02*
X0254776Y0103957D01*
X0256923Y0102958D02*
X0261233Y0102958D01*
X0261233Y0101960D02*
X0258328Y0101960D01*
X0258845Y0100961D02*
X0261233Y0100961D01*
X0261233Y0099963D02*
X0258983Y0099963D01*
X0258814Y0098964D02*
X0261233Y0098964D01*
X0261233Y0097966D02*
X0258254Y0097966D01*
X0256743Y0096967D02*
X0261233Y0096967D01*
X0261233Y0095969D02*
X0247513Y0095969D01*
X0247491Y0094970D02*
X0261233Y0094970D01*
X0261233Y0093972D02*
X0247491Y0093972D01*
X0247491Y0094004D02*
X0243424Y0094004D01*
X0243424Y0091413D01*
X0246188Y0091413D01*
X0246570Y0091516D01*
X0246912Y0091713D01*
X0247191Y0091992D01*
X0247389Y0092334D01*
X0247491Y0092716D01*
X0247491Y0094004D01*
X0247491Y0092973D02*
X0253095Y0092973D01*
X0252165Y0091975D02*
X0247173Y0091975D01*
X0243424Y0091975D02*
X0243243Y0091975D01*
X0243243Y0091413D02*
X0240478Y0091413D01*
X0240097Y0091516D01*
X0239755Y0091713D01*
X0239476Y0091992D01*
X0239278Y0092334D01*
X0239176Y0092716D01*
X0239176Y0094004D01*
X0243243Y0094004D01*
X0243243Y0091413D01*
X0243243Y0092973D02*
X0243424Y0092973D01*
X0243424Y0093972D02*
X0243243Y0093972D01*
X0239176Y0093972D02*
X0236998Y0093972D01*
X0237947Y0092973D02*
X0239176Y0092973D01*
X0239493Y0091975D02*
X0238360Y0091975D01*
X0238733Y0090976D02*
X0252165Y0090976D01*
X0252165Y0089978D02*
X0238733Y0089978D01*
X0238733Y0088979D02*
X0252165Y0088979D01*
X0252165Y0087981D02*
X0238342Y0087981D01*
X0237928Y0086982D02*
X0252165Y0086982D01*
X0252165Y0085984D02*
X0236954Y0085984D01*
X0235337Y0084985D02*
X0253090Y0084985D01*
X0258152Y0080991D02*
X0221976Y0080991D01*
X0221976Y0079993D02*
X0257259Y0079993D01*
X0256883Y0078994D02*
X0221976Y0078994D01*
X0221976Y0077996D02*
X0256883Y0077996D01*
X0261233Y0081990D02*
X0221976Y0081990D01*
X0221976Y0082988D02*
X0261233Y0082988D01*
X0261233Y0083987D02*
X0221976Y0083987D01*
X0225337Y0084985D02*
X0231329Y0084985D01*
X0229713Y0085984D02*
X0226954Y0085984D01*
X0227928Y0086982D02*
X0228738Y0086982D01*
X0228333Y0092040D02*
X0227911Y0093059D01*
X0226392Y0094578D01*
X0225383Y0094996D01*
X0225383Y0100849D01*
X0224182Y0102050D01*
X0221483Y0104749D01*
X0221483Y0105627D01*
X0221082Y0106594D01*
X0221317Y0106531D01*
X0223196Y0106531D01*
X0223196Y0109516D01*
X0224164Y0109516D01*
X0224164Y0110484D01*
X0227345Y0110484D01*
X0227345Y0111450D01*
X0228984Y0111450D01*
X0231283Y0109151D01*
X0231283Y0094996D01*
X0230274Y0094578D01*
X0228755Y0093059D01*
X0228333Y0092040D01*
X0227947Y0092973D02*
X0228720Y0092973D01*
X0229668Y0093972D02*
X0226998Y0093972D01*
X0225445Y0094970D02*
X0231222Y0094970D01*
X0231283Y0095969D02*
X0225383Y0095969D01*
X0225383Y0096967D02*
X0231283Y0096967D01*
X0231283Y0097966D02*
X0225383Y0097966D01*
X0225383Y0098964D02*
X0231283Y0098964D01*
X0231283Y0099963D02*
X0225383Y0099963D01*
X0225271Y0100961D02*
X0231283Y0100961D01*
X0231283Y0101960D02*
X0224273Y0101960D01*
X0223274Y0102958D02*
X0231283Y0102958D01*
X0231283Y0103957D02*
X0222276Y0103957D01*
X0221483Y0104955D02*
X0231283Y0104955D01*
X0231283Y0105954D02*
X0221348Y0105954D01*
X0223196Y0106952D02*
X0224164Y0106952D01*
X0224164Y0106531D02*
X0226043Y0106531D01*
X0226424Y0106634D01*
X0226766Y0106831D01*
X0227045Y0107110D01*
X0227243Y0107453D01*
X0227345Y0107834D01*
X0227345Y0109516D01*
X0224164Y0109516D01*
X0224164Y0106531D01*
X0224164Y0107951D02*
X0223196Y0107951D01*
X0223196Y0108949D02*
X0224164Y0108949D01*
X0224164Y0109948D02*
X0230486Y0109948D01*
X0231283Y0108949D02*
X0227345Y0108949D01*
X0227345Y0107951D02*
X0231283Y0107951D01*
X0231283Y0106952D02*
X0226887Y0106952D01*
X0227345Y0110946D02*
X0229488Y0110946D01*
X0233289Y0112943D02*
X0234991Y0112943D01*
X0234288Y0111945D02*
X0235989Y0111945D01*
X0235286Y0110946D02*
X0236988Y0110946D01*
X0237683Y0109948D02*
X0235383Y0109948D01*
X0235383Y0108949D02*
X0236884Y0108949D01*
X0236783Y0107951D02*
X0235383Y0107951D01*
X0235383Y0106952D02*
X0236783Y0106952D01*
X0236783Y0105954D02*
X0235383Y0105954D01*
X0235383Y0104955D02*
X0236783Y0104955D01*
X0236783Y0103957D02*
X0235383Y0103957D01*
X0235383Y0102958D02*
X0236783Y0102958D01*
X0236783Y0101960D02*
X0235383Y0101960D01*
X0235383Y0100961D02*
X0236783Y0100961D01*
X0236783Y0099963D02*
X0235383Y0099963D01*
X0235383Y0098964D02*
X0236783Y0098964D01*
X0236968Y0097966D02*
X0235383Y0097966D01*
X0235383Y0096967D02*
X0237967Y0096967D01*
X0239153Y0095969D02*
X0235383Y0095969D01*
X0235445Y0094970D02*
X0239176Y0094970D01*
X0247691Y0096967D02*
X0249924Y0096967D01*
X0248413Y0097966D02*
X0247691Y0097966D01*
X0247691Y0098964D02*
X0247853Y0098964D01*
X0251743Y0096967D02*
X0254924Y0096967D01*
X0253413Y0097966D02*
X0253254Y0097966D01*
X0233992Y0113942D02*
X0232291Y0113942D01*
X0209465Y0095969D02*
X0187691Y0095969D01*
X0187691Y0094970D02*
X0191803Y0094970D01*
X0192833Y0094970D02*
X0193833Y0094970D01*
X0193833Y0093972D02*
X0192833Y0093972D01*
X0192833Y0092973D02*
X0193833Y0092973D01*
X0193833Y0091975D02*
X0192833Y0091975D01*
X0192833Y0090976D02*
X0193833Y0090976D01*
X0192833Y0089978D02*
X0185383Y0089978D01*
X0185383Y0090976D02*
X0188223Y0090976D01*
X0188507Y0091975D02*
X0187456Y0091975D01*
X0187691Y0092973D02*
X0189066Y0092973D01*
X0189953Y0093972D02*
X0187691Y0093972D01*
X0194864Y0094970D02*
X0201222Y0094970D01*
X0199668Y0093972D02*
X0196713Y0093972D01*
X0197601Y0092973D02*
X0198720Y0092973D01*
X0198306Y0091975D02*
X0198159Y0091975D01*
X0205445Y0094970D02*
X0210464Y0094970D01*
X0209668Y0093972D02*
X0206998Y0093972D01*
X0207947Y0092973D02*
X0208720Y0092973D01*
X0198325Y0087981D02*
X0198141Y0087981D01*
X0197568Y0086982D02*
X0198738Y0086982D01*
X0199713Y0085984D02*
X0196652Y0085984D01*
X0194727Y0084985D02*
X0201329Y0084985D01*
X0204690Y0083987D02*
X0186323Y0083987D01*
X0186483Y0084985D02*
X0191940Y0084985D01*
X0192833Y0084985D02*
X0193833Y0084985D01*
X0193833Y0085984D02*
X0192833Y0085984D01*
X0192833Y0086982D02*
X0193833Y0086982D01*
X0193833Y0087981D02*
X0192833Y0087981D01*
X0192833Y0088979D02*
X0193833Y0088979D01*
X0190015Y0085984D02*
X0186335Y0085984D01*
X0185806Y0086982D02*
X0189098Y0086982D01*
X0188526Y0087981D02*
X0185383Y0087981D01*
X0185383Y0088979D02*
X0188230Y0088979D01*
X0185776Y0082988D02*
X0204690Y0082988D01*
X0204690Y0081990D02*
X0184297Y0081990D01*
X0182370Y0081990D02*
X0165433Y0081990D01*
X0165433Y0082988D02*
X0180890Y0082988D01*
X0165433Y0080991D02*
X0204690Y0080991D01*
X0204690Y0079993D02*
X0165433Y0079993D01*
X0165433Y0078994D02*
X0204690Y0078994D01*
X0204690Y0077996D02*
X0165433Y0077996D01*
M02*
