<?xml version="1.0" encoding="utf-8"?>
<!-- Generator: Adobe Illustrator 21.1.0, SVG Export Plug-In . SVG Version: 6.00 Build 0)  -->
<svg version="1.1" id="Layer_1" xmlns="http://www.w3.org/2000/svg" xmlns:xlink="http://www.w3.org/1999/xlink" x="0px" y="0px"
	 viewBox="0 0 500 500" style="enable-background:new 0 0 500 500;" xml:space="preserve">
<style type="text/css">
	.st0{fill:#3E99BE;}
	.st1{fill:none;}
	.st2{fill:#939598;}
	.st3{fill:#51BEC3;}
</style>
<g>
	<g>
		<path class="st0" d="M399.1,449.6H100.9c-25.8,0-47-21-47-46.9V104.4c0-25.8,21-47,47-47h298.2c25.8,0,46.9,21,46.9,47v298.2
			C446.1,428.6,425.1,449.6,399.1,449.6z M100.9,65.2c-21.8,0-39.5,17.7-39.5,39.5v298.2c0,21.8,17.7,39.4,39.5,39.4h298.2
			c21.8,0,39.4-17.7,39.4-39.4V104.4c0-21.8-17.7-39.5-39.4-39.5H100.9V65.2z"/>
		<line class="st1" x1="116.8" y1="351.8" x2="390.6" y2="351.8"/>
		<path class="st0" d="M390.6,355H116.8c-1.8,0-3.2-1.5-3.2-3.1c0-1.7,1.5-3.2,3.2-3.2h273.8c1.8,0,3.1,1.5,3.1,3.2
			C393.7,353.5,392.3,355,390.6,355z"/>
		<path class="st0" d="M201.8,355h-63.2c-1.8,0-3.2-1.5-3.2-3.1V247.4c0-1.8,1.5-3.2,3.2-3.2h63.2c1.8,0,3.2,1.5,3.2,3.2v104.4
			C205,353.6,203.7,355,201.8,355z M142,348.5h56.7v-98H142V348.5z"/>
		<path class="st0" d="M371.2,355c-1.8,0-3.2-1.5-3.2-3.1V177.1l-56.7,16.2v158.6c0,1.8-1.5,3.1-3.1,3.1c-1.7,0-3.2-1.5-3.2-3.1
			V190.7c0-1.5,0.9-2.7,2.4-3.2l63.1-18c0.9-0.3,1.9-0.2,2.9,0.6c0.8,0.6,1.3,1.5,1.3,2.6v179.1C374.5,353.6,373,355,371.2,355z"/>
		<path class="st0" d="M308.1,278.5h-22.5c-1.8,0-3.2-1.5-3.2-3.2V225h-54.1v50.1c0,1.8-1.5,3.2-3.2,3.2h-22.5
			c-1.8,0-3.2-1.5-3.2-3.2c0-1.6,1.5-3.1,3.2-3.1h19.3v-50.2c0-1.8,1.5-3.2,3.2-3.2h60.6c1.8,0,3.1,1.5,3.1,3.2V272h19.4
			c1.8,0,3.1,1.5,3.1,3.1C311.3,276.8,309.8,278.5,308.1,278.5z"/>
		<path class="st2" d="M158.7,286.1L158.7,286.1c-3,0-5.6-2.4-5.6-5.4s2.4-5.6,5.6-5.6c3,0,5.4,2.4,5.4,5.6
			C164.1,283.8,161.7,286.1,158.7,286.1"/>
		<path class="st2" d="M181.9,286.1L181.9,286.1c-3,0-5.6-2.4-5.6-5.4s2.4-5.6,5.6-5.6c3,0,5.4,2.4,5.4,5.6
			C187.3,283.8,184.9,286.1,181.9,286.1"/>
		<path class="st2" d="M158.7,310.6L158.7,310.6c-3,0-5.6-2.4-5.6-5.4s2.4-5.5,5.6-5.5c3,0,5.4,2.4,5.4,5.5
			C164.1,308.3,161.7,310.6,158.7,310.6"/>
		<path class="st2" d="M181.9,310.6L181.9,310.6c-3,0-5.6-2.4-5.6-5.4s2.4-5.5,5.6-5.5c3,0,5.4,2.4,5.4,5.5
			C187.3,308.3,184.9,310.6,181.9,310.6"/>
		<path class="st2" d="M158.7,335L158.7,335c-3,0-5.6-2.4-5.6-5.4s2.4-5.6,5.6-5.6c3,0,5.4,2.4,5.4,5.6
			C164.1,332.8,161.7,335,158.7,335"/>
		<path class="st2" d="M181.9,335L181.9,335c-3,0-5.6-2.4-5.6-5.4s2.4-5.6,5.6-5.6c3,0,5.4,2.4,5.4,5.6
			C187.3,332.8,184.9,335,181.9,335"/>
		<path class="st2" d="M328.1,286.1L328.1,286.1c-3,0-5.6-2.4-5.6-5.4s2.4-5.6,5.6-5.6c3,0,5.4,2.4,5.4,5.6
			C333.6,283.8,331.1,286.1,328.1,286.1"/>
		<path class="st2" d="M351.2,286.1L351.2,286.1c-3,0-5.6-2.4-5.6-5.4s2.4-5.6,5.6-5.6c3,0,5.4,2.4,5.4,5.6
			C356.6,283.8,354.2,286.1,351.2,286.1"/>
		<path class="st2" d="M328.1,310.6L328.1,310.6c-3,0-5.6-2.4-5.6-5.4s2.4-5.5,5.6-5.5c3,0,5.4,2.4,5.4,5.5
			C333.6,308.3,331.1,310.6,328.1,310.6"/>
		<path class="st2" d="M351.2,310.6L351.2,310.6c-3,0-5.6-2.4-5.6-5.4s2.4-5.5,5.6-5.5c3,0,5.4,2.4,5.4,5.5
			C356.6,308.3,354.2,310.6,351.2,310.6"/>
		<path class="st2" d="M328.1,335L328.1,335c-3,0-5.6-2.4-5.6-5.4s2.4-5.6,5.6-5.6c3,0,5.4,2.4,5.4,5.6
			C333.6,332.8,331.1,335,328.1,335"/>
		<path class="st2" d="M351.2,335L351.2,335c-3,0-5.6-2.4-5.6-5.4s2.4-5.6,5.6-5.6c3,0,5.4,2.4,5.4,5.6
			C356.6,332.8,354.2,335,351.2,335"/>
		<path class="st2" d="M243.7,273.2L243.7,273.2c-3,0-5.5-2.4-5.5-5.4s2.4-5.5,5.5-5.5c3,0,5.4,2.4,5.4,5.5S246.7,273.2,243.7,273.2
			"/>
		<path class="st2" d="M266.9,273.2L266.9,273.2c-3,0-5.6-2.4-5.6-5.4s2.4-5.5,5.6-5.5c3,0,5.4,2.4,5.4,5.5S269.9,273.2,266.9,273.2
			"/>
		<path class="st2" d="M243.7,252.9L243.7,252.9c-3,0-5.5-2.4-5.5-5.4s2.4-5.5,5.5-5.5c3,0,5.4,2.4,5.4,5.5
			C249.1,250.7,246.7,252.9,243.7,252.9"/>
		<path class="st2" d="M266.9,252.9L266.9,252.9c-3,0-5.6-2.4-5.6-5.4s2.4-5.5,5.6-5.5c3,0,5.4,2.4,5.4,5.5
			C272.3,250.7,269.9,252.9,266.9,252.9"/>
		<path class="st2" d="M231.7,335L231.7,335c-3,0-5.5-2.4-5.5-5.4s2.4-5.6,5.5-5.6c3,0,5.4,2.4,5.4,5.6
			C237.1,332.8,234.7,335,231.7,335"/>
		<path class="st2" d="M255.2,335L255.2,335c-3,0-5.6-2.4-5.6-5.4s2.4-5.6,5.6-5.6c3,0,5.4,2.4,5.4,5.6
			C260.6,332.8,258.2,335,255.2,335"/>
		<path class="st2" d="M278.9,335L278.9,335c-3,0-5.6-2.4-5.6-5.4s2.4-5.6,5.6-5.6c3,0,5.4,2.4,5.4,5.6
			C284.3,332.8,281.9,335,278.9,335"/>
		<path class="st2" d="M231.7,308.5L231.7,308.5c-3,0-5.5-2.4-5.5-5.4s2.4-5.5,5.5-5.5c3,0,5.4,2.4,5.4,5.5S234.7,308.5,231.7,308.5
			"/>
		<path class="st2" d="M255.2,308.5L255.2,308.5c-3,0-5.6-2.4-5.6-5.4s2.4-5.5,5.6-5.5c3,0,5.4,2.4,5.4,5.5S258.2,308.5,255.2,308.5
			"/>
		<path class="st2" d="M278.9,308.5L278.9,308.5c-3,0-5.6-2.4-5.6-5.4s2.4-5.5,5.6-5.5c3,0,5.4,2.4,5.4,5.5S281.9,308.5,278.9,308.5
			"/>
		<path class="st2" d="M328.1,215.8L328.1,215.8c-3,0-5.6-2.4-5.6-5.4s2.4-5.6,5.6-5.6c3,0,5.4,2.4,5.4,5.6
			C333.6,213.5,331.1,215.8,328.1,215.8"/>
		<path class="st2" d="M351.2,215.8L351.2,215.8c-3,0-5.6-2.4-5.6-5.4s2.4-5.6,5.6-5.6c3,0,5.4,2.4,5.4,5.6
			C356.6,213.5,354.2,215.8,351.2,215.8"/>
		<path class="st2" d="M328.1,240.2L328.1,240.2c-3,0-5.6-2.4-5.6-5.4s2.4-5.5,5.6-5.5c3,0,5.4,2.4,5.4,5.5
			C333.6,237.9,331.1,240.2,328.1,240.2"/>
		<path class="st2" d="M351.2,240.2L351.2,240.2c-3,0-5.6-2.4-5.6-5.4s2.4-5.5,5.6-5.5c3,0,5.4,2.4,5.4,5.5
			C356.6,237.9,354.2,240.2,351.2,240.2"/>
		<path class="st2" d="M328.1,264.5L328.1,264.5c-3,0-5.6-2.4-5.6-5.4s2.4-5.5,5.6-5.5c3,0,5.4,2.4,5.4,5.5
			C333.6,262.2,331.1,264.5,328.1,264.5"/>
		<path class="st2" d="M351.2,264.5L351.2,264.5c-3,0-5.6-2.4-5.6-5.4s2.4-5.5,5.6-5.5c3,0,5.4,2.4,5.4,5.5
			C356.6,262.2,354.2,264.5,351.2,264.5"/>
		<path class="st0" d="M255.2,224.9c-1.8,0-3.2-1.5-3.2-3.2v-23.8c0-1.8,1.5-3.2,3.2-3.2c1.6,0,3.1,1.5,3.1,3.2v23.8
			C258.5,223.4,257,224.9,255.2,224.9z"/>
		<path class="st3" d="M280.4,169.4c-0.9,0-1.9-0.3-2.7-1.1c-13.4-13.3-35-13.3-48.3,0c-1.5,1.5-3.9,1.5-5.2,0
			c-1.5-1.5-1.5-3.9,0-5.2c16.2-16.2,42.7-16.2,58.9,0c1.5,1.5,1.5,3.9,0,5.2C282.4,169.1,281.3,169.4,280.4,169.4z"/>
		<path class="st3" d="M294.6,155.3c-0.9,0-1.9-0.3-2.7-1.1c-10.2-10.2-23.9-15.9-38.2-15.9c-14.4,0-28.1,5.7-38.2,15.9
			c-1.5,1.5-3.9,1.5-5.2,0c-1.5-1.5-1.5-3.9,0-5.2c11.7-11.7,27.2-18,43.7-18s31.9,6.5,43.7,18c1.5,1.5,1.5,3.9,0,5.2
			C296.5,154.9,295.4,155.3,294.6,155.3z"/>
		<path class="st3" d="M197.7,140.3c-0.9,0-2-0.3-2.7-1.1c-1.5-1.5-1.5-3.9,0-5.2c32.2-32.2,84.9-32.2,117.1,0
			c1.5,1.5,1.5,3.9,0,5.2c-1.5,1.5-3.9,1.5-5.2,0c-29.4-29.4-77.2-29.4-106.5,0C199.6,140,198.7,140.3,197.7,140.3z"/>
	</g>
</g>
</svg>
