  0
SECTION
  2
HEADER
  9
$ACADVER
  1
AC1009
  9
$FILLMODE
 70
0
  9
$EXTMIN
 10
-41.2327
 20
-18.7960
 30
0.0000
  9
$EXTMAX
 10
67.4595
 20
26.2666
 30
0.0000
  0
ENDSEC
  0
SECTION
  2
TABLES
  0
TABLE
  2
LTYPE
 70
1
  0
LTYPE
  2
CONTINUOUS
 70
64
  3
Solid line
 72
65
 73
0
 40
0
  0
ENDTAB
  0
TABLE
  2
LAYER
 70
255
  0
LAYER
  2
1
 70
64
 62
22
  6
CONTINUOUS
  0
LAYER
  2
17
 70
64
 62
82
  6
CONTINUOUS
  0
LAYER
  2
18
 70
64
 62
82
  6
CONTINUOUS
  0
LAYER
  2
19
 70
64
 62
53
  6
CONTINUOUS
  0
LAYER
  2
20
 70
64
 62
7
  6
CONTINUOUS
  0
LAYER
  2
45
 70
64
 62
253
  6
CONTINUOUS
  0
LAYER
  2
116
 70
64
 62
5
  6
CONTINUOUS
  0
LAYER
  2
118
 70
64
 62
253
  6
CONTINUOUS
  0
LAYER
  2
121
 70
64
 62
253
  6
CONTINUOUS
  0
LAYER
  2
122
 70
64
 62
253
  6
CONTINUOUS
  0
LAYER
  2
123
 70
64
 62
253
  6
CONTINUOUS
  0
LAYER
  2
124
 70
64
 62
253
  6
CONTINUOUS
  0
LAYER
  2
125
 70
64
 62
253
  6
CONTINUOUS
  0
LAYER
  2
126
 70
64
 62
253
  6
CONTINUOUS
  0
LAYER
  2
127
 70
64
 62
253
  6
CONTINUOUS
  0
LAYER
  2
128
 70
64
 62
253
  6
CONTINUOUS
  0
LAYER
  2
129
 70
64
 62
253
  6
CONTINUOUS
  0
LAYER
  2
131
 70
64
 62
253
  6
CONTINUOUS
  0
LAYER
  2
132
 70
64
 62
253
  6
CONTINUOUS
  0
LAYER
  2
144
 70
64
 62
253
  6
CONTINUOUS
  0
LAYER
  2
150
 70
64
 62
253
  6
CONTINUOUS
  0
LAYER
  2
151
 70
64
 62
253
  6
CONTINUOUS
  0
LAYER
  2
152
 70
64
 62
253
  6
CONTINUOUS
  0
LAYER
  2
153
 70
64
 62
253
  6
CONTINUOUS
  0
LAYER
  2
200
 70
64
 62
175
  6
CONTINUOUS
  0
LAYER
  2
201
 70
64
 62
82
  6
CONTINUOUS
  0
LAYER
  2
202
 70
64
 62
140
  6
CONTINUOUS
  0
LAYER
  2
203
 70
64
 62
22
  6
CONTINUOUS
  0
LAYER
  2
204
 70
64
 62
213
  6
CONTINUOUS
  0
LAYER
  2
205
 70
64
 62
53
  6
CONTINUOUS
  0
LAYER
  2
206
 70
64
 62
253
  6
CONTINUOUS
  0
LAYER
  2
207
 70
64
 62
250
  6
CONTINUOUS
  0
LAYER
  2
208
 70
64
 62
5
  6
CONTINUOUS
  0
LAYER
  2
209
 70
64
 62
253
  6
CONTINUOUS
  0
LAYER
  2
210
 70
64
 62
253
  6
CONTINUOUS
  0
LAYER
  2
211
 70
64
 62
253
  6
CONTINUOUS
  0
LAYER
  2
212
 70
64
 62
253
  6
CONTINUOUS
  0
LAYER
  2
213
 70
64
 62
253
  6
CONTINUOUS
  0
LAYER
  2
214
 70
64
 62
253
  6
CONTINUOUS
  0
LAYER
  2
215
 70
64
 62
253
  6
CONTINUOUS
  0
LAYER
  2
216
 70
64
 62
253
  6
CONTINUOUS
  0
LAYER
  2
225
 70
64
 62
253
  6
CONTINUOUS
  0
LAYER
  2
226
 70
64
 62
253
  6
CONTINUOUS
  0
LAYER
  2
227
 70
64
 62
253
  6
CONTINUOUS
  0
LAYER
  2
228
 70
64
 62
253
  6
CONTINUOUS
  0
LAYER
  2
229
 70
64
 62
253
  6
CONTINUOUS
  0
LAYER
  2
230
 70
64
 62
253
  6
CONTINUOUS
  0
LAYER
  2
231
 70
64
 62
253
  6
CONTINUOUS
  0
LAYER
  2
248
 70
64
 62
253
  6
CONTINUOUS
  0
LAYER
  2
249
 70
64
 62
253
  6
CONTINUOUS
  0
LAYER
  2
254
 70
64
 62
253
  6
CONTINUOUS
  0
LAYER
  2
255
 70
64
 62
253
  6
CONTINUOUS
  0
ENDTAB
  0
ENDSEC
  0
SECTION
  2
BLOCKS
  0
BLOCK
  8
0
  2
RECT
 70
64
 10
0.0000
 20
0.0000
 30
0.0000
  3
RECT
  0
SOLID
  8
0
 10
-0.5000
 20
-0.5000
 30
0.0000
 11
0.5000
 21
-0.5000
 31
0.0000
 12
-0.5000
 22
0.5000
 32
0.0000
 13
0.5000
 23
0.5000
 33
0.0000
  0
ENDBLK
  8
0
  0
BLOCK
  8
0
  2
PIE
 70
64
 10
0.0000
 20
0.0000
 30
0.0000
  3
PIE
  0
CIRCLE
  8
0
 10
0.0000
 20
0.0000
 30
0.0000
 40
0.5000
  0
ENDBLK
  8
0
  0
BLOCK
  8
0
  2
OCTAGONP
 70
64
 10
0.0000
 20
0.0000
 30
0.0000
  3
OCTAGONP
  0
POLYLINE
  8
0
 66
1
 10
0.0000
 20
0.0000
 30
0.0000
 40
0.0000
 41
0.0000
 70
1
  0
VERTEX
  8
0
 10
-0.5000
 20
-0.2071
 30
0.0000
  0
VERTEX
  8
0
 10
-0.5000
 20
0.2071
 30
0.0000
  0
VERTEX
  8
0
 10
-0.2071
 20
0.5000
 30
0.0000
  0
VERTEX
  8
0
 10
0.2071
 20
0.5000
 30
0.0000
  0
VERTEX
  8
0
 10
0.5000
 20
0.2071
 30
0.0000
  0
VERTEX
  8
0
 10
0.5000
 20
-0.2071
 30
0.0000
  0
VERTEX
  8
0
 10
0.2071
 20
-0.5000
 30
0.0000
  0
VERTEX
  8
0
 10
-0.2071
 20
-0.5000
 30
0.0000
  0
SEQEND
  8
0
  0
ENDBLK
  8
0
  0
BLOCK
  8
0
  2
SQUAREP
 70
64
 10
0.0000
 20
0.0000
 30
0.0000
  3
SQUAREP
  0
SOLID
  8
0
 10
-0.5000
 20
-0.5000
 30
0.0000
 11
0.5000
 21
-0.5000
 31
0.0000
 12
-0.5000
 22
0.5000
 32
0.0000
 13
0.5000
 23
0.5000
 33
0.0000
  0
ENDBLK
  8
0
  0
BLOCK
  8
0
  2
ROUNDP
 70
64
 10
0.0000
 20
0.0000
 30
0.0000
  3
ROUNDP
  0
CIRCLE
  8
0
 10
0.0000
 20
0.0000
 30
0.0000
 40
0.5000
  0
ENDBLK
  8
0
  0
BLOCK
  8
0
  2
ANNULUSP
 70
64
 10
0.0000
 20
0.0000
 30
0.0000
  3
ANNULUSP
  0
CIRCLE
  8
0
 10
0.0000
 20
0.0000
 30
0.0000
 40
0.5000
  0
ENDBLK
  8
0
  0
BLOCK
  8
0
  2
THERMALP
 70
64
 10
0.0000
 20
0.0000
 30
0.0000
  3
THERMALP
  0
LINE
  8
0
 10
-0.2379
 20
0.4500
 30
0.0000
 11
0.2379
 21
0.4500
 31
0.0000
  0
LINE
  8
0
 10
0.4500
 20
0.2379
 30
0.0000
 11
0.4500
 21
-0.2379
 31
0.0000
  0
LINE
  8
0
 10
0.2379
 20
-0.4500
 30
0.0000
 11
-0.2379
 21
-0.4500
 31
0.0000
  0
LINE
  8
0
 10
-0.4500
 20
-0.2379
 30
0.0000
 11
-0.4500
 21
0.2379
 31
0.0000
  0
ENDBLK
  8
0
  0
BLOCK
  8
0
  2
OCTAGONV
 70
64
 10
0.0000
 20
0.0000
 30
0.0000
  3
OCTAGONV
  0
POLYLINE
  8
0
 66
1
 10
0.0000
 20
0.0000
 30
0.0000
 40
0.0000
 41
0.0000
 70
1
  0
VERTEX
  8
0
 10
-0.5000
 20
-0.2071
 30
0.0000
  0
VERTEX
  8
0
 10
-0.5000
 20
0.2071
 30
0.0000
  0
VERTEX
  8
0
 10
-0.2071
 20
0.5000
 30
0.0000
  0
VERTEX
  8
0
 10
0.2071
 20
0.5000
 30
0.0000
  0
VERTEX
  8
0
 10
0.5000
 20
0.2071
 30
0.0000
  0
VERTEX
  8
0
 10
0.5000
 20
-0.2071
 30
0.0000
  0
VERTEX
  8
0
 10
0.2071
 20
-0.5000
 30
0.0000
  0
VERTEX
  8
0
 10
-0.2071
 20
-0.5000
 30
0.0000
  0
SEQEND
  8
0
  0
ENDBLK
  8
0
  0
BLOCK
  8
0
  2
SQUAREV
 70
64
 10
0.0000
 20
0.0000
 30
0.0000
  3
SQUAREV
  0
SOLID
  8
0
 10
-0.5000
 20
-0.5000
 30
0.0000
 11
0.5000
 21
-0.5000
 31
0.0000
 12
-0.5000
 22
0.5000
 32
0.0000
 13
0.5000
 23
0.5000
 33
0.0000
  0
ENDBLK
  8
0
  0
BLOCK
  8
0
  2
ROUNDV
 70
64
 10
0.0000
 20
0.0000
 30
0.0000
  3
ROUNDV
  0
CIRCLE
  8
0
 10
0.0000
 20
0.0000
 30
0.0000
 40
0.5000
  0
ENDBLK
  8
0
  0
BLOCK
  8
0
  2
ANNULUSV
 70
64
 10
0.0000
 20
0.0000
 30
0.0000
  3
ANNULUSV
  0
CIRCLE
  8
0
 10
0.0000
 20
0.0000
 30
0.0000
 40
0.5000
  0
ENDBLK
  8
0
  0
BLOCK
  8
0
  2
THERMALV
 70
64
 10
0.0000
 20
0.0000
 30
0.0000
  3
THERMALV
  0
LINE
  8
0
 10
-0.2379
 20
0.4500
 30
0.0000
 11
0.2379
 21
0.4500
 31
0.0000
  0
LINE
  8
0
 10
0.4500
 20
0.2379
 30
0.0000
 11
0.4500
 21
-0.2379
 31
0.0000
  0
LINE
  8
0
 10
0.2379
 20
-0.4500
 30
0.0000
 11
-0.2379
 21
-0.4500
 31
0.0000
  0
LINE
  8
0
 10
-0.4500
 20
-0.2379
 30
0.0000
 11
-0.4500
 21
0.2379
 31
0.0000
  0
ENDBLK
  8
0
  0
BLOCK
  8
0
  2
RECT101600X101600R100
 70
64
 10
0.0000
 20
0.0000
 30
0.0000
  3
RECT101600X101600R100
  0
POLYLINE
  8
0
 66
1
 10
0.0000
 20
0.0000
 30
0.0000
 40
0.0000
 41
0.0000
 70
1
  0
VERTEX
  8
0
 10
0.3175
 20
0.0000
 30
0.0000
  0
VERTEX
  8
0
 10
0.3175
 20
0.0000
 30
0.0000
 42
0.4142
  0
VERTEX
  8
0
 10
0.0000
 20
0.3175
 30
0.0000
  0
VERTEX
  8
0
 10
0.0000
 20
0.3175
 30
0.0000
 42
0.4142
  0
VERTEX
  8
0
 10
-0.3175
 20
0.0000
 30
0.0000
  0
VERTEX
  8
0
 10
-0.3175
 20
0.0000
 30
0.0000
 42
0.4142
  0
VERTEX
  8
0
 10
0.0000
 20
-0.3175
 30
0.0000
  0
VERTEX
  8
0
 10
0.0000
 20
-0.3175
 30
0.0000
 42
0.4142
  0
SEQEND
  8
0
  0
ENDBLK
  8
0
  0
ENDSEC
  0
SECTION
  2
ENTITIES
  0
LINE
  8
20
 10
0.0000
 20
0.0000
 30
0.0000
 11
0.0000
 21
25.4000
 31
0.0000
  0
LINE
  8
20
 10
0.0000
 20
25.4000
 30
0.0000
 11
25.4000
 21
25.4000
 31
0.0000
  0
LINE
  8
20
 10
25.4000
 20
25.4000
 30
0.0000
 11
25.4000
 21
0.0000
 31
0.0000
  0
LINE
  8
20
 10
25.4000
 20
0.0000
 30
0.0000
 11
0.0000
 21
0.0000
 31
0.0000
  0
LINE
  8
20
 10
30.0221
 20
13.1191
 30
0.0000
 11
30.0221
 21
14.1868
 31
0.0000
  0
LINE
  8
20
 10
30.0221
 20
14.1868
 30
0.0000
 11
30.5560
 21
14.1868
 31
0.0000
  0
LINE
  8
20
 10
30.5560
 20
14.1868
 30
0.0000
 11
30.7339
 21
14.0089
 31
0.0000
  0
LINE
  8
20
 10
30.7339
 20
14.0089
 30
0.0000
 11
30.7339
 21
13.6530
 31
0.0000
  0
LINE
  8
20
 10
30.7339
 20
13.6530
 30
0.0000
 11
30.5560
 21
13.4750
 31
0.0000
  0
LINE
  8
20
 10
30.5560
 20
13.4750
 30
0.0000
 11
30.0221
 21
13.4750
 31
0.0000
  0
LINE
  8
20
 10
30.3780
 20
13.4750
 30
0.0000
 11
30.7339
 21
13.1191
 31
0.0000
  0
LINE
  8
20
 10
31.7254
 20
13.1191
 30
0.0000
 11
31.3695
 21
13.1191
 31
0.0000
  0
LINE
  8
20
 10
31.3695
 20
13.1191
 30
0.0000
 11
31.1915
 21
13.2971
 31
0.0000
  0
LINE
  8
20
 10
31.1915
 20
13.2971
 30
0.0000
 11
31.1915
 21
13.6530
 31
0.0000
  0
LINE
  8
20
 10
31.1915
 20
13.6530
 30
0.0000
 11
31.3695
 21
13.8309
 31
0.0000
  0
LINE
  8
20
 10
31.3695
 20
13.8309
 30
0.0000
 11
31.7254
 21
13.8309
 31
0.0000
  0
LINE
  8
20
 10
31.7254
 20
13.8309
 30
0.0000
 11
31.9033
 21
13.6530
 31
0.0000
  0
LINE
  8
20
 10
31.9033
 20
13.6530
 30
0.0000
 11
31.9033
 21
13.4750
 31
0.0000
  0
LINE
  8
20
 10
31.9033
 20
13.4750
 30
0.0000
 11
31.1915
 21
13.4750
 31
0.0000
  0
LINE
  8
20
 10
32.5389
 20
13.8309
 30
0.0000
 11
32.8948
 21
13.8309
 31
0.0000
  0
LINE
  8
20
 10
32.8948
 20
13.8309
 30
0.0000
 11
33.0727
 21
13.6530
 31
0.0000
  0
LINE
  8
20
 10
33.0727
 20
13.6530
 30
0.0000
 11
33.0727
 21
13.1191
 31
0.0000
  0
LINE
  8
20
 10
33.0727
 20
13.1191
 30
0.0000
 11
32.5389
 21
13.1191
 31
0.0000
  0
LINE
  8
20
 10
32.5389
 20
13.1191
 30
0.0000
 11
32.3609
 21
13.2971
 31
0.0000
  0
LINE
  8
20
 10
32.3609
 20
13.2971
 30
0.0000
 11
32.5389
 21
13.4750
 31
0.0000
  0
LINE
  8
20
 10
32.5389
 20
13.4750
 30
0.0000
 11
33.0727
 21
13.4750
 31
0.0000
  0
LINE
  8
20
 10
33.5303
 20
13.1191
 30
0.0000
 11
33.5303
 21
13.8309
 31
0.0000
  0
LINE
  8
20
 10
33.5303
 20
13.4750
 30
0.0000
 11
33.8862
 21
13.8309
 31
0.0000
  0
LINE
  8
20
 10
33.8862
 20
13.8309
 30
0.0000
 11
34.0642
 21
13.8309
 31
0.0000
  0
LINE
  8
20
 10
35.6742
 20
13.1191
 30
0.0000
 11
35.6742
 21
13.8309
 31
0.0000
  0
LINE
  8
20
 10
35.6742
 20
13.8309
 30
0.0000
 11
35.8521
 21
13.8309
 31
0.0000
  0
LINE
  8
20
 10
35.8521
 20
13.8309
 30
0.0000
 11
36.0301
 21
13.6530
 31
0.0000
  0
LINE
  8
20
 10
36.0301
 20
13.6530
 30
0.0000
 11
36.0301
 21
13.1191
 31
0.0000
  0
LINE
  8
20
 10
36.0301
 20
13.6530
 30
0.0000
 11
36.2080
 21
13.8309
 31
0.0000
  0
LINE
  8
20
 10
36.2080
 20
13.8309
 30
0.0000
 11
36.3860
 21
13.6530
 31
0.0000
  0
LINE
  8
20
 10
36.3860
 20
13.6530
 30
0.0000
 11
36.3860
 21
13.1191
 31
0.0000
  0
LINE
  8
20
 10
37.0215
 20
13.1191
 30
0.0000
 11
37.3774
 21
13.1191
 31
0.0000
  0
LINE
  8
20
 10
37.3774
 20
13.1191
 30
0.0000
 11
37.5554
 21
13.2971
 31
0.0000
  0
LINE
  8
20
 10
37.5554
 20
13.2971
 30
0.0000
 11
37.5554
 21
13.6530
 31
0.0000
  0
LINE
  8
20
 10
37.5554
 20
13.6530
 30
0.0000
 11
37.3774
 21
13.8309
 31
0.0000
  0
LINE
  8
20
 10
37.3774
 20
13.8309
 30
0.0000
 11
37.0215
 21
13.8309
 31
0.0000
  0
LINE
  8
20
 10
37.0215
 20
13.8309
 30
0.0000
 11
36.8436
 21
13.6530
 31
0.0000
  0
LINE
  8
20
 10
36.8436
 20
13.6530
 30
0.0000
 11
36.8436
 21
13.2971
 31
0.0000
  0
LINE
  8
20
 10
36.8436
 20
13.2971
 30
0.0000
 11
37.0215
 21
13.1191
 31
0.0000
  0
LINE
  8
20
 10
38.0130
 20
13.8309
 30
0.0000
 11
38.0130
 21
13.2971
 31
0.0000
  0
LINE
  8
20
 10
38.0130
 20
13.2971
 30
0.0000
 11
38.1909
 21
13.1191
 31
0.0000
  0
LINE
  8
20
 10
38.1909
 20
13.1191
 30
0.0000
 11
38.7248
 21
13.1191
 31
0.0000
  0
LINE
  8
20
 10
38.7248
 20
13.1191
 30
0.0000
 11
38.7248
 21
13.8309
 31
0.0000
  0
LINE
  8
20
 10
39.1824
 20
13.1191
 30
0.0000
 11
39.1824
 21
13.8309
 31
0.0000
  0
LINE
  8
20
 10
39.1824
 20
13.8309
 30
0.0000
 11
39.7162
 21
13.8309
 31
0.0000
  0
LINE
  8
20
 10
39.7162
 20
13.8309
 30
0.0000
 11
39.8942
 21
13.6530
 31
0.0000
  0
LINE
  8
20
 10
39.8942
 20
13.6530
 30
0.0000
 11
39.8942
 21
13.1191
 31
0.0000
  0
LINE
  8
20
 10
40.5297
 20
14.0089
 30
0.0000
 11
40.5297
 21
13.2971
 31
0.0000
  0
LINE
  8
20
 10
40.5297
 20
13.2971
 30
0.0000
 11
40.7077
 21
13.1191
 31
0.0000
  0
LINE
  8
20
 10
40.3518
 20
13.8309
 30
0.0000
 11
40.7077
 21
13.8309
 31
0.0000
  0
LINE
  8
20
 10
41.6652
 20
13.1191
 30
0.0000
 11
41.3093
 21
13.1191
 31
0.0000
  0
LINE
  8
20
 10
41.3093
 20
13.1191
 30
0.0000
 11
41.1314
 21
13.2971
 31
0.0000
  0
LINE
  8
20
 10
41.1314
 20
13.2971
 30
0.0000
 11
41.1314
 21
13.6530
 31
0.0000
  0
LINE
  8
20
 10
41.1314
 20
13.6530
 30
0.0000
 11
41.3093
 21
13.8309
 31
0.0000
  0
LINE
  8
20
 10
41.3093
 20
13.8309
 30
0.0000
 11
41.6652
 21
13.8309
 31
0.0000
  0
LINE
  8
20
 10
41.6652
 20
13.8309
 30
0.0000
 11
41.8432
 21
13.6530
 31
0.0000
  0
LINE
  8
20
 10
41.8432
 20
13.6530
 30
0.0000
 11
41.8432
 21
13.4750
 31
0.0000
  0
LINE
  8
20
 10
41.8432
 20
13.4750
 30
0.0000
 11
41.1314
 21
13.4750
 31
0.0000
  0
LINE
  8
20
 10
43.0126
 20
14.1868
 30
0.0000
 11
43.0126
 21
13.1191
 31
0.0000
  0
LINE
  8
20
 10
43.0126
 20
13.1191
 30
0.0000
 11
42.4787
 21
13.1191
 31
0.0000
  0
LINE
  8
20
 10
42.4787
 20
13.1191
 30
0.0000
 11
42.3008
 21
13.2971
 31
0.0000
  0
LINE
  8
20
 10
42.3008
 20
13.2971
 30
0.0000
 11
42.3008
 21
13.6530
 31
0.0000
  0
LINE
  8
20
 10
42.3008
 20
13.6530
 30
0.0000
 11
42.4787
 21
13.8309
 31
0.0000
  0
LINE
  8
20
 10
42.4787
 20
13.8309
 30
0.0000
 11
43.0126
 21
13.8309
 31
0.0000
  0
LINE
  8
20
 10
44.6396
 20
13.1191
 30
0.0000
 11
45.1734
 21
13.1191
 31
0.0000
  0
LINE
  8
20
 10
45.1734
 20
13.1191
 30
0.0000
 11
45.3514
 21
13.2971
 31
0.0000
  0
LINE
  8
20
 10
45.3514
 20
13.2971
 30
0.0000
 11
45.1734
 21
13.4750
 31
0.0000
  0
LINE
  8
20
 10
45.1734
 20
13.4750
 30
0.0000
 11
44.8175
 21
13.4750
 31
0.0000
  0
LINE
  8
20
 10
44.8175
 20
13.4750
 30
0.0000
 11
44.6396
 21
13.6530
 31
0.0000
  0
LINE
  8
20
 10
44.6396
 20
13.6530
 30
0.0000
 11
44.8175
 21
13.8309
 31
0.0000
  0
LINE
  8
20
 10
44.8175
 20
13.8309
 30
0.0000
 11
45.3514
 21
13.8309
 31
0.0000
  0
LINE
  8
20
 10
46.3428
 20
13.1191
 30
0.0000
 11
45.9869
 21
13.1191
 31
0.0000
  0
LINE
  8
20
 10
45.9869
 20
13.1191
 30
0.0000
 11
45.8090
 21
13.2971
 31
0.0000
  0
LINE
  8
20
 10
45.8090
 20
13.2971
 30
0.0000
 11
45.8090
 21
13.6530
 31
0.0000
  0
LINE
  8
20
 10
45.8090
 20
13.6530
 30
0.0000
 11
45.9869
 21
13.8309
 31
0.0000
  0
LINE
  8
20
 10
45.9869
 20
13.8309
 30
0.0000
 11
46.3428
 21
13.8309
 31
0.0000
  0
LINE
  8
20
 10
46.3428
 20
13.8309
 30
0.0000
 11
46.5208
 21
13.6530
 31
0.0000
  0
LINE
  8
20
 10
46.5208
 20
13.6530
 30
0.0000
 11
46.5208
 21
13.4750
 31
0.0000
  0
LINE
  8
20
 10
46.5208
 20
13.4750
 30
0.0000
 11
45.8090
 21
13.4750
 31
0.0000
  0
LINE
  8
20
 10
46.9784
 20
13.1191
 30
0.0000
 11
46.9784
 21
13.8309
 31
0.0000
  0
LINE
  8
20
 10
46.9784
 20
13.8309
 30
0.0000
 11
47.5122
 21
13.8309
 31
0.0000
  0
LINE
  8
20
 10
47.5122
 20
13.8309
 30
0.0000
 11
47.6902
 21
13.6530
 31
0.0000
  0
LINE
  8
20
 10
47.6902
 20
13.6530
 30
0.0000
 11
47.6902
 21
13.1191
 31
0.0000
  0
LINE
  8
20
 10
48.1478
 20
13.1191
 30
0.0000
 11
48.6816
 21
13.1191
 31
0.0000
  0
LINE
  8
20
 10
48.6816
 20
13.1191
 30
0.0000
 11
48.8596
 21
13.2971
 31
0.0000
  0
LINE
  8
20
 10
48.8596
 20
13.2971
 30
0.0000
 11
48.6816
 21
13.4750
 31
0.0000
  0
LINE
  8
20
 10
48.6816
 20
13.4750
 30
0.0000
 11
48.3257
 21
13.4750
 31
0.0000
  0
LINE
  8
20
 10
48.3257
 20
13.4750
 30
0.0000
 11
48.1478
 21
13.6530
 31
0.0000
  0
LINE
  8
20
 10
48.1478
 20
13.6530
 30
0.0000
 11
48.3257
 21
13.8309
 31
0.0000
  0
LINE
  8
20
 10
48.3257
 20
13.8309
 30
0.0000
 11
48.8596
 21
13.8309
 31
0.0000
  0
LINE
  8
20
 10
49.4951
 20
13.1191
 30
0.0000
 11
49.8510
 21
13.1191
 31
0.0000
  0
LINE
  8
20
 10
49.8510
 20
13.1191
 30
0.0000
 11
50.0290
 21
13.2971
 31
0.0000
  0
LINE
  8
20
 10
50.0290
 20
13.2971
 30
0.0000
 11
50.0290
 21
13.6530
 31
0.0000
  0
LINE
  8
20
 10
50.0290
 20
13.6530
 30
0.0000
 11
49.8510
 21
13.8309
 31
0.0000
  0
LINE
  8
20
 10
49.8510
 20
13.8309
 30
0.0000
 11
49.4951
 21
13.8309
 31
0.0000
  0
LINE
  8
20
 10
49.4951
 20
13.8309
 30
0.0000
 11
49.3172
 21
13.6530
 31
0.0000
  0
LINE
  8
20
 10
49.3172
 20
13.6530
 30
0.0000
 11
49.3172
 21
13.2971
 31
0.0000
  0
LINE
  8
20
 10
49.3172
 20
13.2971
 30
0.0000
 11
49.4951
 21
13.1191
 31
0.0000
  0
LINE
  8
20
 10
50.4866
 20
13.1191
 30
0.0000
 11
50.4866
 21
13.8309
 31
0.0000
  0
LINE
  8
20
 10
50.4866
 20
13.4750
 30
0.0000
 11
50.8425
 21
13.8309
 31
0.0000
  0
LINE
  8
20
 10
50.8425
 20
13.8309
 30
0.0000
 11
51.0204
 21
13.8309
 31
0.0000
  0
LINE
  8
20
 10
27.8782
 20
11.2141
 30
0.0000
 11
27.8782
 21
11.9259
 31
0.0000
  0
LINE
  8
20
 10
27.8782
 20
11.5700
 30
0.0000
 11
28.2341
 21
11.9259
 31
0.0000
  0
LINE
  8
20
 10
28.2341
 20
11.9259
 30
0.0000
 11
28.4121
 21
11.9259
 31
0.0000
  0
LINE
  8
20
 10
29.3866
 20
11.2141
 30
0.0000
 11
29.0307
 21
11.2141
 31
0.0000
  0
LINE
  8
20
 10
29.0307
 20
11.2141
 30
0.0000
 11
28.8527
 21
11.3921
 31
0.0000
  0
LINE
  8
20
 10
28.8527
 20
11.3921
 30
0.0000
 11
28.8527
 21
11.7480
 31
0.0000
  0
LINE
  8
20
 10
28.8527
 20
11.7480
 30
0.0000
 11
29.0307
 21
11.9259
 31
0.0000
  0
LINE
  8
20
 10
29.0307
 20
11.9259
 30
0.0000
 11
29.3866
 21
11.9259
 31
0.0000
  0
LINE
  8
20
 10
29.3866
 20
11.9259
 30
0.0000
 11
29.5645
 21
11.7480
 31
0.0000
  0
LINE
  8
20
 10
29.5645
 20
11.7480
 30
0.0000
 11
29.5645
 21
11.5700
 31
0.0000
  0
LINE
  8
20
 10
29.5645
 20
11.5700
 30
0.0000
 11
28.8527
 21
11.5700
 31
0.0000
  0
LINE
  8
20
 10
30.7339
 20
10.8582
 30
0.0000
 11
30.7339
 21
11.9259
 31
0.0000
  0
LINE
  8
20
 10
30.7339
 20
11.9259
 30
0.0000
 11
30.2001
 21
11.9259
 31
0.0000
  0
LINE
  8
20
 10
30.2001
 20
11.9259
 30
0.0000
 11
30.0221
 21
11.7480
 31
0.0000
  0
LINE
  8
20
 10
30.0221
 20
11.7480
 30
0.0000
 11
30.0221
 21
11.3921
 31
0.0000
  0
LINE
  8
20
 10
30.0221
 20
11.3921
 30
0.0000
 11
30.2001
 21
11.2141
 31
0.0000
  0
LINE
  8
20
 10
30.2001
 20
11.2141
 30
0.0000
 11
30.7339
 21
11.2141
 31
0.0000
  0
LINE
  8
20
 10
31.1915
 20
11.9259
 30
0.0000
 11
31.1915
 21
11.3921
 31
0.0000
  0
LINE
  8
20
 10
31.1915
 20
11.3921
 30
0.0000
 11
31.3694
 21
11.2141
 31
0.0000
  0
LINE
  8
20
 10
31.3694
 20
11.2141
 30
0.0000
 11
31.9033
 21
11.2141
 31
0.0000
  0
LINE
  8
20
 10
31.9033
 20
11.2141
 30
0.0000
 11
31.9033
 21
11.9259
 31
0.0000
  0
LINE
  8
20
 10
32.3609
 20
11.9259
 30
0.0000
 11
32.5388
 21
11.9259
 31
0.0000
  0
LINE
  8
20
 10
32.5388
 20
11.9259
 30
0.0000
 11
32.5388
 21
11.2141
 31
0.0000
  0
LINE
  8
20
 10
32.3609
 20
11.2141
 30
0.0000
 11
32.7168
 21
11.2141
 31
0.0000
  0
LINE
  8
20
 10
32.5388
 20
12.4598
 30
0.0000
 11
32.5388
 21
12.2818
 31
0.0000
  0
LINE
  8
20
 10
33.1405
 20
11.2141
 30
0.0000
 11
33.1405
 21
11.9259
 31
0.0000
  0
LINE
  8
20
 10
33.1405
 20
11.5700
 30
0.0000
 11
33.4964
 21
11.9259
 31
0.0000
  0
LINE
  8
20
 10
33.4964
 20
11.9259
 30
0.0000
 11
33.6743
 21
11.9259
 31
0.0000
  0
LINE
  8
20
 10
34.6488
 20
11.2141
 30
0.0000
 11
34.2929
 21
11.2141
 31
0.0000
  0
LINE
  8
20
 10
34.2929
 20
11.2141
 30
0.0000
 11
34.1150
 21
11.3921
 31
0.0000
  0
LINE
  8
20
 10
34.1150
 20
11.3921
 30
0.0000
 11
34.1150
 21
11.7480
 31
0.0000
  0
LINE
  8
20
 10
34.1150
 20
11.7480
 30
0.0000
 11
34.2929
 21
11.9259
 31
0.0000
  0
LINE
  8
20
 10
34.2929
 20
11.9259
 30
0.0000
 11
34.6488
 21
11.9259
 31
0.0000
  0
LINE
  8
20
 10
34.6488
 20
11.9259
 30
0.0000
 11
34.8268
 21
11.7480
 31
0.0000
  0
LINE
  8
20
 10
34.8268
 20
11.7480
 30
0.0000
 11
34.8268
 21
11.5700
 31
0.0000
  0
LINE
  8
20
 10
34.8268
 20
11.5700
 30
0.0000
 11
34.1150
 21
11.5700
 31
0.0000
  0
LINE
  8
20
 10
35.2844
 20
11.2141
 30
0.0000
 11
35.8182
 21
11.2141
 31
0.0000
  0
LINE
  8
20
 10
35.8182
 20
11.2141
 30
0.0000
 11
35.9962
 21
11.3921
 31
0.0000
  0
LINE
  8
20
 10
35.9962
 20
11.3921
 30
0.0000
 11
35.8182
 21
11.5700
 31
0.0000
  0
LINE
  8
20
 10
35.8182
 20
11.5700
 30
0.0000
 11
35.4623
 21
11.5700
 31
0.0000
  0
LINE
  8
20
 10
35.4623
 20
11.5700
 30
0.0000
 11
35.2844
 21
11.7480
 31
0.0000
  0
LINE
  8
20
 10
35.2844
 20
11.7480
 30
0.0000
 11
35.4623
 21
11.9259
 31
0.0000
  0
LINE
  8
20
 10
35.4623
 20
11.9259
 30
0.0000
 11
35.9962
 21
11.9259
 31
0.0000
  0
LINE
  8
20
 10
37.6232
 20
11.3921
 30
0.0000
 11
37.6232
 21
12.1039
 31
0.0000
  0
LINE
  8
20
 10
37.6232
 20
12.1039
 30
0.0000
 11
37.8011
 21
12.2818
 31
0.0000
  0
LINE
  8
20
 10
37.8011
 20
12.2818
 30
0.0000
 11
38.1570
 21
12.2818
 31
0.0000
  0
LINE
  8
20
 10
38.1570
 20
12.2818
 30
0.0000
 11
38.3350
 21
12.1039
 31
0.0000
  0
LINE
  8
20
 10
38.3350
 20
12.1039
 30
0.0000
 11
38.3350
 21
11.3921
 31
0.0000
  0
LINE
  8
20
 10
38.3350
 20
11.3921
 30
0.0000
 11
38.1570
 21
11.2141
 31
0.0000
  0
LINE
  8
20
 10
38.1570
 20
11.2141
 30
0.0000
 11
37.8011
 21
11.2141
 31
0.0000
  0
LINE
  8
20
 10
37.8011
 20
11.2141
 30
0.0000
 11
37.6232
 21
11.3921
 31
0.0000
  0
LINE
  8
20
 10
37.6232
 20
11.3921
 30
0.0000
 11
38.3350
 21
12.1039
 31
0.0000
  0
LINE
  8
20
 10
38.7926
 20
11.2141
 30
0.0000
 11
38.7926
 21
11.3921
 31
0.0000
  0
LINE
  8
20
 10
38.7926
 20
11.3921
 30
0.0000
 11
38.9705
 21
11.3921
 31
0.0000
  0
LINE
  8
20
 10
38.9705
 20
11.3921
 30
0.0000
 11
38.9705
 21
11.2141
 31
0.0000
  0
LINE
  8
20
 10
38.9705
 20
11.2141
 30
0.0000
 11
38.7926
 21
11.2141
 31
0.0000
  0
LINE
  8
20
 10
39.3773
 20
12.1039
 30
0.0000
 11
39.5552
 21
12.2818
 31
0.0000
  0
LINE
  8
20
 10
39.5552
 20
12.2818
 30
0.0000
 11
39.9111
 21
12.2818
 31
0.0000
  0
LINE
  8
20
 10
39.9111
 20
12.2818
 30
0.0000
 11
40.0891
 21
12.1039
 31
0.0000
  0
LINE
  8
20
 10
40.0891
 20
12.1039
 30
0.0000
 11
40.0891
 21
11.9259
 31
0.0000
  0
LINE
  8
20
 10
40.0891
 20
11.9259
 30
0.0000
 11
39.9111
 21
11.7480
 31
0.0000
  0
LINE
  8
20
 10
39.9111
 20
11.7480
 30
0.0000
 11
40.0891
 21
11.5700
 31
0.0000
  0
LINE
  8
20
 10
40.0891
 20
11.5700
 30
0.0000
 11
40.0891
 21
11.3921
 31
0.0000
  0
LINE
  8
20
 10
40.0891
 20
11.3921
 30
0.0000
 11
39.9111
 21
11.2141
 31
0.0000
  0
LINE
  8
20
 10
39.9111
 20
11.2141
 30
0.0000
 11
39.5552
 21
11.2141
 31
0.0000
  0
LINE
  8
20
 10
39.5552
 20
11.2141
 30
0.0000
 11
39.3773
 21
11.3921
 31
0.0000
  0
LINE
  8
20
 10
39.3773
 20
11.3921
 30
0.0000
 11
39.3773
 21
11.5700
 31
0.0000
  0
LINE
  8
20
 10
39.3773
 20
11.5700
 30
0.0000
 11
39.5552
 21
11.7480
 31
0.0000
  0
LINE
  8
20
 10
39.5552
 20
11.7480
 30
0.0000
 11
39.3773
 21
11.9259
 31
0.0000
  0
LINE
  8
20
 10
39.3773
 20
11.9259
 30
0.0000
 11
39.3773
 21
12.1039
 31
0.0000
  0
LINE
  8
20
 10
39.5552
 20
11.7480
 30
0.0000
 11
39.9111
 21
11.7480
 31
0.0000
  0
LINE
  8
20
 10
40.5467
 20
11.2141
 30
0.0000
 11
40.5467
 21
11.9259
 31
0.0000
  0
LINE
  8
20
 10
40.5467
 20
11.9259
 30
0.0000
 11
40.7246
 21
11.9259
 31
0.0000
  0
LINE
  8
20
 10
40.7246
 20
11.9259
 30
0.0000
 11
40.9026
 21
11.7480
 31
0.0000
  0
LINE
  8
20
 10
40.9026
 20
11.7480
 30
0.0000
 11
40.9026
 21
11.2141
 31
0.0000
  0
LINE
  8
20
 10
40.9026
 20
11.7480
 30
0.0000
 11
41.0805
 21
11.9259
 31
0.0000
  0
LINE
  8
20
 10
41.0805
 20
11.9259
 30
0.0000
 11
41.2585
 21
11.7480
 31
0.0000
  0
LINE
  8
20
 10
41.2585
 20
11.7480
 30
0.0000
 11
41.2585
 21
11.2141
 31
0.0000
  0
LINE
  8
20
 10
41.7161
 20
11.2141
 30
0.0000
 11
41.7161
 21
11.9259
 31
0.0000
  0
LINE
  8
20
 10
41.7161
 20
11.9259
 30
0.0000
 11
41.8940
 21
11.9259
 31
0.0000
  0
LINE
  8
20
 10
41.8940
 20
11.9259
 30
0.0000
 11
42.0720
 21
11.7480
 31
0.0000
  0
LINE
  8
20
 10
42.0720
 20
11.7480
 30
0.0000
 11
42.0720
 21
11.2141
 31
0.0000
  0
LINE
  8
20
 10
42.0720
 20
11.7480
 30
0.0000
 11
42.2499
 21
11.9259
 31
0.0000
  0
LINE
  8
20
 10
42.2499
 20
11.9259
 30
0.0000
 11
42.4279
 21
11.7480
 31
0.0000
  0
LINE
  8
20
 10
42.4279
 20
11.7480
 30
0.0000
 11
42.4279
 21
11.2141
 31
0.0000
  0
LINE
  8
20
 10
44.2328
 20
12.1039
 30
0.0000
 11
44.2328
 21
11.3921
 31
0.0000
  0
LINE
  8
20
 10
44.2328
 20
11.3921
 30
0.0000
 11
44.4108
 21
11.2141
 31
0.0000
  0
LINE
  8
20
 10
44.0549
 20
11.9259
 30
0.0000
 11
44.4108
 21
11.9259
 31
0.0000
  0
LINE
  8
20
 10
44.8345
 20
12.2818
 30
0.0000
 11
44.8345
 21
11.2141
 31
0.0000
  0
LINE
  8
20
 10
44.8345
 20
11.7480
 30
0.0000
 11
45.0124
 21
11.9259
 31
0.0000
  0
LINE
  8
20
 10
45.0124
 20
11.9259
 30
0.0000
 11
45.3683
 21
11.9259
 31
0.0000
  0
LINE
  8
20
 10
45.3683
 20
11.9259
 30
0.0000
 11
45.5463
 21
11.7480
 31
0.0000
  0
LINE
  8
20
 10
45.5463
 20
11.7480
 30
0.0000
 11
45.5463
 21
11.2141
 31
0.0000
  0
LINE
  8
20
 10
46.0039
 20
11.9259
 30
0.0000
 11
46.1818
 21
11.9259
 31
0.0000
  0
LINE
  8
20
 10
46.1818
 20
11.9259
 30
0.0000
 11
46.1818
 21
11.2141
 31
0.0000
  0
LINE
  8
20
 10
46.0039
 20
11.2141
 30
0.0000
 11
46.3598
 21
11.2141
 31
0.0000
  0
LINE
  8
20
 10
46.1818
 20
12.4598
 30
0.0000
 11
46.1818
 21
12.2818
 31
0.0000
  0
LINE
  8
20
 10
47.4953
 20
11.9259
 30
0.0000
 11
46.9614
 21
11.9259
 31
0.0000
  0
LINE
  8
20
 10
46.9614
 20
11.9259
 30
0.0000
 11
46.7835
 21
11.7480
 31
0.0000
  0
LINE
  8
20
 10
46.7835
 20
11.7480
 30
0.0000
 11
46.7835
 21
11.3921
 31
0.0000
  0
LINE
  8
20
 10
46.7835
 20
11.3921
 30
0.0000
 11
46.9614
 21
11.2141
 31
0.0000
  0
LINE
  8
20
 10
46.9614
 20
11.2141
 30
0.0000
 11
47.4953
 21
11.2141
 31
0.0000
  0
LINE
  8
20
 10
47.9528
 20
11.2141
 30
0.0000
 11
47.9528
 21
12.2818
 31
0.0000
  0
LINE
  8
20
 10
48.4867
 20
11.2141
 30
0.0000
 11
47.9528
 21
11.5700
 31
0.0000
  0
LINE
  8
20
 10
47.9528
 20
11.5700
 30
0.0000
 11
48.4867
 21
11.9259
 31
0.0000
  0
LINE
  8
20
 10
50.0967
 20
11.2141
 30
0.0000
 11
50.0967
 21
12.2818
 31
0.0000
  0
LINE
  8
20
 10
50.0967
 20
12.2818
 30
0.0000
 11
50.6306
 21
12.2818
 31
0.0000
  0
LINE
  8
20
 10
50.6306
 20
12.2818
 30
0.0000
 11
50.8085
 21
12.1039
 31
0.0000
  0
LINE
  8
20
 10
50.8085
 20
12.1039
 30
0.0000
 11
50.8085
 21
11.7480
 31
0.0000
  0
LINE
  8
20
 10
50.8085
 20
11.7480
 30
0.0000
 11
50.6306
 21
11.5700
 31
0.0000
  0
LINE
  8
20
 10
50.6306
 20
11.5700
 30
0.0000
 11
50.0967
 21
11.5700
 31
0.0000
  0
LINE
  8
20
 10
51.9779
 20
12.1039
 30
0.0000
 11
51.8000
 21
12.2818
 31
0.0000
  0
LINE
  8
20
 10
51.8000
 20
12.2818
 30
0.0000
 11
51.4441
 21
12.2818
 31
0.0000
  0
LINE
  8
20
 10
51.4441
 20
12.2818
 30
0.0000
 11
51.2661
 21
12.1039
 31
0.0000
  0
LINE
  8
20
 10
51.2661
 20
12.1039
 30
0.0000
 11
51.2661
 21
11.3921
 31
0.0000
  0
LINE
  8
20
 10
51.2661
 20
11.3921
 30
0.0000
 11
51.4441
 21
11.2141
 31
0.0000
  0
LINE
  8
20
 10
51.4441
 20
11.2141
 30
0.0000
 11
51.8000
 21
11.2141
 31
0.0000
  0
LINE
  8
20
 10
51.8000
 20
11.2141
 30
0.0000
 11
51.9779
 21
11.3921
 31
0.0000
  0
LINE
  8
20
 10
52.4355
 20
11.2141
 30
0.0000
 11
52.4355
 21
12.2818
 31
0.0000
  0
LINE
  8
20
 10
52.4355
 20
12.2818
 30
0.0000
 11
52.9694
 21
12.2818
 31
0.0000
  0
LINE
  8
20
 10
52.9694
 20
12.2818
 30
0.0000
 11
53.1473
 21
12.1039
 31
0.0000
  0
LINE
  8
20
 10
53.1473
 20
12.1039
 30
0.0000
 11
53.1473
 21
11.9259
 31
0.0000
  0
LINE
  8
20
 10
53.1473
 20
11.9259
 30
0.0000
 11
52.9694
 21
11.7480
 31
0.0000
  0
LINE
  8
20
 10
52.9694
 20
11.7480
 30
0.0000
 11
53.1473
 21
11.5700
 31
0.0000
  0
LINE
  8
20
 10
53.1473
 20
11.5700
 30
0.0000
 11
53.1473
 21
11.3921
 31
0.0000
  0
LINE
  8
20
 10
53.1473
 20
11.3921
 30
0.0000
 11
52.9694
 21
11.2141
 31
0.0000
  0
LINE
  8
20
 10
52.9694
 20
11.2141
 30
0.0000
 11
52.4355
 21
11.2141
 31
0.0000
  0
LINE
  8
20
 10
52.4355
 20
11.7480
 30
0.0000
 11
52.9694
 21
11.7480
 31
0.0000
  0
INSERT
  8
1
  2
RECT
 10
7.6200
 20
11.8500
 30
0.0000
 41
1.1000
 42
1.0000
 43
1.0000
 50
90.0000
  0
INSERT
  8
1
  2
RECT
 10
7.6200
 20
13.5500
 30
0.0000
 41
1.1000
 42
1.0000
 43
1.0000
 50
90.0000
  0
INSERT
  8
1
  2
RECT
 10
13.6280
 20
8.8900
 30
0.0000
 41
1.1000
 42
1.0000
 43
1.0000
 50
0.0000
  0
INSERT
  8
1
  2
RECT
 10
15.3280
 20
8.8900
 30
0.0000
 41
1.1000
 42
1.0000
 43
1.0000
 50
0.0000
  0
INSERT
  8
1
  2
RECT
 10
5.0800
 20
7.8500
 30
0.0000
 41
0.6000
 42
1.3500
 43
1.0000
 50
270.0000
  0
INSERT
  8
1
  2
RECT
 10
5.0800
 20
6.8500
 30
0.0000
 41
0.6000
 42
1.3500
 43
1.0000
 50
270.0000
  0
INSERT
  8
1
  2
RECT
 10
5.0800
 20
5.8500
 30
0.0000
 41
0.6000
 42
1.3500
 43
1.0000
 50
270.0000
  0
INSERT
  8
1
  2
RECT
 10
5.0800
 20
4.8500
 30
0.0000
 41
0.6000
 42
1.3500
 43
1.0000
 50
270.0000
  0
INSERT
  8
1
  2
RECT
 10
1.4050
 20
3.5500
 30
0.0000
 41
1.2000
 42
2.0000
 43
1.0000
 50
270.0000
  0
INSERT
  8
1
  2
RECT
 10
1.4050
 20
9.1500
 30
0.0000
 41
1.2000
 42
2.0000
 43
1.0000
 50
270.0000
  0
INSERT
  8
17
  2
ROUNDP
 10
7.6200
 20
3.8100
 30
0.0000
 41
1.8796
 42
1.8796
 43
1.0000
 50
90.0000
  0
INSERT
  8
17
  2
ROUNDP
 10
10.1600
 20
3.8100
 30
0.0000
 41
1.8796
 42
1.8796
 43
1.0000
 50
90.0000
  0
INSERT
  8
17
  2
ROUNDP
 10
12.7000
 20
3.8100
 30
0.0000
 41
1.8796
 42
1.8796
 43
1.0000
 50
90.0000
  0
INSERT
  8
17
  2
ROUNDP
 10
15.2400
 20
3.8100
 30
0.0000
 41
1.8796
 42
1.8796
 43
1.0000
 50
90.0000
  0
INSERT
  8
1
  2
RECT
 10
20.3200
 20
4.8500
 30
0.0000
 41
0.6000
 42
1.3500
 43
1.0000
 50
90.0000
  0
INSERT
  8
1
  2
RECT
 10
20.3200
 20
5.8500
 30
0.0000
 41
0.6000
 42
1.3500
 43
1.0000
 50
90.0000
  0
INSERT
  8
1
  2
RECT
 10
20.3200
 20
6.8500
 30
0.0000
 41
0.6000
 42
1.3500
 43
1.0000
 50
90.0000
  0
INSERT
  8
1
  2
RECT
 10
20.3200
 20
7.8500
 30
0.0000
 41
0.6000
 42
1.3500
 43
1.0000
 50
90.0000
  0
INSERT
  8
1
  2
RECT
 10
23.9950
 20
9.1500
 30
0.0000
 41
1.2000
 42
2.0000
 43
1.0000
 50
90.0000
  0
INSERT
  8
1
  2
RECT
 10
23.9950
 20
3.5500
 30
0.0000
 41
1.2000
 42
2.0000
 43
1.0000
 50
90.0000
  0
INSERT
  8
17
  2
ROUNDP
 10
17.7800
 20
3.8100
 30
0.0000
 41
1.8796
 42
1.8796
 43
1.0000
 50
90.0000
  0
INSERT
  8
1
  2
RECT
 10
20.3200
 20
16.1036
 30
0.0000
 41
0.6350
 42
1.2700
 43
1.0000
 50
90.0000
  0
INSERT
  8
1
  2
RECT
 10
20.3200
 20
16.9164
 30
0.0000
 41
0.6350
 42
1.2700
 43
1.0000
 50
90.0000
  0
INSERT
  8
1
  2
PIE
 10
24.5110
 20
0.8890
 30
0.0000
 41
0.6350
 42
0.6350
 43
1.0000
 50
0.0000
  0
CIRCLE
  8
20
 10
3.8100
 20
21.5900
 30
0.0000
 40
1.6510
  0
CIRCLE
  8
20
 10
21.5900
 20
21.5900
 30
0.0000
 40
1.6510
  0
INSERT
  8
1
  2
RECT
 10
22.8600
 20
16.1036
 30
0.0000
 41
0.6350
 42
1.2700
 43
1.0000
 50
90.0000
  0
INSERT
  8
1
  2
RECT
 10
22.8600
 20
16.9164
 30
0.0000
 41
0.6350
 42
1.2700
 43
1.0000
 50
90.0000
  0
INSERT
  8
1
  2
PIE
 10
0.7620
 20
24.6380
 30
0.0000
 41
0.6350
 42
0.6350
 43
1.0000
 50
0.0000
  0
INSERT
  8
1
  2
RECT
 10
11.8872
 20
16.5100
 30
0.0000
 41
0.6350
 42
1.2700
 43
1.0000
 50
0.0000
  0
INSERT
  8
1
  2
RECT
 10
12.7000
 20
16.5100
 30
0.0000
 41
0.6350
 42
1.2700
 43
1.0000
 50
0.0000
  0
INSERT
  8
1
  2
RECT
 10
13.5128
 20
16.5100
 30
0.0000
 41
0.6350
 42
1.2700
 43
1.0000
 50
0.0000
  0
INSERT
  8
1
  2
RECT
 10
19.6850
 20
13.5500
 30
0.0000
 41
1.1000
 42
1.0000
 43
1.0000
 50
270.0000
  0
INSERT
  8
1
  2
RECT
 10
19.6850
 20
11.8500
 30
0.0000
 41
1.1000
 42
1.0000
 43
1.0000
 50
270.0000
  0
INSERT
  8
1
  2
RECT
 10
21.5900
 20
13.5500
 30
0.0000
 41
1.1000
 42
1.0000
 43
1.0000
 50
270.0000
  0
INSERT
  8
1
  2
RECT
 10
21.5900
 20
11.8500
 30
0.0000
 41
1.1000
 42
1.0000
 43
1.0000
 50
270.0000
  0
INSERT
  8
1
  2
RECT
 10
17.7800
 20
13.5500
 30
0.0000
 41
1.1000
 42
1.0000
 43
1.0000
 50
270.0000
  0
INSERT
  8
1
  2
RECT
 10
17.7800
 20
11.8500
 30
0.0000
 41
1.1000
 42
1.0000
 43
1.0000
 50
270.0000
  0
INSERT
  8
1
  2
RECT
 10
17.7800
 20
15.6600
 30
0.0000
 41
1.1000
 42
1.0000
 43
1.0000
 50
90.0000
  0
INSERT
  8
1
  2
RECT
 10
17.7800
 20
17.3600
 30
0.0000
 41
1.1000
 42
1.0000
 43
1.0000
 50
90.0000
  0
INSERT
  8
1
  2
RECT
 10
7.6200
 20
15.6600
 30
0.0000
 41
1.1000
 42
1.0000
 43
1.0000
 50
90.0000
  0
INSERT
  8
1
  2
RECT
 10
7.6200
 20
17.3600
 30
0.0000
 41
1.1000
 42
1.0000
 43
1.0000
 50
90.0000
  0
INSERT
  8
1
  2
RECT
 10
11.6450
 20
8.8900
 30
0.0000
 41
1.1000
 42
1.0000
 43
1.0000
 50
180.0000
  0
INSERT
  8
1
  2
RECT
 10
9.9450
 20
8.8900
 30
0.0000
 41
1.1000
 42
1.0000
 43
1.0000
 50
180.0000
  0
LINE
  8
20
 10
23.1500
 20
14.4000
 30
0.0000
 11
23.1500
 21
11.0000
 31
0.0000
  0
LINE
  8
20
 10
24.7500
 20
14.4000
 30
0.0000
 11
24.7500
 21
11.0000
 31
0.0000
  0
LINE
  8
20
 10
24.7500
 20
14.4000
 30
0.0000
 11
23.1500
 21
14.4000
 31
0.0000
  0
LINE
  8
20
 10
23.1500
 20
11.0000
 30
0.0000
 11
24.7500
 21
11.0000
 31
0.0000
  0
LINE
  8
20
 10
0.6500
 20
14.4000
 30
0.0000
 11
0.6500
 21
11.0000
 31
0.0000
  0
LINE
  8
20
 10
2.2500
 20
14.4000
 30
0.0000
 11
2.2500
 21
11.0000
 31
0.0000
  0
LINE
  8
20
 10
2.2500
 20
14.4000
 30
0.0000
 11
0.6500
 21
14.4000
 31
0.0000
  0
LINE
  8
20
 10
0.6500
 20
11.0000
 30
0.0000
 11
2.2500
 21
11.0000
 31
0.0000
  0
LINE
  8
20
 10
14.4000
 20
24.7500
 30
0.0000
 11
11.0000
 21
24.7500
 31
0.0000
  0
LINE
  8
20
 10
14.4000
 20
23.1500
 30
0.0000
 11
11.0000
 21
23.1500
 31
0.0000
  0
LINE
  8
20
 10
14.4000
 20
23.1500
 30
0.0000
 11
14.4000
 21
24.7500
 31
0.0000
  0
LINE
  8
20
 10
11.0000
 20
24.7500
 30
0.0000
 11
11.0000
 21
23.1500
 31
0.0000
  0
LINE
  8
20
 10
14.4000
 20
2.2500
 30
0.0000
 11
11.0000
 21
2.2500
 31
0.0000
  0
LINE
  8
20
 10
14.4000
 20
0.6500
 30
0.0000
 11
11.0000
 21
0.6500
 31
0.0000
  0
LINE
  8
20
 10
14.4000
 20
0.6500
 30
0.0000
 11
14.4000
 21
2.2500
 31
0.0000
  0
LINE
  8
20
 10
11.0000
 20
2.2500
 30
0.0000
 11
11.0000
 21
0.6500
 31
0.0000
  0
LINE
  8
20
 10
11.5000
 20
13.7380
 30
0.0000
 11
13.9000
 21
13.7380
 31
0.0000
  0
LINE
  8
20
 10
13.9000
 20
13.7380
 30
0.0000
 11
13.9000
 21
11.6380
 31
0.0000
  0
LINE
  8
20
 10
13.9000
 20
11.6380
 30
0.0000
 11
11.5000
 21
11.6380
 31
0.0000
  0
LINE
  8
20
 10
11.5000
 20
11.6380
 30
0.0000
 11
11.5000
 21
13.7380
 31
0.0000
  0
INSERT
  8
1
  2
RECT
 10
15.0250
 20
13.2380
 30
0.0000
 41
0.9000
 42
0.3800
 43
1.0000
 50
0.0000
  0
INSERT
  8
1
  2
RECT
 10
15.0250
 20
12.5880
 30
0.0000
 41
0.9000
 42
0.3800
 43
1.0000
 50
0.0000
  0
INSERT
  8
1
  2
RECT
 10
15.0250
 20
11.9380
 30
0.0000
 41
0.9000
 42
0.3800
 43
1.0000
 50
0.0000
  0
INSERT
  8
1
  2
RECT
 10
15.0250
 20
11.2880
 30
0.0000
 41
0.9000
 42
0.3800
 43
1.0000
 50
0.0000
  0
INSERT
  8
1
  2
RECT
 10
15.0250
 20
10.6380
 30
0.0000
 41
0.9000
 42
0.3800
 43
1.0000
 50
0.0000
  0
INSERT
  8
1
  2
RECT
 10
10.3750
 20
10.6380
 30
0.0000
 41
0.9000
 42
0.3800
 43
1.0000
 50
0.0000
  0
INSERT
  8
1
  2
RECT
 10
10.3750
 20
11.2880
 30
0.0000
 41
0.9000
 42
0.3800
 43
1.0000
 50
0.0000
  0
INSERT
  8
1
  2
RECT
 10
10.3750
 20
11.9380
 30
0.0000
 41
0.9000
 42
0.3800
 43
1.0000
 50
0.0000
  0
INSERT
  8
1
  2
RECT
 10
10.3750
 20
12.5880
 30
0.0000
 41
0.9000
 42
0.3800
 43
1.0000
 50
0.0000
  0
INSERT
  8
1
  2
RECT
 10
10.3750
 20
13.2380
 30
0.0000
 41
0.9000
 42
0.3800
 43
1.0000
 50
0.0000
  0
LINE
  8
1
 10
14.5392
 20
11.2880
 30
0.0000
 11
14.2240
 21
10.9728
 31
0.0000
  0
LINE
  8
1
 10
14.4780
 20
9.7790
 30
0.0000
 11
16.8910
 21
9.7790
 31
0.0000
  0
LINE
  8
1
 10
16.8910
 20
9.7790
 30
0.0000
 11
17.7800
 21
8.8900
 31
0.0000
  0
LINE
  8
1
 10
17.7800
 20
8.8900
 30
0.0000
 11
17.7800
 21
3.8100
 31
0.0000
  0
LINE
  8
1
 10
15.0250
 20
11.2880
 30
0.0000
 11
15.8900
 21
11.2880
 31
0.0000
  0
LINE
  8
1
 10
15.8900
 20
11.2880
 30
0.0000
 11
16.2560
 21
10.9220
 31
0.0000
  0
LINE
  8
1
 10
15.0250
 20
11.2880
 30
0.0000
 11
14.5392
 21
11.2880
 31
0.0000
  0
LINE
  8
1
 10
21.5900
 20
11.8500
 30
0.0000
 11
21.5900
 21
10.2870
 31
0.0000
  0
LINE
  8
1
 10
21.5900
 20
10.2870
 30
0.0000
 11
21.3360
 21
10.0330
 31
0.0000
  0
LINE
  8
1
 10
21.3360
 20
10.0330
 30
0.0000
 11
19.3040
 21
10.0330
 31
0.0000
  0
LINE
  8
1
 10
19.3040
 20
10.0330
 30
0.0000
 11
18.4150
 21
10.9220
 31
0.0000
  0
LINE
  8
1
 10
18.4150
 20
10.9220
 30
0.0000
 11
16.2560
 21
10.9220
 31
0.0000
  0
LINE
  8
1
 10
14.2240
 20
10.9728
 30
0.0000
 11
14.2240
 21
10.0330
 31
0.0000
  0
LINE
  8
1
 10
14.2240
 20
10.0330
 30
0.0000
 11
14.4780
 21
9.7790
 31
0.0000
  0
LINE
  8
1
 10
10.1600
 20
15.1130
 30
0.0000
 11
9.9060
 21
15.1130
 31
0.0000
  0
LINE
  8
1
 10
12.7000
 20
16.5100
 30
0.0000
 11
12.7000
 21
17.7800
 31
0.0000
  0
LINE
  8
1
 10
12.7000
 20
17.7800
 30
0.0000
 11
13.9700
 21
19.0500
 31
0.0000
  0
LINE
  8
1
 10
10.1600
 20
15.8750
 30
0.0000
 11
10.1600
 21
15.1130
 31
0.0000
  0
LINE
  8
1
 10
9.9060
 20
15.1130
 30
0.0000
 11
9.5250
 21
14.7320
 31
0.0000
  0
LINE
  8
1
 10
9.5250
 20
14.7320
 30
0.0000
 11
6.6040
 21
14.7320
 31
0.0000
  0
LINE
  8
1
 10
6.0960
 20
12.0650
 30
0.0000
 11
6.0960
 21
13.2080
 31
0.0000
  0
LINE
  8
1
 10
6.0960
 20
13.2080
 30
0.0000
 11
6.0960
 21
14.2240
 31
0.0000
  0
LINE
  8
1
 10
6.0960
 20
14.2240
 30
0.0000
 11
6.6040
 21
14.7320
 31
0.0000
  0
LINE
  8
1
 10
6.0880
 20
13.2000
 30
0.0000
 11
6.0960
 21
13.2080
 31
0.0000
  0
LINE
  8
1
 10
12.7000
 20
16.5100
 30
0.0000
 11
12.7000
 21
15.7480
 31
0.0000
  0
LINE
  8
1
 10
12.7000
 20
15.7480
 30
0.0000
 11
12.0650
 21
15.1130
 31
0.0000
  0
LINE
  8
1
 10
12.0650
 20
15.1130
 30
0.0000
 11
10.1600
 21
15.1130
 31
0.0000
  0
LINE
  8
1
 10
11.0744
 20
11.7856
 30
0.0000
 11
11.0744
 21
11.5824
 31
0.0000
  0
LINE
  8
1
 10
11.0744
 20
11.5824
 30
0.0000
 11
11.5570
 21
11.0998
 31
0.0000
  0
LINE
  8
1
 10
11.5570
 20
10.0330
 30
0.0000
 11
11.5570
 21
11.0998
 31
0.0000
  0
LINE
  8
1
 10
18.1610
 20
10.4140
 30
0.0000
 11
19.6850
 21
8.8900
 31
0.0000
  0
LINE
  8
1
 10
20.3200
 20
5.8500
 30
0.0000
 11
19.4230
 21
5.8500
 31
0.0000
  0
LINE
  8
1
 10
19.4230
 20
5.8500
 30
0.0000
 11
19.1770
 21
6.0960
 31
0.0000
  0
LINE
  8
1
 10
19.1770
 20
6.0960
 30
0.0000
 11
19.1770
 21
8.3820
 31
0.0000
  0
LINE
  8
1
 10
19.1770
 20
8.3820
 30
0.0000
 11
19.6850
 21
8.8900
 31
0.0000
  0
LINE
  8
1
 10
10.9220
 20
11.9380
 30
0.0000
 11
11.0744
 21
11.7856
 31
0.0000
  0
LINE
  8
1
 10
7.6200
 20
11.8500
 30
0.0000
 11
6.3110
 21
11.8500
 31
0.0000
  0
LINE
  8
1
 10
6.3110
 20
11.8500
 30
0.0000
 11
6.0960
 21
12.0650
 31
0.0000
  0
LINE
  8
1
 10
7.6200
 20
11.8500
 30
0.0000
 11
8.8020
 21
11.8500
 31
0.0000
  0
LINE
  8
1
 10
10.3750
 20
11.9380
 30
0.0000
 11
8.8900
 21
11.9380
 31
0.0000
  0
LINE
  8
1
 10
8.8900
 20
11.9380
 30
0.0000
 11
8.8020
 21
11.8500
 31
0.0000
  0
LINE
  8
1
 10
10.3750
 20
11.9380
 30
0.0000
 11
10.9220
 21
11.9380
 31
0.0000
  0
LINE
  8
1
 10
16.0020
 20
10.4140
 30
0.0000
 11
18.1610
 21
10.4140
 31
0.0000
  0
LINE
  8
1
 10
11.5570
 20
10.0330
 30
0.0000
 11
11.2014
 21
9.6774
 31
0.0000
  0
LINE
  8
1
 10
11.2014
 20
9.6774
 30
0.0000
 11
10.0584
 21
9.6774
 31
0.0000
  0
LINE
  8
1
 10
10.0584
 20
9.6774
 30
0.0000
 11
9.9060
 21
9.5250
 31
0.0000
  0
LINE
  8
1
 10
9.9060
 20
9.5250
 30
0.0000
 11
9.9060
 21
8.9290
 31
0.0000
  0
LINE
  8
1
 10
9.9060
 20
8.9290
 30
0.0000
 11
9.9450
 21
8.8900
 31
0.0000
  0
LINE
  8
1
 10
13.9700
 20
19.0500
 30
0.0000
 11
19.6850
 21
19.0500
 31
0.0000
  0
LINE
  8
1
 10
19.6850
 20
19.0500
 30
0.0000
 11
20.3200
 21
18.4150
 31
0.0000
  0
LINE
  8
1
 10
20.3200
 20
18.4150
 30
0.0000
 11
20.3200
 21
16.9164
 31
0.0000
  0
LINE
  8
1
 10
20.3200
 20
16.9164
 30
0.0000
 11
22.8600
 21
16.9164
 31
0.0000
  0
LINE
  8
1
 10
6.3500
 20
8.8900
 30
0.0000
 11
6.3500
 21
7.1120
 31
0.0000
  0
LINE
  8
1
 10
6.0880
 20
6.8500
 30
0.0000
 11
5.0800
 21
6.8500
 31
0.0000
  0
LINE
  8
1
 10
6.0880
 20
6.8500
 30
0.0000
 11
6.3500
 21
7.1120
 31
0.0000
  0
LINE
  8
1
 10
15.0250
 20
10.6380
 30
0.0000
 11
15.7780
 21
10.6380
 31
0.0000
  0
LINE
  8
1
 10
15.7780
 20
10.6380
 30
0.0000
 11
16.0020
 21
10.4140
 31
0.0000
  0
INSERT
  8
18
  2
ROUNDV
 10
19.6850
 20
8.8900
 30
0.0000
 41
0.7366
 42
0.7366
 43
1.0000
 50
0.0000
  0
INSERT
  8
18
  2
ROUNDV
 10
10.1600
 20
15.8750
 30
0.0000
 41
0.7366
 42
0.7366
 43
1.0000
 50
0.0000
  0
INSERT
  8
18
  2
ROUNDV
 10
6.3500
 20
8.8900
 30
0.0000
 41
0.7366
 42
0.7366
 43
1.0000
 50
0.0000
  0
LINE
  8
1
 10
15.0250
 20
12.5880
 30
0.0000
 11
15.7630
 21
12.5880
 31
0.0000
  0
LINE
  8
1
 10
17.7800
 20
13.5500
 30
0.0000
 11
16.7250
 21
13.5500
 31
0.0000
  0
LINE
  8
1
 10
16.7250
 20
13.5500
 30
0.0000
 11
15.7630
 21
12.5880
 31
0.0000
  0
LINE
  8
1
 10
18.7960
 20
15.6210
 30
0.0000
 11
19.2786
 21
16.1036
 31
0.0000
  0
LINE
  8
1
 10
20.3200
 20
16.1036
 30
0.0000
 11
19.2786
 21
16.1036
 31
0.0000
  0
LINE
  8
1
 10
17.7800
 20
13.5500
 30
0.0000
 11
18.3760
 21
13.5500
 31
0.0000
  0
LINE
  8
1
 10
18.3760
 20
13.5500
 30
0.0000
 11
18.7960
 21
13.9700
 31
0.0000
  0
LINE
  8
1
 10
18.7960
 20
13.9700
 30
0.0000
 11
18.7960
 21
15.6210
 31
0.0000
  0
LINE
  8
1
 10
18.4150
 20
12.7000
 30
0.0000
 11
18.7960
 21
13.0810
 31
0.0000
  0
LINE
  8
1
 10
18.7960
 20
13.0810
 30
0.0000
 11
18.7960
 21
13.3350
 31
0.0000
  0
LINE
  8
1
 10
18.7960
 20
13.3350
 30
0.0000
 11
19.0110
 21
13.5500
 31
0.0000
  0
LINE
  8
1
 10
19.6850
 20
13.5500
 30
0.0000
 11
19.0110
 21
13.5500
 31
0.0000
  0
LINE
  8
1
 10
15.0250
 20
11.9380
 30
0.0000
 11
15.7480
 21
11.9380
 31
0.0000
  0
LINE
  8
1
 10
15.7480
 20
11.9380
 30
0.0000
 11
16.5100
 21
12.7000
 31
0.0000
  0
LINE
  8
1
 10
16.5100
 20
12.7000
 30
0.0000
 11
18.4150
 21
12.7000
 31
0.0000
  0
LINE
  8
1
 10
19.6850
 20
13.5500
 30
0.0000
 11
19.6850
 21
14.7320
 31
0.0000
  0
LINE
  8
1
 10
19.6850
 20
14.7320
 30
0.0000
 11
20.3200
 21
15.3670
 31
0.0000
  0
LINE
  8
1
 10
20.3200
 20
15.3670
 30
0.0000
 11
22.7330
 21
15.3670
 31
0.0000
  0
LINE
  8
1
 10
22.7330
 20
15.3670
 30
0.0000
 11
22.8600
 21
15.4940
 31
0.0000
  0
LINE
  8
1
 10
22.8600
 20
15.4940
 30
0.0000
 11
22.8600
 21
16.1036
 31
0.0000
  0
LINE
  8
1
 10
6.6167
 20
12.9923
 30
0.0000
 11
6.6167
 21
14.0083
 31
0.0000
  0
LINE
  8
1
 10
6.6167
 20
14.0083
 30
0.0000
 11
6.7390
 21
14.1306
 31
0.0000
  0
LINE
  8
1
 10
6.7390
 20
14.1306
 30
0.0000
 11
6.7390
 21
13.6730
 31
0.0000
  0
LINE
  8
1
 10
6.7390
 20
13.6730
 30
0.0000
 11
7.4970
 21
13.6730
 31
0.0000
  0
LINE
  8
1
 10
7.4970
 20
13.6730
 30
0.0000
 11
7.4970
 21
13.4270
 31
0.0000
  0
LINE
  8
1
 10
7.4970
 20
13.4270
 30
0.0000
 11
6.7390
 21
13.4270
 31
0.0000
  0
LINE
  8
1
 10
6.7390
 20
13.4270
 30
0.0000
 11
6.7390
 21
12.9498
 31
0.0000
  0
LINE
  8
1
 10
6.7390
 20
12.9498
 30
0.0000
 11
6.7650
 21
12.8529
 31
0.0000
  0
LINE
  8
1
 10
6.7650
 20
12.8529
 30
0.0000
 11
6.8151
 21
12.7661
 31
0.0000
  0
LINE
  8
1
 10
6.8151
 20
12.7661
 30
0.0000
 11
6.8453
 21
12.7359
 31
0.0000
  0
LINE
  8
1
 10
6.8453
 20
12.7359
 30
0.0000
 11
6.6882
 21
12.5789
 31
0.0000
  0
LINE
  8
1
 10
6.6882
 20
12.5789
 30
0.0000
 11
6.6882
 21
12.3707
 31
0.0000
  0
LINE
  8
1
 10
6.6882
 20
12.3707
 30
0.0000
 11
6.6167
 21
12.3707
 31
0.0000
  0
LINE
  8
1
 10
6.6167
 20
12.3707
 30
0.0000
 11
6.6167
 21
12.9923
 31
0.0000
  0
LINE
  8
1
 10
17.0031
 20
4.9728
 30
0.0000
 11
16.6172
 21
4.5869
 31
0.0000
  0
LINE
  8
1
 10
16.6172
 20
4.5869
 30
0.0000
 11
16.5100
 21
4.3281
 31
0.0000
  0
LINE
  8
1
 10
16.5100
 20
4.3281
 30
0.0000
 11
16.4028
 21
4.5869
 31
0.0000
  0
LINE
  8
1
 10
16.4028
 20
4.5869
 30
0.0000
 11
16.0169
 21
4.9728
 31
0.0000
  0
LINE
  8
1
 10
16.0169
 20
4.9728
 30
0.0000
 11
15.7607
 21
5.0789
 31
0.0000
  0
LINE
  8
1
 10
15.7607
 20
5.0789
 30
0.0000
 11
15.7607
 21
6.5657
 31
0.0000
  0
LINE
  8
1
 10
15.7607
 20
6.5657
 30
0.0000
 11
15.4557
 21
6.8707
 31
0.0000
  0
LINE
  8
1
 10
15.4557
 20
6.8707
 30
0.0000
 11
14.7701
 21
7.5563
 31
0.0000
  0
LINE
  8
1
 10
14.7701
 20
7.5563
 30
0.0000
 11
14.7701
 21
7.7792
 31
0.0000
  0
LINE
  8
1
 10
14.7701
 20
7.7792
 30
0.0000
 11
14.6683
 21
8.0250
 31
0.0000
  0
LINE
  8
1
 10
14.6683
 20
8.0250
 30
0.0000
 11
14.7278
 21
8.0090
 31
0.0000
  0
LINE
  8
1
 10
14.7278
 20
8.0090
 30
0.0000
 11
15.2050
 21
8.0090
 31
0.0000
  0
LINE
  8
1
 10
15.2050
 20
8.0090
 30
0.0000
 11
15.2050
 21
8.7670
 31
0.0000
  0
LINE
  8
1
 10
15.2050
 20
8.7670
 30
0.0000
 11
15.4510
 21
8.7670
 31
0.0000
  0
LINE
  8
1
 10
15.4510
 20
8.7670
 30
0.0000
 11
15.4510
 21
8.0090
 31
0.0000
  0
LINE
  8
1
 10
15.4510
 20
8.0090
 30
0.0000
 11
15.9282
 21
8.0090
 31
0.0000
  0
LINE
  8
1
 10
15.9282
 20
8.0090
 30
0.0000
 11
16.0251
 21
8.0350
 31
0.0000
  0
LINE
  8
1
 10
16.0251
 20
8.0350
 30
0.0000
 11
16.1119
 21
8.0851
 31
0.0000
  0
LINE
  8
1
 10
16.1119
 20
8.0851
 30
0.0000
 11
16.1829
 21
8.1561
 31
0.0000
  0
LINE
  8
1
 10
16.1829
 20
8.1561
 30
0.0000
 11
16.2330
 21
8.2429
 31
0.0000
  0
LINE
  8
1
 10
16.2330
 20
8.2429
 30
0.0000
 11
16.2590
 21
8.3398
 31
0.0000
  0
LINE
  8
1
 10
16.2590
 20
8.3398
 30
0.0000
 11
16.2590
 21
8.7670
 31
0.0000
  0
LINE
  8
1
 10
16.2590
 20
8.7670
 30
0.0000
 11
15.4510
 21
8.7670
 31
0.0000
  0
LINE
  8
1
 10
15.4510
 20
8.7670
 30
0.0000
 11
15.4510
 21
9.0130
 31
0.0000
  0
LINE
  8
1
 10
15.4510
 20
9.0130
 30
0.0000
 11
16.2590
 21
9.0130
 31
0.0000
  0
LINE
  8
1
 10
16.2590
 20
9.0130
 30
0.0000
 11
16.2590
 21
9.2583
 31
0.0000
  0
LINE
  8
1
 10
16.2590
 20
9.2583
 30
0.0000
 11
16.6753
 21
9.2583
 31
0.0000
  0
LINE
  8
1
 10
16.6753
 20
9.2583
 30
0.0000
 11
17.2593
 21
8.6743
 31
0.0000
  0
LINE
  8
1
 10
17.2593
 20
8.6743
 30
0.0000
 11
17.2593
 21
5.0789
 31
0.0000
  0
LINE
  8
1
 10
17.2593
 20
5.0789
 30
0.0000
 11
17.0031
 21
4.9728
 31
0.0000
  0
LINE
  8
1
 10
10.3750
 20
12.6670
 30
0.0000
 11
10.3750
 21
12.5880
 31
0.0000
  0
LINE
  8
1
 10
10.3750
 20
12.5880
 30
0.0000
 11
10.3750
 21
12.5880
 31
0.0000
  0
LINE
  8
1
 10
10.3750
 20
12.5880
 30
0.0000
 11
10.3750
 21
13.2380
 31
0.0000
  0
LINE
  8
1
 10
10.3750
 20
13.2380
 30
0.0000
 11
10.3750
 21
13.2380
 31
0.0000
  0
LINE
  8
1
 10
10.3750
 20
13.2380
 30
0.0000
 11
10.3750
 21
12.6670
 31
0.0000
  0
LINE
  8
1
 10
18.8040
 20
11.9730
 30
0.0000
 11
19.5620
 21
11.9730
 31
0.0000
  0
LINE
  8
1
 10
19.5620
 20
11.9730
 30
0.0000
 11
19.5620
 21
11.7270
 31
0.0000
  0
LINE
  8
1
 10
19.5620
 20
11.7270
 30
0.0000
 11
18.8040
 21
11.7270
 31
0.0000
  0
LINE
  8
1
 10
18.8040
 20
11.7270
 30
0.0000
 11
18.8040
 21
11.2694
 31
0.0000
  0
LINE
  8
1
 10
18.8040
 20
11.2694
 30
0.0000
 11
18.6610
 21
11.4124
 31
0.0000
  0
LINE
  8
1
 10
18.6610
 20
11.4124
 30
0.0000
 11
18.6610
 21
11.7270
 31
0.0000
  0
LINE
  8
1
 10
18.6610
 20
11.7270
 30
0.0000
 11
17.9030
 21
11.7270
 31
0.0000
  0
LINE
  8
1
 10
17.9030
 20
11.7270
 30
0.0000
 11
17.9030
 21
11.9730
 31
0.0000
  0
LINE
  8
1
 10
17.9030
 20
11.9730
 30
0.0000
 11
18.6610
 21
11.9730
 31
0.0000
  0
LINE
  8
1
 10
18.6610
 20
11.9730
 30
0.0000
 11
18.6610
 21
12.2096
 31
0.0000
  0
LINE
  8
1
 10
18.6610
 20
12.2096
 30
0.0000
 11
18.8040
 21
12.3526
 31
0.0000
  0
LINE
  8
1
 10
18.8040
 20
12.3526
 30
0.0000
 11
18.8040
 21
11.9730
 31
0.0000
  0
LINE
  8
1
 10
17.1011
 20
14.5318
 30
0.0000
 11
16.8482
 21
14.2789
 31
0.0000
  0
LINE
  8
1
 10
16.8482
 20
14.2789
 30
0.0000
 11
16.8482
 21
14.0707
 31
0.0000
  0
LINE
  8
1
 10
16.8482
 20
14.0707
 30
0.0000
 11
16.5093
 21
14.0707
 31
0.0000
  0
LINE
  8
1
 10
16.5093
 20
14.0707
 30
0.0000
 11
15.9068
 21
13.4682
 31
0.0000
  0
LINE
  8
1
 10
15.9068
 20
13.4682
 30
0.0000
 11
15.9068
 21
13.6069
 31
0.0000
  0
LINE
  8
1
 10
15.9068
 20
13.6069
 30
0.0000
 11
15.6539
 21
13.8598
 31
0.0000
  0
LINE
  8
1
 10
15.6539
 20
13.8598
 30
0.0000
 11
14.3961
 21
13.8598
 31
0.0000
  0
LINE
  8
1
 10
14.3961
 20
13.8598
 30
0.0000
 11
14.3953
 21
13.8590
 31
0.0000
  0
LINE
  8
1
 10
14.3953
 20
13.8590
 30
0.0000
 11
14.3953
 21
13.9432
 31
0.0000
  0
LINE
  8
1
 10
14.3953
 20
13.9432
 30
0.0000
 11
14.1052
 21
14.2333
 31
0.0000
  0
LINE
  8
1
 10
14.1052
 20
14.2333
 30
0.0000
 11
11.2948
 21
14.2333
 31
0.0000
  0
LINE
  8
1
 10
11.2948
 20
14.2333
 30
0.0000
 11
11.0047
 21
13.9432
 31
0.0000
  0
LINE
  8
1
 10
11.0047
 20
13.9432
 30
0.0000
 11
11.0047
 21
13.7642
 31
0.0000
  0
LINE
  8
1
 10
11.0047
 20
13.7642
 30
0.0000
 11
10.9721
 21
13.7830
 31
0.0000
  0
LINE
  8
1
 10
10.9721
 20
13.7830
 30
0.0000
 11
10.8752
 21
13.8090
 31
0.0000
  0
LINE
  8
1
 10
10.8752
 20
13.8090
 30
0.0000
 11
10.3750
 21
13.8090
 31
0.0000
  0
LINE
  8
1
 10
10.3750
 20
13.8090
 30
0.0000
 11
10.3750
 21
13.2380
 31
0.0000
  0
LINE
  8
1
 10
10.3750
 20
13.2380
 30
0.0000
 11
10.3750
 21
13.2380
 31
0.0000
  0
LINE
  8
1
 10
10.3750
 20
13.2380
 30
0.0000
 11
10.3750
 21
13.8090
 31
0.0000
  0
LINE
  8
1
 10
10.3750
 20
13.8090
 30
0.0000
 11
9.8748
 21
13.8090
 31
0.0000
  0
LINE
  8
1
 10
9.8748
 20
13.8090
 30
0.0000
 11
9.7779
 21
13.7830
 31
0.0000
  0
LINE
  8
1
 10
9.7779
 20
13.7830
 30
0.0000
 11
9.6911
 21
13.7329
 31
0.0000
  0
LINE
  8
1
 10
9.6911
 20
13.7329
 30
0.0000
 11
9.6201
 21
13.6619
 31
0.0000
  0
LINE
  8
1
 10
9.6201
 20
13.6619
 30
0.0000
 11
9.5700
 21
13.5751
 31
0.0000
  0
LINE
  8
1
 10
9.5700
 20
13.5751
 30
0.0000
 11
9.5440
 21
13.4782
 31
0.0000
  0
LINE
  8
1
 10
9.5440
 20
13.4782
 30
0.0000
 11
9.5440
 21
13.2380
 31
0.0000
  0
LINE
  8
1
 10
9.5440
 20
13.2380
 30
0.0000
 11
10.3750
 21
13.2380
 31
0.0000
  0
LINE
  8
1
 10
10.3750
 20
13.2380
 30
0.0000
 11
10.3750
 21
13.2380
 31
0.0000
  0
LINE
  8
1
 10
10.3750
 20
13.2380
 30
0.0000
 11
9.5440
 21
13.2380
 31
0.0000
  0
LINE
  8
1
 10
9.5440
 20
13.2380
 30
0.0000
 11
9.5440
 21
12.9978
 31
0.0000
  0
LINE
  8
1
 10
9.5440
 20
12.9978
 30
0.0000
 11
9.5667
 21
12.9130
 31
0.0000
  0
LINE
  8
1
 10
9.5667
 20
12.9130
 30
0.0000
 11
9.5440
 21
12.8282
 31
0.0000
  0
LINE
  8
1
 10
9.5440
 20
12.8282
 30
0.0000
 11
9.5440
 21
12.5880
 31
0.0000
  0
LINE
  8
1
 10
9.5440
 20
12.5880
 30
0.0000
 11
10.3750
 21
12.5880
 31
0.0000
  0
LINE
  8
1
 10
10.3750
 20
12.5880
 30
0.0000
 11
10.3750
 21
12.5880
 31
0.0000
  0
LINE
  8
1
 10
10.3750
 20
12.5880
 30
0.0000
 11
9.5440
 21
12.5880
 31
0.0000
  0
LINE
  8
1
 10
9.5440
 20
12.5880
 30
0.0000
 11
9.5440
 21
12.4587
 31
0.0000
  0
LINE
  8
1
 10
9.5440
 20
12.4587
 30
0.0000
 11
8.6743
 21
12.4587
 31
0.0000
  0
LINE
  8
1
 10
8.6743
 20
12.4587
 30
0.0000
 11
8.5863
 21
12.3707
 31
0.0000
  0
LINE
  8
1
 10
8.5863
 20
12.3707
 30
0.0000
 11
8.5518
 21
12.3707
 31
0.0000
  0
LINE
  8
1
 10
8.5518
 20
12.3707
 30
0.0000
 11
8.5518
 21
12.5789
 31
0.0000
  0
LINE
  8
1
 10
8.5518
 20
12.5789
 30
0.0000
 11
8.3947
 21
12.7359
 31
0.0000
  0
LINE
  8
1
 10
8.3947
 20
12.7359
 30
0.0000
 11
8.4249
 21
12.7661
 31
0.0000
  0
LINE
  8
1
 10
8.4249
 20
12.7661
 30
0.0000
 11
8.4750
 21
12.8529
 31
0.0000
  0
LINE
  8
1
 10
8.4750
 20
12.8529
 30
0.0000
 11
8.5010
 21
12.9498
 31
0.0000
  0
LINE
  8
1
 10
8.5010
 20
12.9498
 30
0.0000
 11
8.5010
 21
13.4270
 31
0.0000
  0
LINE
  8
1
 10
8.5010
 20
13.4270
 30
0.0000
 11
7.7430
 21
13.4270
 31
0.0000
  0
LINE
  8
1
 10
7.7430
 20
13.4270
 30
0.0000
 11
7.7430
 21
13.6730
 31
0.0000
  0
LINE
  8
1
 10
7.7430
 20
13.6730
 30
0.0000
 11
8.5010
 21
13.6730
 31
0.0000
  0
LINE
  8
1
 10
8.5010
 20
13.6730
 30
0.0000
 11
8.5010
 21
14.1502
 31
0.0000
  0
LINE
  8
1
 10
8.5010
 20
14.1502
 30
0.0000
 11
8.4846
 21
14.2113
 31
0.0000
  0
LINE
  8
1
 10
8.4846
 20
14.2113
 30
0.0000
 11
9.7407
 21
14.2113
 31
0.0000
  0
LINE
  8
1
 10
9.7407
 20
14.2113
 30
0.0000
 11
10.0457
 21
14.5163
 31
0.0000
  0
LINE
  8
1
 10
10.0457
 20
14.5163
 30
0.0000
 11
10.1217
 21
14.5923
 31
0.0000
  0
LINE
  8
1
 10
10.1217
 20
14.5923
 30
0.0000
 11
12.2807
 21
14.5923
 31
0.0000
  0
LINE
  8
1
 10
12.2807
 20
14.5923
 30
0.0000
 11
12.5857
 21
14.8973
 31
0.0000
  0
LINE
  8
1
 10
12.5857
 20
14.8973
 30
0.0000
 11
13.1316
 21
15.4432
 31
0.0000
  0
LINE
  8
1
 10
13.1316
 20
15.4432
 30
0.0000
 11
14.0092
 21
15.4432
 31
0.0000
  0
LINE
  8
1
 10
14.0092
 20
15.4432
 30
0.0000
 11
14.2621
 21
15.6961
 31
0.0000
  0
LINE
  8
1
 10
14.2621
 20
15.6961
 30
0.0000
 11
14.2621
 21
15.9893
 31
0.0000
  0
LINE
  8
1
 10
14.2621
 20
15.9893
 30
0.0000
 11
14.6937
 21
15.9893
 31
0.0000
  0
LINE
  8
1
 10
14.6937
 20
15.9893
 30
0.0000
 11
15.5437
 21
16.8393
 31
0.0000
  0
LINE
  8
1
 10
15.5437
 20
16.8393
 30
0.0000
 11
16.8482
 21
16.8393
 31
0.0000
  0
LINE
  8
1
 10
16.8482
 20
16.8393
 30
0.0000
 11
16.8482
 21
16.6311
 31
0.0000
  0
LINE
  8
1
 10
16.8482
 20
16.6311
 30
0.0000
 11
16.9693
 21
16.5100
 31
0.0000
  0
LINE
  8
1
 10
16.9693
 20
16.5100
 30
0.0000
 11
16.8482
 21
16.3889
 31
0.0000
  0
LINE
  8
1
 10
16.8482
 20
16.3889
 30
0.0000
 11
16.8482
 21
16.1807
 31
0.0000
  0
LINE
  8
1
 10
16.8482
 20
16.1807
 30
0.0000
 11
15.4443
 21
16.1807
 31
0.0000
  0
LINE
  8
1
 10
15.4443
 20
16.1807
 30
0.0000
 11
15.3037
 21
16.0401
 31
0.0000
  0
LINE
  8
1
 10
15.3037
 20
16.0401
 30
0.0000
 11
15.0808
 21
16.0401
 31
0.0000
  0
LINE
  8
1
 10
15.0808
 20
16.0401
 30
0.0000
 11
14.7868
 21
15.9183
 31
0.0000
  0
LINE
  8
1
 10
14.7868
 20
15.9183
 30
0.0000
 11
14.5617
 21
15.6932
 31
0.0000
  0
LINE
  8
1
 10
14.5617
 20
15.6932
 30
0.0000
 11
14.4399
 21
15.3992
 31
0.0000
  0
LINE
  8
1
 10
14.4399
 20
15.3992
 30
0.0000
 11
14.4399
 21
15.0808
 31
0.0000
  0
LINE
  8
1
 10
14.4399
 20
15.0808
 30
0.0000
 11
14.5617
 21
14.7868
 31
0.0000
  0
LINE
  8
1
 10
14.5617
 20
14.7868
 30
0.0000
 11
14.7868
 21
14.5617
 31
0.0000
  0
LINE
  8
1
 10
14.7868
 20
14.5617
 30
0.0000
 11
15.0808
 21
14.4399
 31
0.0000
  0
LINE
  8
1
 10
15.0808
 20
14.4399
 30
0.0000
 11
15.3992
 21
14.4399
 31
0.0000
  0
LINE
  8
1
 10
15.3992
 20
14.4399
 30
0.0000
 11
15.6932
 21
14.5617
 31
0.0000
  0
LINE
  8
1
 10
15.6932
 20
14.5617
 30
0.0000
 11
15.9183
 21
14.7868
 31
0.0000
  0
LINE
  8
1
 10
15.9183
 20
14.7868
 30
0.0000
 11
16.0401
 21
15.0808
 31
0.0000
  0
LINE
  8
1
 10
16.0401
 20
15.0808
 30
0.0000
 11
16.0401
 21
15.1393
 31
0.0000
  0
LINE
  8
1
 10
16.0401
 20
15.1393
 30
0.0000
 11
16.8482
 21
15.1393
 31
0.0000
  0
LINE
  8
1
 10
16.8482
 20
15.1393
 30
0.0000
 11
16.8482
 21
14.9311
 31
0.0000
  0
LINE
  8
1
 10
16.8482
 20
14.9311
 30
0.0000
 11
17.1011
 21
14.6782
 31
0.0000
  0
LINE
  8
1
 10
17.1011
 20
14.6782
 30
0.0000
 11
18.2753
 21
14.6782
 31
0.0000
  0
LINE
  8
1
 10
18.2753
 20
14.6782
 30
0.0000
 11
18.2753
 21
14.5318
 31
0.0000
  0
LINE
  8
1
 10
18.2753
 20
14.5318
 30
0.0000
 11
17.1011
 21
14.5318
 31
0.0000
  0
LINE
  8
1
 10
22.5173
 20
14.8463
 30
0.0000
 11
22.8958
 21
14.8463
 31
0.0000
  0
LINE
  8
1
 10
22.8958
 20
14.8463
 30
0.0000
 11
22.6547
 21
14.6052
 31
0.0000
  0
LINE
  8
1
 10
22.6547
 20
14.6052
 30
0.0000
 11
22.6547
 21
10.7948
 31
0.0000
  0
LINE
  8
1
 10
22.6547
 20
10.7948
 30
0.0000
 11
22.9448
 21
10.5047
 31
0.0000
  0
LINE
  8
1
 10
22.9448
 20
10.5047
 30
0.0000
 11
24.8666
 21
10.5047
 31
0.0000
  0
LINE
  8
1
 10
24.8666
 20
10.5047
 30
0.0000
 11
24.8666
 21
10.1818
 31
0.0000
  0
LINE
  8
1
 10
24.8666
 20
10.1818
 30
0.0000
 11
22.8161
 21
10.1818
 31
0.0000
  0
LINE
  8
1
 10
22.8161
 20
10.1818
 30
0.0000
 11
22.5632
 21
9.9289
 31
0.0000
  0
LINE
  8
1
 10
22.5632
 20
9.9289
 30
0.0000
 11
22.5632
 21
8.3711
 31
0.0000
  0
LINE
  8
1
 10
22.5632
 20
8.3711
 30
0.0000
 11
22.8161
 21
8.1182
 31
0.0000
  0
LINE
  8
1
 10
22.8161
 20
8.1182
 30
0.0000
 11
24.8666
 21
8.1182
 31
0.0000
  0
LINE
  8
1
 10
24.8666
 20
8.1182
 30
0.0000
 11
24.8666
 21
4.5818
 31
0.0000
  0
LINE
  8
1
 10
24.8666
 20
4.5818
 30
0.0000
 11
22.8161
 21
4.5818
 31
0.0000
  0
LINE
  8
1
 10
22.8161
 20
4.5818
 30
0.0000
 11
22.5632
 21
4.3289
 31
0.0000
  0
LINE
  8
1
 10
22.5632
 20
4.3289
 30
0.0000
 11
22.5632
 21
2.7711
 31
0.0000
  0
LINE
  8
1
 10
22.5632
 20
2.7711
 30
0.0000
 11
22.8161
 21
2.5182
 31
0.0000
  0
LINE
  8
1
 10
22.8161
 20
2.5182
 30
0.0000
 11
24.8666
 21
2.5182
 31
0.0000
  0
LINE
  8
1
 10
24.8666
 20
2.5182
 30
0.0000
 11
24.8666
 21
1.5527
 31
0.0000
  0
LINE
  8
1
 10
24.8666
 20
1.5527
 30
0.0000
 11
24.6600
 21
1.6383
 31
0.0000
  0
LINE
  8
1
 10
24.6600
 20
1.6383
 30
0.0000
 11
24.3620
 21
1.6383
 31
0.0000
  0
LINE
  8
1
 10
24.3620
 20
1.6383
 30
0.0000
 11
24.0866
 21
1.5242
 31
0.0000
  0
LINE
  8
1
 10
24.0866
 20
1.5242
 30
0.0000
 11
23.8758
 21
1.3134
 31
0.0000
  0
LINE
  8
1
 10
23.8758
 20
1.3134
 30
0.0000
 11
23.7617
 21
1.0380
 31
0.0000
  0
LINE
  8
1
 10
23.7617
 20
1.0380
 30
0.0000
 11
23.7617
 21
0.7400
 31
0.0000
  0
LINE
  8
1
 10
23.7617
 20
0.7400
 30
0.0000
 11
23.8473
 21
0.5334
 31
0.0000
  0
LINE
  8
1
 10
23.8473
 20
0.5334
 30
0.0000
 11
14.8953
 21
0.5334
 31
0.0000
  0
LINE
  8
1
 10
14.8953
 20
0.5334
 30
0.0000
 11
14.8953
 21
2.4552
 31
0.0000
  0
LINE
  8
1
 10
14.8953
 20
2.4552
 30
0.0000
 11
14.8731
 21
2.4774
 31
0.0000
  0
LINE
  8
1
 10
14.8731
 20
2.4774
 30
0.0000
 11
14.9672
 21
2.4384
 31
0.0000
  0
LINE
  8
1
 10
14.9672
 20
2.4384
 30
0.0000
 11
15.5128
 21
2.4384
 31
0.0000
  0
LINE
  8
1
 10
15.5128
 20
2.4384
 30
0.0000
 11
16.0169
 21
2.6472
 31
0.0000
  0
LINE
  8
1
 10
16.0169
 20
2.6472
 30
0.0000
 11
16.4028
 21
3.0331
 31
0.0000
  0
LINE
  8
1
 10
16.4028
 20
3.0331
 30
0.0000
 11
16.5100
 21
3.2919
 31
0.0000
  0
LINE
  8
1
 10
16.5100
 20
3.2919
 30
0.0000
 11
16.6172
 21
3.0331
 31
0.0000
  0
LINE
  8
1
 10
16.6172
 20
3.0331
 30
0.0000
 11
17.0031
 21
2.6472
 31
0.0000
  0
LINE
  8
1
 10
17.0031
 20
2.6472
 30
0.0000
 11
17.5072
 21
2.4384
 31
0.0000
  0
LINE
  8
1
 10
17.5072
 20
2.4384
 30
0.0000
 11
18.0528
 21
2.4384
 31
0.0000
  0
LINE
  8
1
 10
18.0528
 20
2.4384
 30
0.0000
 11
18.5569
 21
2.6472
 31
0.0000
  0
LINE
  8
1
 10
18.5569
 20
2.6472
 30
0.0000
 11
18.9428
 21
3.0331
 31
0.0000
  0
LINE
  8
1
 10
18.9428
 20
3.0331
 30
0.0000
 11
19.1516
 21
3.5372
 31
0.0000
  0
LINE
  8
1
 10
19.1516
 20
3.5372
 30
0.0000
 11
19.1516
 21
4.0828
 31
0.0000
  0
LINE
  8
1
 10
19.1516
 20
4.0828
 30
0.0000
 11
18.9428
 21
4.5869
 31
0.0000
  0
LINE
  8
1
 10
18.9428
 20
4.5869
 30
0.0000
 11
18.5569
 21
4.9728
 31
0.0000
  0
LINE
  8
1
 10
18.5569
 20
4.9728
 30
0.0000
 11
18.3007
 21
5.0789
 31
0.0000
  0
LINE
  8
1
 10
18.3007
 20
5.0789
 30
0.0000
 11
18.3007
 21
9.1057
 31
0.0000
  0
LINE
  8
1
 10
18.3007
 20
9.1057
 30
0.0000
 11
17.9957
 21
9.4107
 31
0.0000
  0
LINE
  8
1
 10
17.9957
 20
9.4107
 30
0.0000
 11
17.5131
 21
9.8933
 31
0.0000
  0
LINE
  8
1
 10
17.5131
 20
9.8933
 30
0.0000
 11
17.9453
 21
9.8933
 31
0.0000
  0
LINE
  8
1
 10
17.9453
 20
9.8933
 30
0.0000
 11
18.8849
 21
8.9537
 31
0.0000
  0
LINE
  8
1
 10
18.8849
 20
8.9537
 30
0.0000
 11
18.8849
 21
8.8263
 31
0.0000
  0
LINE
  8
1
 10
18.8849
 20
8.8263
 30
0.0000
 11
18.6563
 21
8.5977
 31
0.0000
  0
LINE
  8
1
 10
18.6563
 20
8.5977
 30
0.0000
 11
18.6563
 21
5.8803
 31
0.0000
  0
LINE
  8
1
 10
18.6563
 20
5.8803
 30
0.0000
 11
18.9613
 21
5.5753
 31
0.0000
  0
LINE
  8
1
 10
18.9613
 20
5.5753
 30
0.0000
 11
19.2073
 21
5.3293
 31
0.0000
  0
LINE
  8
1
 10
19.2073
 20
5.3293
 30
0.0000
 11
19.2550
 21
5.3293
 31
0.0000
  0
LINE
  8
1
 10
19.2550
 20
5.3293
 30
0.0000
 11
19.2894
 21
5.2949
 31
0.0000
  0
LINE
  8
1
 10
19.2894
 20
5.2949
 30
0.0000
 11
19.2640
 21
5.2002
 31
0.0000
  0
LINE
  8
1
 10
19.2640
 20
5.2002
 30
0.0000
 11
19.2640
 21
4.8730
 31
0.0000
  0
LINE
  8
1
 10
19.2640
 20
4.8730
 30
0.0000
 11
20.2970
 21
4.8730
 31
0.0000
  0
LINE
  8
1
 10
20.2970
 20
4.8730
 30
0.0000
 11
20.2970
 21
4.8270
 31
0.0000
  0
LINE
  8
1
 10
20.2970
 20
4.8270
 30
0.0000
 11
19.2640
 21
4.8270
 31
0.0000
  0
LINE
  8
1
 10
19.2640
 20
4.8270
 30
0.0000
 11
19.2640
 21
4.4998
 31
0.0000
  0
LINE
  8
1
 10
19.2640
 20
4.4998
 30
0.0000
 11
19.2900
 21
4.4029
 31
0.0000
  0
LINE
  8
1
 10
19.2900
 20
4.4029
 30
0.0000
 11
19.3401
 21
4.3161
 31
0.0000
  0
LINE
  8
1
 10
19.3401
 20
4.3161
 30
0.0000
 11
19.4111
 21
4.2451
 31
0.0000
  0
LINE
  8
1
 10
19.4111
 20
4.2451
 30
0.0000
 11
19.4979
 21
4.1950
 31
0.0000
  0
LINE
  8
1
 10
19.4979
 20
4.1950
 30
0.0000
 11
19.5948
 21
4.1690
 31
0.0000
  0
LINE
  8
1
 10
19.5948
 20
4.1690
 30
0.0000
 11
20.2970
 21
4.1690
 31
0.0000
  0
LINE
  8
1
 10
20.2970
 20
4.1690
 30
0.0000
 11
20.2970
 21
4.8270
 31
0.0000
  0
LINE
  8
1
 10
20.2970
 20
4.8270
 30
0.0000
 11
20.3430
 21
4.8270
 31
0.0000
  0
LINE
  8
1
 10
20.3430
 20
4.8270
 30
0.0000
 11
20.3430
 21
4.1690
 31
0.0000
  0
LINE
  8
1
 10
20.3430
 20
4.1690
 30
0.0000
 11
21.0452
 21
4.1690
 31
0.0000
  0
LINE
  8
1
 10
21.0452
 20
4.1690
 30
0.0000
 11
21.1421
 21
4.1950
 31
0.0000
  0
LINE
  8
1
 10
21.1421
 20
4.1950
 30
0.0000
 11
21.2289
 21
4.2451
 31
0.0000
  0
LINE
  8
1
 10
21.2289
 20
4.2451
 30
0.0000
 11
21.2999
 21
4.3161
 31
0.0000
  0
LINE
  8
1
 10
21.2999
 20
4.3161
 30
0.0000
 11
21.3500
 21
4.4029
 31
0.0000
  0
LINE
  8
1
 10
21.3500
 20
4.4029
 30
0.0000
 11
21.3760
 21
4.4998
 31
0.0000
  0
LINE
  8
1
 10
21.3760
 20
4.4998
 30
0.0000
 11
21.3760
 21
4.8270
 31
0.0000
  0
LINE
  8
1
 10
21.3760
 20
4.8270
 30
0.0000
 11
20.3430
 21
4.8270
 31
0.0000
  0
LINE
  8
1
 10
20.3430
 20
4.8270
 30
0.0000
 11
20.3430
 21
4.8730
 31
0.0000
  0
LINE
  8
1
 10
20.3430
 20
4.8730
 30
0.0000
 11
21.3760
 21
4.8730
 31
0.0000
  0
LINE
  8
1
 10
21.3760
 20
4.8730
 30
0.0000
 11
21.3760
 21
5.2002
 31
0.0000
  0
LINE
  8
1
 10
21.3760
 20
5.2002
 30
0.0000
 11
21.3506
 21
5.2949
 31
0.0000
  0
LINE
  8
1
 10
21.3506
 20
5.2949
 30
0.0000
 11
21.4268
 21
5.3711
 31
0.0000
  0
LINE
  8
1
 10
21.4268
 20
5.3711
 30
0.0000
 11
21.4268
 21
6.1863
 31
0.0000
  0
LINE
  8
1
 10
21.4268
 20
6.1863
 30
0.0000
 11
21.5467
 21
5.8968
 31
0.0000
  0
LINE
  8
1
 10
21.5467
 20
5.8968
 30
0.0000
 11
21.7718
 21
5.6717
 31
0.0000
  0
LINE
  8
1
 10
21.7718
 20
5.6717
 30
0.0000
 11
22.0658
 21
5.5499
 31
0.0000
  0
LINE
  8
1
 10
22.0658
 20
5.5499
 30
0.0000
 11
22.3842
 21
5.5499
 31
0.0000
  0
LINE
  8
1
 10
22.3842
 20
5.5499
 30
0.0000
 11
22.6782
 21
5.6717
 31
0.0000
  0
LINE
  8
1
 10
22.6782
 20
5.6717
 30
0.0000
 11
22.8600
 21
5.8535
 31
0.0000
  0
LINE
  8
1
 10
22.8600
 20
5.8535
 30
0.0000
 11
23.0418
 21
5.6717
 31
0.0000
  0
LINE
  8
1
 10
23.0418
 20
5.6717
 30
0.0000
 11
23.3358
 21
5.5499
 31
0.0000
  0
LINE
  8
1
 10
23.3358
 20
5.5499
 30
0.0000
 11
23.6542
 21
5.5499
 31
0.0000
  0
LINE
  8
1
 10
23.6542
 20
5.5499
 30
0.0000
 11
23.9482
 21
5.6717
 31
0.0000
  0
LINE
  8
1
 10
23.9482
 20
5.6717
 30
0.0000
 11
24.1733
 21
5.8968
 31
0.0000
  0
LINE
  8
1
 10
24.1733
 20
5.8968
 30
0.0000
 11
24.2951
 21
6.1908
 31
0.0000
  0
LINE
  8
1
 10
24.2951
 20
6.1908
 30
0.0000
 11
24.2951
 21
6.5091
 31
0.0000
  0
LINE
  8
1
 10
24.2951
 20
6.5091
 30
0.0000
 11
24.1733
 21
6.8032
 31
0.0000
  0
LINE
  8
1
 10
24.1733
 20
6.8032
 30
0.0000
 11
23.9482
 21
7.0283
 31
0.0000
  0
LINE
  8
1
 10
23.9482
 20
7.0283
 30
0.0000
 11
23.6542
 21
7.1501
 31
0.0000
  0
LINE
  8
1
 10
23.6542
 20
7.1501
 30
0.0000
 11
23.4313
 21
7.1501
 31
0.0000
  0
LINE
  8
1
 10
23.4313
 20
7.1501
 30
0.0000
 11
22.2107
 21
8.3707
 31
0.0000
  0
LINE
  8
1
 10
22.2107
 20
8.3707
 30
0.0000
 11
21.3850
 21
8.3707
 31
0.0000
  0
LINE
  8
1
 10
21.3850
 20
8.3707
 30
0.0000
 11
21.1739
 21
8.5818
 31
0.0000
  0
LINE
  8
1
 10
21.1739
 20
8.5818
 30
0.0000
 11
20.4234
 21
8.5818
 31
0.0000
  0
LINE
  8
1
 10
20.4234
 20
8.5818
 30
0.0000
 11
20.4851
 21
8.7308
 31
0.0000
  0
LINE
  8
1
 10
20.4851
 20
8.7308
 30
0.0000
 11
20.4851
 21
9.0492
 31
0.0000
  0
LINE
  8
1
 10
20.4851
 20
9.0492
 30
0.0000
 11
20.3633
 21
9.3432
 31
0.0000
  0
LINE
  8
1
 10
20.3633
 20
9.3432
 30
0.0000
 11
20.1942
 21
9.5123
 31
0.0000
  0
LINE
  8
1
 10
20.1942
 20
9.5123
 30
0.0000
 11
21.5517
 21
9.5123
 31
0.0000
  0
LINE
  8
1
 10
21.5517
 20
9.5123
 30
0.0000
 11
21.8567
 21
9.8173
 31
0.0000
  0
LINE
  8
1
 10
21.8567
 20
9.8173
 30
0.0000
 11
22.1107
 21
10.0713
 31
0.0000
  0
LINE
  8
1
 10
22.1107
 20
10.0713
 30
0.0000
 11
22.1107
 21
10.8682
 31
0.0000
  0
LINE
  8
1
 10
22.1107
 20
10.8682
 30
0.0000
 11
22.2689
 21
10.8682
 31
0.0000
  0
LINE
  8
1
 10
22.2689
 20
10.8682
 30
0.0000
 11
22.5218
 21
11.1211
 31
0.0000
  0
LINE
  8
1
 10
22.5218
 20
11.1211
 30
0.0000
 11
22.5218
 21
12.5789
 31
0.0000
  0
LINE
  8
1
 10
22.5218
 20
12.5789
 30
0.0000
 11
22.4007
 21
12.7000
 31
0.0000
  0
LINE
  8
1
 10
22.4007
 20
12.7000
 30
0.0000
 11
22.5218
 21
12.8211
 31
0.0000
  0
LINE
  8
1
 10
22.5218
 20
12.8211
 30
0.0000
 11
22.5218
 21
14.2789
 31
0.0000
  0
LINE
  8
1
 10
22.5218
 20
14.2789
 30
0.0000
 11
22.3426
 21
14.4581
 31
0.0000
  0
LINE
  8
1
 10
22.3426
 20
14.4581
 30
0.0000
 11
22.3901
 21
14.5728
 31
0.0000
  0
LINE
  8
1
 10
22.3901
 20
14.5728
 30
0.0000
 11
22.3901
 21
14.8463
 31
0.0000
  0
LINE
  8
1
 10
22.3901
 20
14.8463
 30
0.0000
 11
22.5173
 21
14.8463
 31
0.0000
  0
LINE
  8
1
 10
20.5660
 20
11.7270
 30
0.0000
 11
19.8080
 21
11.7270
 31
0.0000
  0
LINE
  8
1
 10
19.8080
 20
11.7270
 30
0.0000
 11
19.8080
 21
11.9730
 31
0.0000
  0
LINE
  8
1
 10
19.8080
 20
11.9730
 30
0.0000
 11
20.5660
 21
11.9730
 31
0.0000
  0
LINE
  8
1
 10
20.5660
 20
11.9730
 30
0.0000
 11
20.5660
 21
12.4502
 31
0.0000
  0
LINE
  8
1
 10
20.5660
 20
12.4502
 30
0.0000
 11
20.5400
 21
12.5471
 31
0.0000
  0
LINE
  8
1
 10
20.5400
 20
12.5471
 30
0.0000
 11
20.4899
 21
12.6339
 31
0.0000
  0
LINE
  8
1
 10
20.4899
 20
12.6339
 30
0.0000
 11
20.4597
 21
12.6641
 31
0.0000
  0
LINE
  8
1
 10
20.4597
 20
12.6641
 30
0.0000
 11
20.6168
 21
12.8211
 31
0.0000
  0
LINE
  8
1
 10
20.6168
 20
12.8211
 30
0.0000
 11
20.6168
 21
14.2789
 31
0.0000
  0
LINE
  8
1
 10
20.6168
 20
14.2789
 30
0.0000
 11
20.3639
 21
14.5318
 31
0.0000
  0
LINE
  8
1
 10
20.3639
 20
14.5318
 30
0.0000
 11
20.2212
 21
14.5318
 31
0.0000
  0
LINE
  8
1
 10
20.2212
 20
14.5318
 30
0.0000
 11
20.5357
 21
14.8463
 31
0.0000
  0
LINE
  8
1
 10
20.5357
 20
14.8463
 30
0.0000
 11
20.7899
 21
14.8463
 31
0.0000
  0
LINE
  8
1
 10
20.7899
 20
14.8463
 30
0.0000
 11
20.7899
 21
14.5728
 31
0.0000
  0
LINE
  8
1
 10
20.7899
 20
14.5728
 30
0.0000
 11
20.8374
 21
14.4581
 31
0.0000
  0
LINE
  8
1
 10
20.8374
 20
14.4581
 30
0.0000
 11
20.6582
 21
14.2789
 31
0.0000
  0
LINE
  8
1
 10
20.6582
 20
14.2789
 30
0.0000
 11
20.6582
 21
12.8211
 31
0.0000
  0
LINE
  8
1
 10
20.6582
 20
12.8211
 30
0.0000
 11
20.7793
 21
12.7000
 31
0.0000
  0
LINE
  8
1
 10
20.7793
 20
12.7000
 30
0.0000
 11
20.6582
 21
12.5789
 31
0.0000
  0
LINE
  8
1
 10
20.6582
 20
12.5789
 30
0.0000
 11
20.6582
 21
11.1211
 31
0.0000
  0
LINE
  8
1
 10
20.6582
 20
11.1211
 30
0.0000
 11
20.9111
 21
10.8682
 31
0.0000
  0
LINE
  8
1
 10
20.9111
 20
10.8682
 30
0.0000
 11
21.0693
 21
10.8682
 31
0.0000
  0
LINE
  8
1
 10
21.0693
 20
10.8682
 30
0.0000
 11
21.0693
 21
10.5537
 31
0.0000
  0
LINE
  8
1
 10
21.0693
 20
10.5537
 30
0.0000
 11
19.5197
 21
10.5537
 31
0.0000
  0
LINE
  8
1
 10
19.5197
 20
10.5537
 30
0.0000
 11
19.1544
 21
10.9190
 31
0.0000
  0
LINE
  8
1
 10
19.1544
 20
10.9190
 30
0.0000
 11
19.5620
 21
10.9190
 31
0.0000
  0
LINE
  8
1
 10
19.5620
 20
10.9190
 30
0.0000
 11
19.5620
 21
11.7270
 31
0.0000
  0
LINE
  8
1
 10
19.5620
 20
11.7270
 30
0.0000
 11
19.8080
 21
11.7270
 31
0.0000
  0
LINE
  8
1
 10
19.8080
 20
11.7270
 30
0.0000
 11
19.8080
 21
10.9190
 31
0.0000
  0
LINE
  8
1
 10
19.8080
 20
10.9190
 30
0.0000
 11
20.2352
 21
10.9190
 31
0.0000
  0
LINE
  8
1
 10
20.2352
 20
10.9190
 30
0.0000
 11
20.3321
 21
10.9450
 31
0.0000
  0
LINE
  8
1
 10
20.3321
 20
10.9450
 30
0.0000
 11
20.4189
 21
10.9951
 31
0.0000
  0
LINE
  8
1
 10
20.4189
 20
10.9951
 30
0.0000
 11
20.4899
 21
11.0661
 31
0.0000
  0
LINE
  8
1
 10
20.4899
 20
11.0661
 30
0.0000
 11
20.5400
 21
11.1529
 31
0.0000
  0
LINE
  8
1
 10
20.5400
 20
11.1529
 30
0.0000
 11
20.5660
 21
11.2498
 31
0.0000
  0
LINE
  8
1
 10
20.5660
 20
11.2498
 30
0.0000
 11
20.5660
 21
11.7270
 31
0.0000
  0
LINE
  8
1
 10
23.6739
 20
15.3543
 30
0.0000
 11
23.9268
 21
15.6072
 31
0.0000
  0
LINE
  8
1
 10
23.9268
 20
15.6072
 30
0.0000
 11
23.9268
 21
17.4128
 31
0.0000
  0
LINE
  8
1
 10
23.9268
 20
17.4128
 30
0.0000
 11
23.6739
 21
17.6657
 31
0.0000
  0
LINE
  8
1
 10
23.6739
 20
17.6657
 30
0.0000
 11
22.0461
 21
17.6657
 31
0.0000
  0
LINE
  8
1
 10
22.0461
 20
17.6657
 30
0.0000
 11
21.8175
 21
17.4371
 31
0.0000
  0
LINE
  8
1
 10
21.8175
 20
17.4371
 30
0.0000
 11
21.3625
 21
17.4371
 31
0.0000
  0
LINE
  8
1
 10
21.3625
 20
17.4371
 30
0.0000
 11
21.1339
 21
17.6657
 31
0.0000
  0
LINE
  8
1
 10
21.1339
 20
17.6657
 30
0.0000
 11
20.8407
 21
17.6657
 31
0.0000
  0
LINE
  8
1
 10
20.8407
 20
17.6657
 30
0.0000
 11
20.8407
 21
18.6307
 31
0.0000
  0
LINE
  8
1
 10
20.8407
 20
18.6307
 30
0.0000
 11
20.5357
 21
18.9357
 31
0.0000
  0
LINE
  8
1
 10
20.5357
 20
18.9357
 30
0.0000
 11
19.9007
 21
19.5707
 31
0.0000
  0
LINE
  8
1
 10
19.9007
 20
19.5707
 30
0.0000
 11
13.7543
 21
19.5707
 31
0.0000
  0
LINE
  8
1
 10
13.7543
 20
19.5707
 30
0.0000
 11
12.1793
 21
17.9957
 31
0.0000
  0
LINE
  8
1
 10
12.1793
 20
17.9957
 30
0.0000
 11
12.1793
 21
17.5768
 31
0.0000
  0
LINE
  8
1
 10
12.1793
 20
17.5768
 30
0.0000
 11
11.3908
 21
17.5768
 31
0.0000
  0
LINE
  8
1
 10
11.3908
 20
17.5768
 30
0.0000
 11
11.1379
 21
17.3239
 31
0.0000
  0
LINE
  8
1
 10
11.1379
 20
17.3239
 30
0.0000
 11
11.1379
 21
17.0307
 31
0.0000
  0
LINE
  8
1
 10
11.1379
 20
17.0307
 30
0.0000
 11
11.1377
 21
17.0307
 31
0.0000
  0
LINE
  8
1
 10
11.1377
 20
17.0307
 30
0.0000
 11
10.2877
 21
17.8807
 31
0.0000
  0
LINE
  8
1
 10
10.2877
 20
17.8807
 30
0.0000
 11
8.5518
 21
17.8807
 31
0.0000
  0
LINE
  8
1
 10
8.5518
 20
17.8807
 30
0.0000
 11
8.5518
 21
18.0889
 31
0.0000
  0
LINE
  8
1
 10
8.5518
 20
18.0889
 30
0.0000
 11
8.2989
 21
18.3418
 31
0.0000
  0
LINE
  8
1
 10
8.2989
 20
18.3418
 30
0.0000
 11
6.9411
 21
18.3418
 31
0.0000
  0
LINE
  8
1
 10
6.9411
 20
18.3418
 30
0.0000
 11
6.6882
 21
18.0889
 31
0.0000
  0
LINE
  8
1
 10
6.6882
 20
18.0889
 30
0.0000
 11
6.6882
 21
16.6311
 31
0.0000
  0
LINE
  8
1
 10
6.6882
 20
16.6311
 30
0.0000
 11
6.8093
 21
16.5100
 31
0.0000
  0
LINE
  8
1
 10
6.8093
 20
16.5100
 30
0.0000
 11
6.6882
 21
16.3889
 31
0.0000
  0
LINE
  8
1
 10
6.6882
 20
16.3889
 30
0.0000
 11
6.6882
 21
16.1807
 31
0.0000
  0
LINE
  8
1
 10
6.6882
 20
16.1807
 30
0.0000
 11
6.3003
 21
16.1807
 31
0.0000
  0
LINE
  8
1
 10
6.3003
 20
16.1807
 30
0.0000
 11
5.2453
 21
15.1257
 31
0.0000
  0
LINE
  8
1
 10
5.2453
 20
15.1257
 30
0.0000
 11
4.9403
 21
14.8207
 31
0.0000
  0
LINE
  8
1
 10
4.9403
 20
14.8207
 30
0.0000
 11
4.9403
 21
11.0873
 31
0.0000
  0
LINE
  8
1
 10
4.9403
 20
11.0873
 30
0.0000
 11
5.2453
 21
10.7823
 31
0.0000
  0
LINE
  8
1
 10
5.2453
 20
10.7823
 30
0.0000
 11
5.6053
 21
10.4223
 31
0.0000
  0
LINE
  8
1
 10
5.6053
 20
10.4223
 30
0.0000
 11
5.9103
 21
10.1173
 31
0.0000
  0
LINE
  8
1
 10
5.9103
 20
10.1173
 30
0.0000
 11
7.0993
 21
10.1173
 31
0.0000
  0
LINE
  8
1
 10
7.0993
 20
10.1173
 30
0.0000
 11
7.0993
 21
9.1718
 31
0.0000
  0
LINE
  8
1
 10
7.0993
 20
9.1718
 30
0.0000
 11
7.0283
 21
9.3432
 31
0.0000
  0
LINE
  8
1
 10
7.0283
 20
9.3432
 30
0.0000
 11
6.8032
 21
9.5683
 31
0.0000
  0
LINE
  8
1
 10
6.8032
 20
9.5683
 30
0.0000
 11
6.5091
 21
9.6901
 31
0.0000
  0
LINE
  8
1
 10
6.5091
 20
9.6901
 30
0.0000
 11
6.1908
 21
9.6901
 31
0.0000
  0
LINE
  8
1
 10
6.1908
 20
9.6901
 30
0.0000
 11
5.8968
 21
9.5683
 31
0.0000
  0
LINE
  8
1
 10
5.8968
 20
9.5683
 30
0.0000
 11
5.6717
 21
9.3432
 31
0.0000
  0
LINE
  8
1
 10
5.6717
 20
9.3432
 30
0.0000
 11
5.5499
 21
9.0492
 31
0.0000
  0
LINE
  8
1
 10
5.5499
 20
9.0492
 30
0.0000
 11
5.5499
 21
8.7308
 31
0.0000
  0
LINE
  8
1
 10
5.5499
 20
8.7308
 30
0.0000
 11
5.6327
 21
8.5310
 31
0.0000
  0
LINE
  8
1
 10
5.6327
 20
8.5310
 30
0.0000
 11
5.1030
 21
8.5310
 31
0.0000
  0
LINE
  8
1
 10
5.1030
 20
8.5310
 30
0.0000
 11
5.1030
 21
7.8730
 31
0.0000
  0
LINE
  8
1
 10
5.1030
 20
7.8730
 30
0.0000
 11
5.0570
 21
7.8730
 31
0.0000
  0
LINE
  8
1
 10
5.0570
 20
7.8730
 30
0.0000
 11
5.0570
 21
8.5310
 31
0.0000
  0
LINE
  8
1
 10
5.0570
 20
8.5310
 30
0.0000
 11
4.3548
 21
8.5310
 31
0.0000
  0
LINE
  8
1
 10
4.3548
 20
8.5310
 30
0.0000
 11
4.2579
 21
8.5050
 31
0.0000
  0
LINE
  8
1
 10
4.2579
 20
8.5050
 30
0.0000
 11
4.1711
 21
8.4549
 31
0.0000
  0
LINE
  8
1
 10
4.1711
 20
8.4549
 30
0.0000
 11
4.1001
 21
8.3839
 31
0.0000
  0
LINE
  8
1
 10
4.1001
 20
8.3839
 30
0.0000
 11
4.0500
 21
8.2971
 31
0.0000
  0
LINE
  8
1
 10
4.0500
 20
8.2971
 30
0.0000
 11
4.0240
 21
8.2002
 31
0.0000
  0
LINE
  8
1
 10
4.0240
 20
8.2002
 30
0.0000
 11
4.0240
 21
7.8730
 31
0.0000
  0
LINE
  8
1
 10
4.0240
 20
7.8730
 30
0.0000
 11
5.0570
 21
7.8730
 31
0.0000
  0
LINE
  8
1
 10
5.0570
 20
7.8730
 30
0.0000
 11
5.0570
 21
7.8270
 31
0.0000
  0
LINE
  8
1
 10
5.0570
 20
7.8270
 30
0.0000
 11
4.0240
 21
7.8270
 31
0.0000
  0
LINE
  8
1
 10
4.0240
 20
7.8270
 30
0.0000
 11
4.0240
 21
7.4998
 31
0.0000
  0
LINE
  8
1
 10
4.0240
 20
7.4998
 30
0.0000
 11
4.0494
 21
7.4051
 31
0.0000
  0
LINE
  8
1
 10
4.0494
 20
7.4051
 30
0.0000
 11
3.9732
 21
7.3289
 31
0.0000
  0
LINE
  8
1
 10
3.9732
 20
7.3289
 30
0.0000
 11
3.9732
 21
6.3711
 31
0.0000
  0
LINE
  8
1
 10
3.9732
 20
6.3711
 30
0.0000
 11
3.9943
 21
6.3500
 31
0.0000
  0
LINE
  8
1
 10
3.9943
 20
6.3500
 30
0.0000
 11
3.9732
 21
6.3289
 31
0.0000
  0
LINE
  8
1
 10
3.9732
 20
6.3289
 30
0.0000
 11
3.9732
 21
5.3711
 31
0.0000
  0
LINE
  8
1
 10
3.9732
 20
5.3711
 30
0.0000
 11
3.9943
 21
5.3500
 31
0.0000
  0
LINE
  8
1
 10
3.9943
 20
5.3500
 30
0.0000
 11
3.9732
 21
5.3289
 31
0.0000
  0
LINE
  8
1
 10
3.9732
 20
5.3289
 30
0.0000
 11
3.9732
 21
4.3711
 31
0.0000
  0
LINE
  8
1
 10
3.9732
 20
4.3711
 30
0.0000
 11
4.2261
 21
4.1182
 31
0.0000
  0
LINE
  8
1
 10
4.2261
 20
4.1182
 30
0.0000
 11
4.5593
 21
4.1182
 31
0.0000
  0
LINE
  8
1
 10
4.5593
 20
4.1182
 30
0.0000
 11
4.5593
 21
3.1508
 31
0.0000
  0
LINE
  8
1
 10
4.5593
 20
3.1508
 30
0.0000
 11
4.4017
 21
2.9932
 31
0.0000
  0
LINE
  8
1
 10
4.4017
 20
2.9932
 30
0.0000
 11
4.2799
 21
2.6991
 31
0.0000
  0
LINE
  8
1
 10
4.2799
 20
2.6991
 30
0.0000
 11
4.2799
 21
2.3808
 31
0.0000
  0
LINE
  8
1
 10
4.2799
 20
2.3808
 30
0.0000
 11
4.4017
 21
2.0868
 31
0.0000
  0
LINE
  8
1
 10
4.4017
 20
2.0868
 30
0.0000
 11
4.6268
 21
1.8617
 31
0.0000
  0
LINE
  8
1
 10
4.6268
 20
1.8617
 30
0.0000
 11
4.9208
 21
1.7399
 31
0.0000
  0
LINE
  8
1
 10
4.9208
 20
1.7399
 30
0.0000
 11
5.2392
 21
1.7399
 31
0.0000
  0
LINE
  8
1
 10
5.2392
 20
1.7399
 30
0.0000
 11
5.5332
 21
1.8617
 31
0.0000
  0
LINE
  8
1
 10
5.5332
 20
1.8617
 30
0.0000
 11
5.7583
 21
2.0868
 31
0.0000
  0
LINE
  8
1
 10
5.7583
 20
2.0868
 30
0.0000
 11
5.8801
 21
2.3808
 31
0.0000
  0
LINE
  8
1
 10
5.8801
 20
2.3808
 30
0.0000
 11
5.8801
 21
2.6991
 31
0.0000
  0
LINE
  8
1
 10
5.8801
 20
2.6991
 30
0.0000
 11
5.7583
 21
2.9932
 31
0.0000
  0
LINE
  8
1
 10
5.7583
 20
2.9932
 30
0.0000
 11
5.6007
 21
3.1508
 31
0.0000
  0
LINE
  8
1
 10
5.6007
 20
3.1508
 30
0.0000
 11
5.6007
 21
4.1182
 31
0.0000
  0
LINE
  8
1
 10
5.6007
 20
4.1182
 30
0.0000
 11
5.9339
 21
4.1182
 31
0.0000
  0
LINE
  8
1
 10
5.9339
 20
4.1182
 30
0.0000
 11
6.1868
 21
4.3711
 31
0.0000
  0
LINE
  8
1
 10
6.1868
 20
4.3711
 30
0.0000
 11
6.1868
 21
5.3289
 31
0.0000
  0
LINE
  8
1
 10
6.1868
 20
5.3289
 30
0.0000
 11
6.1864
 21
5.3293
 31
0.0000
  0
LINE
  8
1
 10
6.1864
 20
5.3293
 30
0.0000
 11
11.7143
 21
5.3293
 31
0.0000
  0
LINE
  8
1
 10
11.7143
 20
5.3293
 30
0.0000
 11
12.0275
 21
5.0161
 31
0.0000
  0
LINE
  8
1
 10
12.0275
 20
5.0161
 30
0.0000
 11
11.9230
 21
4.9728
 31
0.0000
  0
LINE
  8
1
 10
11.9230
 20
4.9728
 30
0.0000
 11
11.5372
 21
4.5869
 31
0.0000
  0
LINE
  8
1
 10
11.5372
 20
4.5869
 30
0.0000
 11
11.4300
 21
4.3281
 31
0.0000
  0
LINE
  8
1
 10
11.4300
 20
4.3281
 30
0.0000
 11
11.3228
 21
4.5869
 31
0.0000
  0
LINE
  8
1
 10
11.3228
 20
4.5869
 30
0.0000
 11
10.9369
 21
4.9728
 31
0.0000
  0
LINE
  8
1
 10
10.9369
 20
4.9728
 30
0.0000
 11
10.4328
 21
5.1816
 31
0.0000
  0
LINE
  8
1
 10
10.4328
 20
5.1816
 30
0.0000
 11
9.8872
 21
5.1816
 31
0.0000
  0
LINE
  8
1
 10
9.8872
 20
5.1816
 30
0.0000
 11
9.3831
 21
4.9728
 31
0.0000
  0
LINE
  8
1
 10
9.3831
 20
4.9728
 30
0.0000
 11
8.9972
 21
4.5869
 31
0.0000
  0
LINE
  8
1
 10
8.9972
 20
4.5869
 30
0.0000
 11
8.8622
 21
4.2610
 31
0.0000
  0
LINE
  8
1
 10
8.8622
 20
4.2610
 30
0.0000
 11
8.8440
 21
4.3170
 31
0.0000
  0
LINE
  8
1
 10
8.8440
 20
4.3170
 30
0.0000
 11
8.7496
 21
4.5023
 31
0.0000
  0
LINE
  8
1
 10
8.7496
 20
4.5023
 30
0.0000
 11
8.6274
 21
4.6704
 31
0.0000
  0
LINE
  8
1
 10
8.6274
 20
4.6704
 30
0.0000
 11
8.4804
 21
4.8174
 31
0.0000
  0
LINE
  8
1
 10
8.4804
 20
4.8174
 30
0.0000
 11
8.3123
 21
4.9396
 31
0.0000
  0
LINE
  8
1
 10
8.3123
 20
4.9396
 30
0.0000
 11
8.1270
 21
5.0340
 31
0.0000
  0
LINE
  8
1
 10
8.1270
 20
5.0340
 30
0.0000
 11
7.9293
 21
5.0983
 31
0.0000
  0
LINE
  8
1
 10
7.9293
 20
5.0983
 30
0.0000
 11
7.7470
 21
5.1271
 31
0.0000
  0
LINE
  8
1
 10
7.7470
 20
5.1271
 30
0.0000
 11
7.7470
 21
3.9370
 31
0.0000
  0
LINE
  8
1
 10
7.7470
 20
3.9370
 30
0.0000
 11
7.4930
 21
3.9370
 31
0.0000
  0
LINE
  8
1
 10
7.4930
 20
3.9370
 30
0.0000
 11
7.4930
 21
5.1271
 31
0.0000
  0
LINE
  8
1
 10
7.4930
 20
5.1271
 30
0.0000
 11
7.3107
 21
5.0983
 31
0.0000
  0
LINE
  8
1
 10
7.3107
 20
5.0983
 30
0.0000
 11
7.1130
 21
5.0340
 31
0.0000
  0
LINE
  8
1
 10
7.1130
 20
5.0340
 30
0.0000
 11
6.9277
 21
4.9396
 31
0.0000
  0
LINE
  8
1
 10
6.9277
 20
4.9396
 30
0.0000
 11
6.7596
 21
4.8174
 31
0.0000
  0
LINE
  8
1
 10
6.7596
 20
4.8174
 30
0.0000
 11
6.6126
 21
4.6704
 31
0.0000
  0
LINE
  8
1
 10
6.6126
 20
4.6704
 30
0.0000
 11
6.4904
 21
4.5023
 31
0.0000
  0
LINE
  8
1
 10
6.4904
 20
4.5023
 30
0.0000
 11
6.3960
 21
4.3170
 31
0.0000
  0
LINE
  8
1
 10
6.3960
 20
4.3170
 30
0.0000
 11
6.3317
 21
4.1193
 31
0.0000
  0
LINE
  8
1
 10
6.3317
 20
4.1193
 30
0.0000
 11
6.3029
 21
3.9370
 31
0.0000
  0
LINE
  8
1
 10
6.3029
 20
3.9370
 30
0.0000
 11
7.4930
 21
3.9370
 31
0.0000
  0
LINE
  8
1
 10
7.4930
 20
3.9370
 30
0.0000
 11
7.4930
 21
3.6830
 31
0.0000
  0
LINE
  8
1
 10
7.4930
 20
3.6830
 30
0.0000
 11
6.3029
 21
3.6830
 31
0.0000
  0
LINE
  8
1
 10
6.3029
 20
3.6830
 30
0.0000
 11
6.3317
 21
3.5007
 31
0.0000
  0
LINE
  8
1
 10
6.3317
 20
3.5007
 30
0.0000
 11
6.3960
 21
3.3030
 31
0.0000
  0
LINE
  8
1
 10
6.3960
 20
3.3030
 30
0.0000
 11
6.4904
 21
3.1177
 31
0.0000
  0
LINE
  8
1
 10
6.4904
 20
3.1177
 30
0.0000
 11
6.6126
 21
2.9496
 31
0.0000
  0
LINE
  8
1
 10
6.6126
 20
2.9496
 30
0.0000
 11
6.7596
 21
2.8026
 31
0.0000
  0
LINE
  8
1
 10
6.7596
 20
2.8026
 30
0.0000
 11
6.9277
 21
2.6804
 31
0.0000
  0
LINE
  8
1
 10
6.9277
 20
2.6804
 30
0.0000
 11
7.1130
 21
2.5860
 31
0.0000
  0
LINE
  8
1
 10
7.1130
 20
2.5860
 30
0.0000
 11
7.3107
 21
2.5217
 31
0.0000
  0
LINE
  8
1
 10
7.3107
 20
2.5217
 30
0.0000
 11
7.4930
 21
2.4929
 31
0.0000
  0
LINE
  8
1
 10
7.4930
 20
2.4929
 30
0.0000
 11
7.4930
 21
3.6830
 31
0.0000
  0
LINE
  8
1
 10
7.4930
 20
3.6830
 30
0.0000
 11
7.7470
 21
3.6830
 31
0.0000
  0
LINE
  8
1
 10
7.7470
 20
3.6830
 30
0.0000
 11
7.7470
 21
2.4929
 31
0.0000
  0
LINE
  8
1
 10
7.7470
 20
2.4929
 30
0.0000
 11
7.9293
 21
2.5217
 31
0.0000
  0
LINE
  8
1
 10
7.9293
 20
2.5217
 30
0.0000
 11
8.1270
 21
2.5860
 31
0.0000
  0
LINE
  8
1
 10
8.1270
 20
2.5860
 30
0.0000
 11
8.3123
 21
2.6804
 31
0.0000
  0
LINE
  8
1
 10
8.3123
 20
2.6804
 30
0.0000
 11
8.4804
 21
2.8026
 31
0.0000
  0
LINE
  8
1
 10
8.4804
 20
2.8026
 30
0.0000
 11
8.6274
 21
2.9496
 31
0.0000
  0
LINE
  8
1
 10
8.6274
 20
2.9496
 30
0.0000
 11
8.7496
 21
3.1177
 31
0.0000
  0
LINE
  8
1
 10
8.7496
 20
3.1177
 30
0.0000
 11
8.8440
 21
3.3030
 31
0.0000
  0
LINE
  8
1
 10
8.8440
 20
3.3030
 30
0.0000
 11
8.8622
 21
3.3590
 31
0.0000
  0
LINE
  8
1
 10
8.8622
 20
3.3590
 30
0.0000
 11
8.9972
 21
3.0331
 31
0.0000
  0
LINE
  8
1
 10
8.9972
 20
3.0331
 30
0.0000
 11
9.3831
 21
2.6472
 31
0.0000
  0
LINE
  8
1
 10
9.3831
 20
2.6472
 30
0.0000
 11
9.8872
 21
2.4384
 31
0.0000
  0
LINE
  8
1
 10
9.8872
 20
2.4384
 30
0.0000
 11
10.4328
 21
2.4384
 31
0.0000
  0
LINE
  8
1
 10
10.4328
 20
2.4384
 30
0.0000
 11
10.5269
 21
2.4774
 31
0.0000
  0
LINE
  8
1
 10
10.5269
 20
2.4774
 30
0.0000
 11
10.5047
 21
2.4552
 31
0.0000
  0
LINE
  8
1
 10
10.5047
 20
2.4552
 30
0.0000
 11
10.5047
 21
0.5334
 31
0.0000
  0
LINE
  8
1
 10
10.5047
 20
0.5334
 30
0.0000
 11
0.5334
 21
0.5334
 31
0.0000
  0
LINE
  8
1
 10
0.5334
 20
0.5334
 30
0.0000
 11
0.5334
 21
2.5182
 31
0.0000
  0
LINE
  8
1
 10
0.5334
 20
2.5182
 30
0.0000
 11
2.5839
 21
2.5182
 31
0.0000
  0
LINE
  8
1
 10
2.5839
 20
2.5182
 30
0.0000
 11
2.8368
 21
2.7711
 31
0.0000
  0
LINE
  8
1
 10
2.8368
 20
2.7711
 30
0.0000
 11
2.8368
 21
4.3289
 31
0.0000
  0
LINE
  8
1
 10
2.8368
 20
4.3289
 30
0.0000
 11
2.5839
 21
4.5818
 31
0.0000
  0
LINE
  8
1
 10
2.5839
 20
4.5818
 30
0.0000
 11
0.5334
 21
4.5818
 31
0.0000
  0
LINE
  8
1
 10
0.5334
 20
4.5818
 30
0.0000
 11
0.5334
 21
8.1182
 31
0.0000
  0
LINE
  8
1
 10
0.5334
 20
8.1182
 30
0.0000
 11
2.5839
 21
8.1182
 31
0.0000
  0
LINE
  8
1
 10
2.5839
 20
8.1182
 30
0.0000
 11
2.8368
 21
8.3711
 31
0.0000
  0
LINE
  8
1
 10
2.8368
 20
8.3711
 30
0.0000
 11
2.8368
 21
9.9289
 31
0.0000
  0
LINE
  8
1
 10
2.8368
 20
9.9289
 30
0.0000
 11
2.5839
 21
10.1818
 31
0.0000
  0
LINE
  8
1
 10
2.5839
 20
10.1818
 30
0.0000
 11
0.5334
 21
10.1818
 31
0.0000
  0
LINE
  8
1
 10
0.5334
 20
10.1818
 30
0.0000
 11
0.5334
 21
10.5047
 31
0.0000
  0
LINE
  8
1
 10
0.5334
 20
10.5047
 30
0.0000
 11
2.4552
 21
10.5047
 31
0.0000
  0
LINE
  8
1
 10
2.4552
 20
10.5047
 30
0.0000
 11
2.7453
 21
10.7948
 31
0.0000
  0
LINE
  8
1
 10
2.7453
 20
10.7948
 30
0.0000
 11
2.7453
 21
14.6052
 31
0.0000
  0
LINE
  8
1
 10
2.7453
 20
14.6052
 30
0.0000
 11
2.4552
 21
14.8953
 31
0.0000
  0
LINE
  8
1
 10
2.4552
 20
14.8953
 30
0.0000
 11
0.5334
 21
14.8953
 31
0.0000
  0
LINE
  8
1
 10
0.5334
 20
14.8953
 30
0.0000
 11
0.5334
 21
23.9217
 31
0.0000
  0
LINE
  8
1
 10
0.5334
 20
23.9217
 30
0.0000
 11
0.6130
 21
23.8887
 31
0.0000
  0
LINE
  8
1
 10
0.6130
 20
23.8887
 30
0.0000
 11
0.9110
 21
23.8887
 31
0.0000
  0
LINE
  8
1
 10
0.9110
 20
23.8887
 30
0.0000
 11
1.1864
 21
24.0028
 31
0.0000
  0
LINE
  8
1
 10
1.1864
 20
24.0028
 30
0.0000
 11
1.3972
 21
24.2136
 31
0.0000
  0
LINE
  8
1
 10
1.3972
 20
24.2136
 30
0.0000
 11
1.5113
 21
24.4890
 31
0.0000
  0
LINE
  8
1
 10
1.5113
 20
24.4890
 30
0.0000
 11
1.5113
 21
24.7870
 31
0.0000
  0
LINE
  8
1
 10
1.5113
 20
24.7870
 30
0.0000
 11
1.4783
 21
24.8666
 31
0.0000
  0
LINE
  8
1
 10
1.4783
 20
24.8666
 30
0.0000
 11
10.5047
 21
24.8666
 31
0.0000
  0
LINE
  8
1
 10
10.5047
 20
24.8666
 30
0.0000
 11
10.5047
 21
22.9448
 31
0.0000
  0
LINE
  8
1
 10
10.5047
 20
22.9448
 30
0.0000
 11
10.7948
 21
22.6547
 31
0.0000
  0
LINE
  8
1
 10
10.7948
 20
22.6547
 30
0.0000
 11
14.6052
 21
22.6547
 31
0.0000
  0
LINE
  8
1
 10
14.6052
 20
22.6547
 30
0.0000
 11
14.8953
 21
22.9448
 31
0.0000
  0
LINE
  8
1
 10
14.8953
 20
22.9448
 30
0.0000
 11
14.8953
 21
24.8666
 31
0.0000
  0
LINE
  8
1
 10
14.8953
 20
24.8666
 30
0.0000
 11
24.8666
 21
24.8666
 31
0.0000
  0
LINE
  8
1
 10
24.8666
 20
24.8666
 30
0.0000
 11
24.8666
 21
14.8953
 31
0.0000
  0
LINE
  8
1
 10
24.8666
 20
14.8953
 30
0.0000
 11
22.9977
 21
14.8953
 31
0.0000
  0
LINE
  8
1
 10
22.9977
 20
14.8953
 30
0.0000
 11
23.0757
 21
14.9733
 31
0.0000
  0
LINE
  8
1
 10
23.0757
 20
14.9733
 30
0.0000
 11
23.3807
 21
15.2783
 31
0.0000
  0
LINE
  8
1
 10
23.3807
 20
15.2783
 30
0.0000
 11
23.3807
 21
15.3543
 31
0.0000
  0
LINE
  8
1
 10
23.3807
 20
15.3543
 30
0.0000
 11
23.6739
 21
15.3543
 31
0.0000
  0
LINE
  8
1
 10
3.5891
 20
19.2024
 30
0.0000
 11
4.2310
 21
19.2024
 31
0.0000
  0
LINE
  8
1
 10
4.2310
 20
19.2024
 30
0.0000
 11
5.0222
 21
19.4904
 31
0.0000
  0
LINE
  8
1
 10
5.0222
 20
19.4904
 30
0.0000
 11
5.0222
 21
19.4904
 31
0.0000
  0
LINE
  8
1
 10
5.0222
 20
19.4904
 30
0.0000
 11
5.6672
 21
20.0316
 31
0.0000
  0
LINE
  8
1
 10
5.6672
 20
20.0316
 30
0.0000
 11
5.6672
 21
20.0316
 31
0.0000
  0
LINE
  8
1
 10
5.6672
 20
20.0316
 30
0.0000
 11
5.6672
 21
20.0316
 31
0.0000
  0
LINE
  8
1
 10
5.6672
 20
20.0316
 30
0.0000
 11
6.0882
 21
20.7608
 31
0.0000
  0
LINE
  8
1
 10
6.0882
 20
20.7608
 30
0.0000
 11
6.0882
 21
20.7608
 31
0.0000
  0
LINE
  8
1
 10
6.0882
 20
20.7608
 30
0.0000
 11
6.2344
 21
21.5900
 31
0.0000
  0
LINE
  8
1
 10
6.2344
 20
21.5900
 30
0.0000
 11
6.2344
 21
21.5900
 31
0.0000
  0
LINE
  8
1
 10
6.2344
 20
21.5900
 30
0.0000
 11
6.0882
 21
22.4192
 31
0.0000
  0
LINE
  8
1
 10
6.0882
 20
22.4192
 30
0.0000
 11
6.0882
 21
22.4192
 31
0.0000
  0
LINE
  8
1
 10
6.0882
 20
22.4192
 30
0.0000
 11
5.6672
 21
23.1484
 31
0.0000
  0
LINE
  8
1
 10
5.6672
 20
23.1484
 30
0.0000
 11
5.6672
 21
23.1484
 31
0.0000
  0
LINE
  8
1
 10
5.6672
 20
23.1484
 30
0.0000
 11
5.0222
 21
23.6896
 31
0.0000
  0
LINE
  8
1
 10
5.0222
 20
23.6896
 30
0.0000
 11
5.0222
 21
23.6896
 31
0.0000
  0
LINE
  8
1
 10
5.0222
 20
23.6896
 30
0.0000
 11
4.2310
 21
23.9776
 31
0.0000
  0
LINE
  8
1
 10
4.2310
 20
23.9776
 30
0.0000
 11
3.3890
 21
23.9776
 31
0.0000
  0
LINE
  8
1
 10
3.3890
 20
23.9776
 30
0.0000
 11
2.5978
 21
23.6896
 31
0.0000
  0
LINE
  8
1
 10
2.5978
 20
23.6896
 30
0.0000
 11
2.5978
 21
23.6896
 31
0.0000
  0
LINE
  8
1
 10
2.5978
 20
23.6896
 30
0.0000
 11
1.9528
 21
23.1484
 31
0.0000
  0
LINE
  8
1
 10
1.9528
 20
23.1484
 30
0.0000
 11
1.9528
 21
23.1484
 31
0.0000
  0
LINE
  8
1
 10
1.9528
 20
23.1484
 30
0.0000
 11
1.9528
 21
23.1484
 31
0.0000
  0
LINE
  8
1
 10
1.9528
 20
23.1484
 30
0.0000
 11
1.5318
 21
22.4192
 31
0.0000
  0
LINE
  8
1
 10
1.5318
 20
22.4192
 30
0.0000
 11
1.5318
 21
22.4192
 31
0.0000
  0
LINE
  8
1
 10
1.5318
 20
22.4192
 30
0.0000
 11
1.3856
 21
21.5900
 31
0.0000
  0
LINE
  8
1
 10
1.3856
 20
21.5900
 30
0.0000
 11
1.3856
 21
21.5900
 31
0.0000
  0
LINE
  8
1
 10
1.3856
 20
21.5900
 30
0.0000
 11
1.5318
 21
20.7608
 31
0.0000
  0
LINE
  8
1
 10
1.5318
 20
20.7608
 30
0.0000
 11
1.5318
 21
20.7608
 31
0.0000
  0
LINE
  8
1
 10
1.5318
 20
20.7608
 30
0.0000
 11
1.9528
 21
20.0316
 31
0.0000
  0
LINE
  8
1
 10
1.9528
 20
20.0316
 30
0.0000
 11
2.5978
 21
19.4904
 31
0.0000
  0
LINE
  8
1
 10
2.5978
 20
19.4904
 30
0.0000
 11
2.5978
 21
19.4904
 31
0.0000
  0
LINE
  8
1
 10
2.5978
 20
19.4904
 30
0.0000
 11
3.3890
 21
19.2024
 31
0.0000
  0
LINE
  8
1
 10
3.3890
 20
19.2024
 30
0.0000
 11
3.5891
 21
19.2024
 31
0.0000
  0
LINE
  8
1
 10
22.0110
 20
19.2024
 30
0.0000
 11
22.0110
 21
19.2024
 31
0.0000
  0
LINE
  8
1
 10
22.0110
 20
19.2024
 30
0.0000
 11
22.8022
 21
19.4904
 31
0.0000
  0
LINE
  8
1
 10
22.8022
 20
19.4904
 30
0.0000
 11
22.8022
 21
19.4904
 31
0.0000
  0
LINE
  8
1
 10
22.8022
 20
19.4904
 30
0.0000
 11
23.4472
 21
20.0316
 31
0.0000
  0
LINE
  8
1
 10
23.4472
 20
20.0316
 30
0.0000
 11
23.4472
 21
20.0316
 31
0.0000
  0
LINE
  8
1
 10
23.4472
 20
20.0316
 30
0.0000
 11
23.4472
 21
20.0316
 31
0.0000
  0
LINE
  8
1
 10
23.4472
 20
20.0316
 30
0.0000
 11
23.8682
 21
20.7608
 31
0.0000
  0
LINE
  8
1
 10
23.8682
 20
20.7608
 30
0.0000
 11
23.8682
 21
20.7608
 31
0.0000
  0
LINE
  8
1
 10
23.8682
 20
20.7608
 30
0.0000
 11
24.0144
 21
21.5900
 31
0.0000
  0
LINE
  8
1
 10
24.0144
 20
21.5900
 30
0.0000
 11
24.0144
 21
21.5900
 31
0.0000
  0
LINE
  8
1
 10
24.0144
 20
21.5900
 30
0.0000
 11
23.8682
 21
22.4192
 31
0.0000
  0
LINE
  8
1
 10
23.8682
 20
22.4192
 30
0.0000
 11
23.8682
 21
22.4192
 31
0.0000
  0
LINE
  8
1
 10
23.8682
 20
22.4192
 30
0.0000
 11
23.4472
 21
23.1484
 31
0.0000
  0
LINE
  8
1
 10
23.4472
 20
23.1484
 30
0.0000
 11
23.4472
 21
23.1484
 31
0.0000
  0
LINE
  8
1
 10
23.4472
 20
23.1484
 30
0.0000
 11
22.8022
 21
23.6896
 31
0.0000
  0
LINE
  8
1
 10
22.8022
 20
23.6896
 30
0.0000
 11
22.8022
 21
23.6896
 31
0.0000
  0
LINE
  8
1
 10
22.8022
 20
23.6896
 30
0.0000
 11
22.0110
 21
23.9776
 31
0.0000
  0
LINE
  8
1
 10
22.0110
 20
23.9776
 30
0.0000
 11
21.1690
 21
23.9776
 31
0.0000
  0
LINE
  8
1
 10
21.1690
 20
23.9776
 30
0.0000
 11
20.3778
 21
23.6896
 31
0.0000
  0
LINE
  8
1
 10
20.3778
 20
23.6896
 30
0.0000
 11
20.3778
 21
23.6896
 31
0.0000
  0
LINE
  8
1
 10
20.3778
 20
23.6896
 30
0.0000
 11
19.7328
 21
23.1484
 31
0.0000
  0
LINE
  8
1
 10
19.7328
 20
23.1484
 30
0.0000
 11
19.7328
 21
23.1484
 31
0.0000
  0
LINE
  8
1
 10
19.7328
 20
23.1484
 30
0.0000
 11
19.7328
 21
23.1484
 31
0.0000
  0
LINE
  8
1
 10
19.7328
 20
23.1484
 30
0.0000
 11
19.3118
 21
22.4192
 31
0.0000
  0
LINE
  8
1
 10
19.3118
 20
22.4192
 30
0.0000
 11
19.3118
 21
22.4192
 31
0.0000
  0
LINE
  8
1
 10
19.3118
 20
22.4192
 30
0.0000
 11
19.1656
 21
21.5900
 31
0.0000
  0
LINE
  8
1
 10
19.1656
 20
21.5900
 30
0.0000
 11
19.1656
 21
21.5900
 31
0.0000
  0
LINE
  8
1
 10
19.1656
 20
21.5900
 30
0.0000
 11
19.3118
 21
20.7608
 31
0.0000
  0
LINE
  8
1
 10
19.3118
 20
20.7608
 30
0.0000
 11
19.3118
 21
20.7608
 31
0.0000
  0
LINE
  8
1
 10
19.3118
 20
20.7608
 30
0.0000
 11
19.7328
 21
20.0316
 31
0.0000
  0
LINE
  8
1
 10
19.7328
 20
20.0316
 30
0.0000
 11
19.7328
 21
20.0316
 31
0.0000
  0
LINE
  8
1
 10
19.7328
 20
20.0316
 30
0.0000
 11
20.3778
 21
19.4904
 31
0.0000
  0
LINE
  8
1
 10
20.3778
 20
19.4904
 30
0.0000
 11
20.3778
 21
19.4904
 31
0.0000
  0
LINE
  8
1
 10
20.3778
 20
19.4904
 30
0.0000
 11
21.1690
 21
19.2024
 31
0.0000
  0
LINE
  8
1
 10
21.1690
 20
19.2024
 30
0.0000
 11
21.8109
 21
19.2024
 31
0.0000
  0
LINE
  8
1
 10
21.8109
 20
19.2024
 30
0.0000
 11
22.0110
 21
19.2024
 31
0.0000
  0
LINE
  8
1
 10
16.8990
 20
11.9730
 30
0.0000
 11
17.6570
 21
11.9730
 31
0.0000
  0
LINE
  8
1
 10
17.6570
 20
11.9730
 30
0.0000
 11
17.6570
 21
11.7270
 31
0.0000
  0
LINE
  8
1
 10
17.6570
 20
11.7270
 30
0.0000
 11
16.8990
 21
11.7270
 31
0.0000
  0
LINE
  8
1
 10
16.8990
 20
11.7270
 30
0.0000
 11
16.8990
 21
11.4427
 31
0.0000
  0
LINE
  8
1
 10
16.8990
 20
11.4427
 30
0.0000
 11
16.4717
 21
11.4427
 31
0.0000
  0
LINE
  8
1
 10
16.4717
 20
11.4427
 30
0.0000
 11
16.2304
 21
11.6840
 31
0.0000
  0
LINE
  8
1
 10
16.2304
 20
11.6840
 30
0.0000
 11
16.7257
 21
12.1793
 31
0.0000
  0
LINE
  8
1
 10
16.7257
 20
12.1793
 30
0.0000
 11
16.8990
 21
12.1793
 31
0.0000
  0
LINE
  8
1
 10
16.8990
 20
12.1793
 30
0.0000
 11
16.8990
 21
11.9730
 31
0.0000
  0
LINE
  8
1
 10
0.5334
 20
0.7620
 30
0.0000
 11
10.5047
 21
0.7620
 31
0.0000
  0
LINE
  8
1
 10
14.8953
 20
0.7620
 30
0.0000
 11
23.7617
 21
0.7620
 31
0.0000
  0
LINE
  8
1
 10
0.5334
 20
1.0160
 30
0.0000
 11
10.5047
 21
1.0160
 31
0.0000
  0
LINE
  8
1
 10
14.8953
 20
1.0160
 30
0.0000
 11
23.7617
 21
1.0160
 31
0.0000
  0
LINE
  8
1
 10
0.5334
 20
1.2700
 30
0.0000
 11
10.5047
 21
1.2700
 31
0.0000
  0
LINE
  8
1
 10
14.8953
 20
1.2700
 30
0.0000
 11
23.8578
 21
1.2700
 31
0.0000
  0
LINE
  8
1
 10
0.5334
 20
1.5240
 30
0.0000
 11
10.5047
 21
1.5240
 31
0.0000
  0
LINE
  8
1
 10
14.8953
 20
1.5240
 30
0.0000
 11
24.0863
 21
1.5240
 31
0.0000
  0
LINE
  8
1
 10
0.5334
 20
1.7780
 30
0.0000
 11
4.8289
 21
1.7780
 31
0.0000
  0
LINE
  8
1
 10
5.3311
 20
1.7780
 30
0.0000
 11
10.5047
 21
1.7780
 31
0.0000
  0
LINE
  8
1
 10
14.8953
 20
1.7780
 30
0.0000
 11
24.8666
 21
1.7780
 31
0.0000
  0
LINE
  8
1
 10
0.5334
 20
2.0320
 30
0.0000
 11
4.4565
 21
2.0320
 31
0.0000
  0
LINE
  8
1
 10
5.7035
 20
2.0320
 30
0.0000
 11
10.5047
 21
2.0320
 31
0.0000
  0
LINE
  8
1
 10
14.8953
 20
2.0320
 30
0.0000
 11
24.8666
 21
2.0320
 31
0.0000
  0
LINE
  8
1
 10
0.5334
 20
2.2860
 30
0.0000
 11
4.3192
 21
2.2860
 31
0.0000
  0
LINE
  8
1
 10
5.8408
 20
2.2860
 30
0.0000
 11
10.5047
 21
2.2860
 31
0.0000
  0
LINE
  8
1
 10
14.8953
 20
2.2860
 30
0.0000
 11
24.8666
 21
2.2860
 31
0.0000
  0
LINE
  8
1
 10
2.6057
 20
2.5400
 30
0.0000
 11
4.2799
 21
2.5400
 31
0.0000
  0
LINE
  8
1
 10
5.8801
 20
2.5400
 30
0.0000
 11
7.2545
 21
2.5400
 31
0.0000
  0
LINE
  8
1
 10
7.4930
 20
2.5400
 30
0.0000
 11
7.7470
 21
2.5400
 31
0.0000
  0
LINE
  8
1
 10
7.9855
 20
2.5400
 30
0.0000
 11
9.6419
 21
2.5400
 31
0.0000
  0
LINE
  8
1
 10
15.7581
 20
2.5400
 30
0.0000
 11
17.2619
 21
2.5400
 31
0.0000
  0
LINE
  8
1
 10
18.2981
 20
2.5400
 30
0.0000
 11
22.7943
 21
2.5400
 31
0.0000
  0
LINE
  8
1
 10
2.8368
 20
2.7940
 30
0.0000
 11
4.3192
 21
2.7940
 31
0.0000
  0
LINE
  8
1
 10
5.8408
 20
2.7940
 30
0.0000
 11
6.7713
 21
2.7940
 31
0.0000
  0
LINE
  8
1
 10
7.4930
 20
2.7940
 30
0.0000
 11
7.7470
 21
2.7940
 31
0.0000
  0
LINE
  8
1
 10
8.4687
 20
2.7940
 30
0.0000
 11
9.2363
 21
2.7940
 31
0.0000
  0
LINE
  8
1
 10
16.1637
 20
2.7940
 30
0.0000
 11
16.8563
 21
2.7940
 31
0.0000
  0
LINE
  8
1
 10
18.7037
 20
2.7940
 30
0.0000
 11
22.5632
 21
2.7940
 31
0.0000
  0
LINE
  8
1
 10
2.8368
 20
3.0480
 30
0.0000
 11
4.4565
 21
3.0480
 31
0.0000
  0
LINE
  8
1
 10
5.7035
 20
3.0480
 30
0.0000
 11
6.5410
 21
3.0480
 31
0.0000
  0
LINE
  8
1
 10
7.4930
 20
3.0480
 30
0.0000
 11
7.7470
 21
3.0480
 31
0.0000
  0
LINE
  8
1
 10
8.6990
 20
3.0480
 30
0.0000
 11
8.9910
 21
3.0480
 31
0.0000
  0
LINE
  8
1
 10
16.4090
 20
3.0480
 30
0.0000
 11
16.6110
 21
3.0480
 31
0.0000
  0
LINE
  8
1
 10
18.9490
 20
3.0480
 30
0.0000
 11
22.5632
 21
3.0480
 31
0.0000
  0
LINE
  8
1
 10
2.8368
 20
3.3020
 30
0.0000
 11
4.5593
 21
3.3020
 31
0.0000
  0
LINE
  8
1
 10
5.6007
 20
3.3020
 30
0.0000
 11
6.3965
 21
3.3020
 31
0.0000
  0
LINE
  8
1
 10
7.4930
 20
3.3020
 30
0.0000
 11
7.7470
 21
3.3020
 31
0.0000
  0
LINE
  8
1
 10
8.8435
 20
3.3020
 30
0.0000
 11
8.8858
 21
3.3020
 31
0.0000
  0
LINE
  8
1
 10
19.0542
 20
3.3020
 30
0.0000
 11
22.5632
 21
3.3020
 31
0.0000
  0
LINE
  8
1
 10
2.8368
 20
3.5560
 30
0.0000
 11
4.5593
 21
3.5560
 31
0.0000
  0
LINE
  8
1
 10
5.6007
 20
3.5560
 30
0.0000
 11
6.3230
 21
3.5560
 31
0.0000
  0
LINE
  8
1
 10
7.4930
 20
3.5560
 30
0.0000
 11
7.7470
 21
3.5560
 31
0.0000
  0
LINE
  8
1
 10
19.1516
 20
3.5560
 30
0.0000
 11
22.5632
 21
3.5560
 31
0.0000
  0
LINE
  8
1
 10
2.8368
 20
3.8100
 30
0.0000
 11
4.5593
 21
3.8100
 31
0.0000
  0
LINE
  8
1
 10
5.6007
 20
3.8100
 30
0.0000
 11
7.4930
 21
3.8100
 31
0.0000
  0
LINE
  8
1
 10
19.1516
 20
3.8100
 30
0.0000
 11
22.5632
 21
3.8100
 31
0.0000
  0
LINE
  8
1
 10
2.8368
 20
4.0640
 30
0.0000
 11
4.5593
 21
4.0640
 31
0.0000
  0
LINE
  8
1
 10
5.6007
 20
4.0640
 30
0.0000
 11
6.3230
 21
4.0640
 31
0.0000
  0
LINE
  8
1
 10
7.4930
 20
4.0640
 30
0.0000
 11
7.7470
 21
4.0640
 31
0.0000
  0
LINE
  8
1
 10
19.1516
 20
4.0640
 30
0.0000
 11
22.5632
 21
4.0640
 31
0.0000
  0
LINE
  8
1
 10
2.8368
 20
4.3180
 30
0.0000
 11
4.0263
 21
4.3180
 31
0.0000
  0
LINE
  8
1
 10
6.1337
 20
4.3180
 30
0.0000
 11
6.3965
 21
4.3180
 31
0.0000
  0
LINE
  8
1
 10
7.4930
 20
4.3180
 30
0.0000
 11
7.7470
 21
4.3180
 31
0.0000
  0
LINE
  8
1
 10
8.8435
 20
4.3180
 30
0.0000
 11
8.8858
 21
4.3180
 31
0.0000
  0
LINE
  8
1
 10
19.0542
 20
4.3180
 30
0.0000
 11
19.3390
 21
4.3180
 31
0.0000
  0
LINE
  8
1
 10
20.2970
 20
4.3180
 30
0.0000
 11
20.3430
 21
4.3180
 31
0.0000
  0
LINE
  8
1
 10
21.3010
 20
4.3180
 30
0.0000
 11
22.5632
 21
4.3180
 31
0.0000
  0
LINE
  8
1
 10
2.5937
 20
4.5720
 30
0.0000
 11
3.9732
 21
4.5720
 31
0.0000
  0
LINE
  8
1
 10
6.1868
 20
4.5720
 30
0.0000
 11
6.5410
 21
4.5720
 31
0.0000
  0
LINE
  8
1
 10
7.4930
 20
4.5720
 30
0.0000
 11
7.7470
 21
4.5720
 31
0.0000
  0
LINE
  8
1
 10
8.6990
 20
4.5720
 30
0.0000
 11
8.9910
 21
4.5720
 31
0.0000
  0
LINE
  8
1
 10
11.3290
 20
4.5720
 30
0.0000
 11
11.5310
 21
4.5720
 31
0.0000
  0
LINE
  8
1
 10
16.4090
 20
4.5720
 30
0.0000
 11
16.6110
 21
4.5720
 31
0.0000
  0
LINE
  8
1
 10
18.9490
 20
4.5720
 30
0.0000
 11
19.2640
 21
4.5720
 31
0.0000
  0
LINE
  8
1
 10
20.2970
 20
4.5720
 30
0.0000
 11
20.3430
 21
4.5720
 31
0.0000
  0
LINE
  8
1
 10
21.3760
 20
4.5720
 30
0.0000
 11
22.8063
 21
4.5720
 31
0.0000
  0
LINE
  8
1
 10
0.5334
 20
4.8260
 30
0.0000
 11
3.9732
 21
4.8260
 31
0.0000
  0
LINE
  8
1
 10
6.1868
 20
4.8260
 30
0.0000
 11
6.7713
 21
4.8260
 31
0.0000
  0
LINE
  8
1
 10
7.4930
 20
4.8260
 30
0.0000
 11
7.7470
 21
4.8260
 31
0.0000
  0
LINE
  8
1
 10
8.4687
 20
4.8260
 30
0.0000
 11
9.2363
 21
4.8260
 31
0.0000
  0
LINE
  8
1
 10
11.0837
 20
4.8260
 30
0.0000
 11
11.7763
 21
4.8260
 31
0.0000
  0
LINE
  8
1
 10
16.1637
 20
4.8260
 30
0.0000
 11
16.8563
 21
4.8260
 31
0.0000
  0
LINE
  8
1
 10
18.7037
 20
4.8260
 30
0.0000
 11
19.2640
 21
4.8260
 31
0.0000
  0
LINE
  8
1
 10
20.2970
 20
4.8260
 30
0.0000
 11
20.3430
 21
4.8260
 31
0.0000
  0
LINE
  8
1
 10
21.3760
 20
4.8260
 30
0.0000
 11
24.8666
 21
4.8260
 31
0.0000
  0
LINE
  8
1
 10
0.5334
 20
5.0800
 30
0.0000
 11
3.9732
 21
5.0800
 31
0.0000
  0
LINE
  8
1
 10
6.1868
 20
5.0800
 30
0.0000
 11
7.2545
 21
5.0800
 31
0.0000
  0
LINE
  8
1
 10
7.4930
 20
5.0800
 30
0.0000
 11
7.7470
 21
5.0800
 31
0.0000
  0
LINE
  8
1
 10
7.9855
 20
5.0800
 30
0.0000
 11
9.6419
 21
5.0800
 31
0.0000
  0
LINE
  8
1
 10
10.6781
 20
5.0800
 30
0.0000
 11
11.9636
 21
5.0800
 31
0.0000
  0
LINE
  8
1
 10
15.7607
 20
5.0800
 30
0.0000
 11
17.2593
 21
5.0800
 31
0.0000
  0
LINE
  8
1
 10
18.3007
 20
5.0800
 30
0.0000
 11
19.2640
 21
5.0800
 31
0.0000
  0
LINE
  8
1
 10
21.3760
 20
5.0800
 30
0.0000
 11
24.8666
 21
5.0800
 31
0.0000
  0
LINE
  8
1
 10
0.5334
 20
5.3340
 30
0.0000
 11
3.9783
 21
5.3340
 31
0.0000
  0
LINE
  8
1
 10
15.7607
 20
5.3340
 30
0.0000
 11
17.2593
 21
5.3340
 31
0.0000
  0
LINE
  8
1
 10
18.3007
 20
5.3340
 30
0.0000
 11
19.2026
 21
5.3340
 31
0.0000
  0
LINE
  8
1
 10
21.3897
 20
5.3340
 30
0.0000
 11
24.8666
 21
5.3340
 31
0.0000
  0
LINE
  8
1
 10
0.5334
 20
5.5880
 30
0.0000
 11
3.9732
 21
5.5880
 31
0.0000
  0
LINE
  8
1
 10
15.7607
 20
5.5880
 30
0.0000
 11
17.2593
 21
5.5880
 31
0.0000
  0
LINE
  8
1
 10
18.3007
 20
5.5880
 30
0.0000
 11
18.9486
 21
5.5880
 31
0.0000
  0
LINE
  8
1
 10
21.4268
 20
5.5880
 30
0.0000
 11
21.9739
 21
5.5880
 31
0.0000
  0
LINE
  8
1
 10
22.4761
 20
5.5880
 30
0.0000
 11
23.2439
 21
5.5880
 31
0.0000
  0
LINE
  8
1
 10
23.7461
 20
5.5880
 30
0.0000
 11
24.8666
 21
5.5880
 31
0.0000
  0
LINE
  8
1
 10
0.5334
 20
5.8420
 30
0.0000
 11
3.9732
 21
5.8420
 31
0.0000
  0
LINE
  8
1
 10
15.7607
 20
5.8420
 30
0.0000
 11
17.2593
 21
5.8420
 31
0.0000
  0
LINE
  8
1
 10
18.3007
 20
5.8420
 30
0.0000
 11
18.6946
 21
5.8420
 31
0.0000
  0
LINE
  8
1
 10
21.4268
 20
5.8420
 30
0.0000
 11
21.6015
 21
5.8420
 31
0.0000
  0
LINE
  8
1
 10
22.8485
 20
5.8420
 30
0.0000
 11
22.8715
 21
5.8420
 31
0.0000
  0
LINE
  8
1
 10
24.1185
 20
5.8420
 30
0.0000
 11
24.8666
 21
5.8420
 31
0.0000
  0
LINE
  8
1
 10
0.5334
 20
6.0960
 30
0.0000
 11
3.9732
 21
6.0960
 31
0.0000
  0
LINE
  8
1
 10
15.7607
 20
6.0960
 30
0.0000
 11
17.2593
 21
6.0960
 31
0.0000
  0
LINE
  8
1
 10
18.3007
 20
6.0960
 30
0.0000
 11
18.6563
 21
6.0960
 31
0.0000
  0
LINE
  8
1
 10
21.4268
 20
6.0960
 30
0.0000
 11
21.4642
 21
6.0960
 31
0.0000
  0
LINE
  8
1
 10
24.2558
 20
6.0960
 30
0.0000
 11
24.8666
 21
6.0960
 31
0.0000
  0
LINE
  8
1
 10
0.5334
 20
6.3500
 30
0.0000
 11
3.9943
 21
6.3500
 31
0.0000
  0
LINE
  8
1
 10
15.7607
 20
6.3500
 30
0.0000
 11
17.2593
 21
6.3500
 31
0.0000
  0
LINE
  8
1
 10
18.3007
 20
6.3500
 30
0.0000
 11
18.6563
 21
6.3500
 31
0.0000
  0
LINE
  8
1
 10
24.2951
 20
6.3500
 30
0.0000
 11
24.8666
 21
6.3500
 31
0.0000
  0
LINE
  8
1
 10
0.5334
 20
6.6040
 30
0.0000
 11
3.9732
 21
6.6040
 31
0.0000
  0
LINE
  8
1
 10
15.7224
 20
6.6040
 30
0.0000
 11
17.2593
 21
6.6040
 31
0.0000
  0
LINE
  8
1
 10
18.3007
 20
6.6040
 30
0.0000
 11
18.6563
 21
6.6040
 31
0.0000
  0
LINE
  8
1
 10
24.2558
 20
6.6040
 30
0.0000
 11
24.8666
 21
6.6040
 31
0.0000
  0
LINE
  8
1
 10
0.5334
 20
6.8580
 30
0.0000
 11
3.9732
 21
6.8580
 31
0.0000
  0
LINE
  8
1
 10
15.4684
 20
6.8580
 30
0.0000
 11
17.2593
 21
6.8580
 31
0.0000
  0
LINE
  8
1
 10
18.3007
 20
6.8580
 30
0.0000
 11
18.6563
 21
6.8580
 31
0.0000
  0
LINE
  8
1
 10
24.1185
 20
6.8580
 30
0.0000
 11
24.8666
 21
6.8580
 31
0.0000
  0
LINE
  8
1
 10
0.5334
 20
7.1120
 30
0.0000
 11
3.9732
 21
7.1120
 31
0.0000
  0
LINE
  8
1
 10
15.2144
 20
7.1120
 30
0.0000
 11
17.2593
 21
7.1120
 31
0.0000
  0
LINE
  8
1
 10
18.3007
 20
7.1120
 30
0.0000
 11
18.6563
 21
7.1120
 31
0.0000
  0
LINE
  8
1
 10
23.7461
 20
7.1120
 30
0.0000
 11
24.8666
 21
7.1120
 31
0.0000
  0
LINE
  8
1
 10
0.5334
 20
7.3660
 30
0.0000
 11
4.0103
 21
7.3660
 31
0.0000
  0
LINE
  8
1
 10
14.9604
 20
7.3660
 30
0.0000
 11
17.2593
 21
7.3660
 31
0.0000
  0
LINE
  8
1
 10
18.3007
 20
7.3660
 30
0.0000
 11
18.6563
 21
7.3660
 31
0.0000
  0
LINE
  8
1
 10
23.2154
 20
7.3660
 30
0.0000
 11
24.8666
 21
7.3660
 31
0.0000
  0
LINE
  8
1
 10
0.5334
 20
7.6200
 30
0.0000
 11
4.0240
 21
7.6200
 31
0.0000
  0
LINE
  8
1
 10
14.7701
 20
7.6200
 30
0.0000
 11
17.2593
 21
7.6200
 31
0.0000
  0
LINE
  8
1
 10
18.3007
 20
7.6200
 30
0.0000
 11
18.6563
 21
7.6200
 31
0.0000
  0
LINE
  8
1
 10
22.9614
 20
7.6200
 30
0.0000
 11
24.8666
 21
7.6200
 31
0.0000
  0
LINE
  8
1
 10
0.5334
 20
7.8740
 30
0.0000
 11
4.0240
 21
7.8740
 31
0.0000
  0
LINE
  8
1
 10
5.0570
 20
7.8740
 30
0.0000
 11
5.1030
 21
7.8740
 31
0.0000
  0
LINE
  8
1
 10
14.7308
 20
7.8740
 30
0.0000
 11
17.2593
 21
7.8740
 31
0.0000
  0
LINE
  8
1
 10
18.3007
 20
7.8740
 30
0.0000
 11
18.6563
 21
7.8740
 31
0.0000
  0
LINE
  8
1
 10
22.7074
 20
7.8740
 30
0.0000
 11
24.8666
 21
7.8740
 31
0.0000
  0
LINE
  8
1
 10
2.5937
 20
8.1280
 30
0.0000
 11
4.0240
 21
8.1280
 31
0.0000
  0
LINE
  8
1
 10
5.0570
 20
8.1280
 30
0.0000
 11
5.1030
 21
8.1280
 31
0.0000
  0
LINE
  8
1
 10
15.2050
 20
8.1280
 30
0.0000
 11
15.4510
 21
8.1280
 31
0.0000
  0
LINE
  8
1
 10
16.1548
 20
8.1280
 30
0.0000
 11
17.2593
 21
8.1280
 31
0.0000
  0
LINE
  8
1
 10
18.3007
 20
8.1280
 30
0.0000
 11
18.6563
 21
8.1280
 31
0.0000
  0
LINE
  8
1
 10
22.4534
 20
8.1280
 30
0.0000
 11
22.8063
 21
8.1280
 31
0.0000
  0
LINE
  8
1
 10
2.8368
 20
8.3820
 30
0.0000
 11
4.0990
 21
8.3820
 31
0.0000
  0
LINE
  8
1
 10
5.0570
 20
8.3820
 30
0.0000
 11
5.1030
 21
8.3820
 31
0.0000
  0
LINE
  8
1
 10
15.2050
 20
8.3820
 30
0.0000
 11
15.4510
 21
8.3820
 31
0.0000
  0
LINE
  8
1
 10
16.2590
 20
8.3820
 30
0.0000
 11
17.2593
 21
8.3820
 31
0.0000
  0
LINE
  8
1
 10
18.3007
 20
8.3820
 30
0.0000
 11
18.6563
 21
8.3820
 31
0.0000
  0
LINE
  8
1
 10
21.3737
 20
8.3820
 30
0.0000
 11
22.5632
 21
8.3820
 31
0.0000
  0
LINE
  8
1
 10
2.8368
 20
8.6360
 30
0.0000
 11
5.5892
 21
8.6360
 31
0.0000
  0
LINE
  8
1
 10
15.2050
 20
8.6360
 30
0.0000
 11
15.4510
 21
8.6360
 31
0.0000
  0
LINE
  8
1
 10
16.2590
 20
8.6360
 30
0.0000
 11
17.2593
 21
8.6360
 31
0.0000
  0
LINE
  8
1
 10
18.3007
 20
8.6360
 30
0.0000
 11
18.6946
 21
8.6360
 31
0.0000
  0
LINE
  8
1
 10
20.4458
 20
8.6360
 30
0.0000
 11
22.5632
 21
8.6360
 31
0.0000
  0
LINE
  8
1
 10
2.8368
 20
8.8900
 30
0.0000
 11
5.5499
 21
8.8900
 31
0.0000
  0
LINE
  8
1
 10
15.4510
 20
8.8900
 30
0.0000
 11
17.0436
 21
8.8900
 31
0.0000
  0
LINE
  8
1
 10
18.3007
 20
8.8900
 30
0.0000
 11
18.8849
 21
8.8900
 31
0.0000
  0
LINE
  8
1
 10
20.4851
 20
8.8900
 30
0.0000
 11
22.5632
 21
8.8900
 31
0.0000
  0
LINE
  8
1
 10
2.8368
 20
9.1440
 30
0.0000
 11
5.5892
 21
9.1440
 31
0.0000
  0
LINE
  8
1
 10
16.2590
 20
9.1440
 30
0.0000
 11
16.7896
 21
9.1440
 31
0.0000
  0
LINE
  8
1
 10
18.2624
 20
9.1440
 30
0.0000
 11
18.6946
 21
9.1440
 31
0.0000
  0
LINE
  8
1
 10
20.4458
 20
9.1440
 30
0.0000
 11
22.5632
 21
9.1440
 31
0.0000
  0
LINE
  8
1
 10
2.8368
 20
9.3980
 30
0.0000
 11
5.7265
 21
9.3980
 31
0.0000
  0
LINE
  8
1
 10
6.9735
 20
9.3980
 30
0.0000
 11
7.0993
 21
9.3980
 31
0.0000
  0
LINE
  8
1
 10
18.0084
 20
9.3980
 30
0.0000
 11
18.4406
 21
9.3980
 31
0.0000
  0
LINE
  8
1
 10
20.3085
 20
9.3980
 30
0.0000
 11
22.5632
 21
9.3980
 31
0.0000
  0
LINE
  8
1
 10
2.8368
 20
9.6520
 30
0.0000
 11
6.0989
 21
9.6520
 31
0.0000
  0
LINE
  8
1
 10
6.6011
 20
9.6520
 30
0.0000
 11
7.0993
 21
9.6520
 31
0.0000
  0
LINE
  8
1
 10
17.7544
 20
9.6520
 30
0.0000
 11
18.1866
 21
9.6520
 31
0.0000
  0
LINE
  8
1
 10
21.6914
 20
9.6520
 30
0.0000
 11
22.5632
 21
9.6520
 31
0.0000
  0
LINE
  8
1
 10
2.8368
 20
9.9060
 30
0.0000
 11
7.0993
 21
9.9060
 31
0.0000
  0
LINE
  8
1
 10
21.9454
 20
9.9060
 30
0.0000
 11
22.5632
 21
9.9060
 31
0.0000
  0
LINE
  8
1
 10
2.6057
 20
10.1600
 30
0.0000
 11
5.8676
 21
10.1600
 31
0.0000
  0
LINE
  8
1
 10
22.1107
 20
10.1600
 30
0.0000
 11
22.7943
 21
10.1600
 31
0.0000
  0
LINE
  8
1
 10
0.5334
 20
10.4140
 30
0.0000
 11
5.6136
 21
10.4140
 31
0.0000
  0
LINE
  8
1
 10
22.1107
 20
10.4140
 30
0.0000
 11
24.8666
 21
10.4140
 31
0.0000
  0
LINE
  8
1
 10
2.6185
 20
10.6680
 30
0.0000
 11
5.3596
 21
10.6680
 31
0.0000
  0
LINE
  8
1
 10
19.4054
 20
10.6680
 30
0.0000
 11
21.0693
 21
10.6680
 31
0.0000
  0
LINE
  8
1
 10
22.1107
 20
10.6680
 30
0.0000
 11
22.7815
 21
10.6680
 31
0.0000
  0
LINE
  8
1
 10
2.7453
 20
10.9220
 30
0.0000
 11
5.1056
 21
10.9220
 31
0.0000
  0
LINE
  8
1
 10
19.5620
 20
10.9220
 30
0.0000
 11
19.8080
 21
10.9220
 31
0.0000
  0
LINE
  8
1
 10
20.2464
 20
10.9220
 30
0.0000
 11
20.8573
 21
10.9220
 31
0.0000
  0
LINE
  8
1
 10
22.3227
 20
10.9220
 30
0.0000
 11
22.6547
 21
10.9220
 31
0.0000
  0
LINE
  8
1
 10
2.7453
 20
11.1760
 30
0.0000
 11
4.9403
 21
11.1760
 31
0.0000
  0
LINE
  8
1
 10
19.5620
 20
11.1760
 30
0.0000
 11
19.8080
 21
11.1760
 31
0.0000
  0
LINE
  8
1
 10
20.5462
 20
11.1760
 30
0.0000
 11
20.6582
 21
11.1760
 31
0.0000
  0
LINE
  8
1
 10
22.5218
 20
11.1760
 30
0.0000
 11
22.6547
 21
11.1760
 31
0.0000
  0
LINE
  8
1
 10
2.7453
 20
11.4300
 30
0.0000
 11
4.9403
 21
11.4300
 31
0.0000
  0
LINE
  8
1
 10
18.6610
 20
11.4300
 30
0.0000
 11
18.8040
 21
11.4300
 31
0.0000
  0
LINE
  8
1
 10
19.5620
 20
11.4300
 30
0.0000
 11
19.8080
 21
11.4300
 31
0.0000
  0
LINE
  8
1
 10
20.5660
 20
11.4300
 30
0.0000
 11
20.6582
 21
11.4300
 31
0.0000
  0
LINE
  8
1
 10
22.5218
 20
11.4300
 30
0.0000
 11
22.6547
 21
11.4300
 31
0.0000
  0
LINE
  8
1
 10
2.7453
 20
11.6840
 30
0.0000
 11
4.9403
 21
11.6840
 31
0.0000
  0
LINE
  8
1
 10
16.2304
 20
11.6840
 30
0.0000
 11
16.8990
 21
11.6840
 31
0.0000
  0
LINE
  8
1
 10
18.6610
 20
11.6840
 30
0.0000
 11
18.8040
 21
11.6840
 31
0.0000
  0
LINE
  8
1
 10
19.5620
 20
11.6840
 30
0.0000
 11
19.8080
 21
11.6840
 31
0.0000
  0
LINE
  8
1
 10
20.5660
 20
11.6840
 30
0.0000
 11
20.6582
 21
11.6840
 31
0.0000
  0
LINE
  8
1
 10
22.5218
 20
11.6840
 30
0.0000
 11
22.6547
 21
11.6840
 31
0.0000
  0
LINE
  8
1
 10
2.7453
 20
11.9380
 30
0.0000
 11
4.9403
 21
11.9380
 31
0.0000
  0
LINE
  8
1
 10
16.4844
 20
11.9380
 30
0.0000
 11
17.6570
 21
11.9380
 31
0.0000
  0
LINE
  8
1
 10
17.9030
 20
11.9380
 30
0.0000
 11
19.5620
 21
11.9380
 31
0.0000
  0
LINE
  8
1
 10
19.8080
 20
11.9380
 30
0.0000
 11
20.6582
 21
11.9380
 31
0.0000
  0
LINE
  8
1
 10
22.5218
 20
11.9380
 30
0.0000
 11
22.6547
 21
11.9380
 31
0.0000
  0
LINE
  8
1
 10
2.7453
 20
12.1920
 30
0.0000
 11
4.9403
 21
12.1920
 31
0.0000
  0
LINE
  8
1
 10
18.6610
 20
12.1920
 30
0.0000
 11
18.8040
 21
12.1920
 31
0.0000
  0
LINE
  8
1
 10
20.5660
 20
12.1920
 30
0.0000
 11
20.6582
 21
12.1920
 31
0.0000
  0
LINE
  8
1
 10
22.5218
 20
12.1920
 30
0.0000
 11
22.6547
 21
12.1920
 31
0.0000
  0
LINE
  8
1
 10
2.7453
 20
12.4460
 30
0.0000
 11
4.9403
 21
12.4460
 31
0.0000
  0
LINE
  8
1
 10
6.6167
 20
12.4460
 30
0.0000
 11
6.6882
 21
12.4460
 31
0.0000
  0
LINE
  8
1
 10
8.5518
 20
12.4460
 30
0.0000
 11
8.6616
 21
12.4460
 31
0.0000
  0
LINE
  8
1
 10
20.5660
 20
12.4460
 30
0.0000
 11
20.6582
 21
12.4460
 31
0.0000
  0
LINE
  8
1
 10
22.5218
 20
12.4460
 30
0.0000
 11
22.6547
 21
12.4460
 31
0.0000
  0
LINE
  8
1
 10
2.7453
 20
12.7000
 30
0.0000
 11
4.9403
 21
12.7000
 31
0.0000
  0
LINE
  8
1
 10
6.6167
 20
12.7000
 30
0.0000
 11
6.8093
 21
12.7000
 31
0.0000
  0
LINE
  8
1
 10
8.4307
 20
12.7000
 30
0.0000
 11
9.5440
 21
12.7000
 31
0.0000
  0
LINE
  8
1
 10
10.3750
 20
12.7000
 30
0.0000
 11
10.3750
 21
12.7000
 31
0.0000
  0
LINE
  8
1
 10
20.4957
 20
12.7000
 30
0.0000
 11
20.7793
 21
12.7000
 31
0.0000
  0
LINE
  8
1
 10
22.4007
 20
12.7000
 30
0.0000
 11
22.6547
 21
12.7000
 31
0.0000
  0
LINE
  8
1
 10
2.7453
 20
12.9540
 30
0.0000
 11
4.9403
 21
12.9540
 31
0.0000
  0
LINE
  8
1
 10
6.6167
 20
12.9540
 30
0.0000
 11
6.7390
 21
12.9540
 31
0.0000
  0
LINE
  8
1
 10
8.5010
 20
12.9540
 30
0.0000
 11
9.5557
 21
12.9540
 31
0.0000
  0
LINE
  8
1
 10
10.3750
 20
12.9540
 30
0.0000
 11
10.3750
 21
12.9540
 31
0.0000
  0
LINE
  8
1
 10
20.6168
 20
12.9540
 30
0.0000
 11
20.6582
 21
12.9540
 31
0.0000
  0
LINE
  8
1
 10
22.5218
 20
12.9540
 30
0.0000
 11
22.6547
 21
12.9540
 31
0.0000
  0
LINE
  8
1
 10
2.7453
 20
13.2080
 30
0.0000
 11
4.9403
 21
13.2080
 31
0.0000
  0
LINE
  8
1
 10
6.6167
 20
13.2080
 30
0.0000
 11
6.7390
 21
13.2080
 31
0.0000
  0
LINE
  8
1
 10
8.5010
 20
13.2080
 30
0.0000
 11
9.5440
 21
13.2080
 31
0.0000
  0
LINE
  8
1
 10
10.3750
 20
13.2080
 30
0.0000
 11
10.3750
 21
13.2080
 31
0.0000
  0
LINE
  8
1
 10
20.6168
 20
13.2080
 30
0.0000
 11
20.6582
 21
13.2080
 31
0.0000
  0
LINE
  8
1
 10
22.5218
 20
13.2080
 30
0.0000
 11
22.6547
 21
13.2080
 31
0.0000
  0
LINE
  8
1
 10
2.7453
 20
13.4620
 30
0.0000
 11
4.9403
 21
13.4620
 31
0.0000
  0
LINE
  8
1
 10
6.6167
 20
13.4620
 30
0.0000
 11
7.4970
 21
13.4620
 31
0.0000
  0
LINE
  8
1
 10
7.7430
 20
13.4620
 30
0.0000
 11
9.5440
 21
13.4620
 31
0.0000
  0
LINE
  8
1
 10
10.3750
 20
13.4620
 30
0.0000
 11
10.3750
 21
13.4620
 31
0.0000
  0
LINE
  8
1
 10
20.6168
 20
13.4620
 30
0.0000
 11
20.6582
 21
13.4620
 31
0.0000
  0
LINE
  8
1
 10
22.5218
 20
13.4620
 30
0.0000
 11
22.6547
 21
13.4620
 31
0.0000
  0
LINE
  8
1
 10
2.7453
 20
13.7160
 30
0.0000
 11
4.9403
 21
13.7160
 31
0.0000
  0
LINE
  8
1
 10
6.6167
 20
13.7160
 30
0.0000
 11
6.7390
 21
13.7160
 31
0.0000
  0
LINE
  8
1
 10
8.5010
 20
13.7160
 30
0.0000
 11
9.6742
 21
13.7160
 31
0.0000
  0
LINE
  8
1
 10
10.3750
 20
13.7160
 30
0.0000
 11
10.3750
 21
13.7160
 31
0.0000
  0
LINE
  8
1
 10
15.7977
 20
13.7160
 30
0.0000
 11
16.1546
 21
13.7160
 31
0.0000
  0
LINE
  8
1
 10
20.6168
 20
13.7160
 30
0.0000
 11
20.6582
 21
13.7160
 31
0.0000
  0
LINE
  8
1
 10
22.5218
 20
13.7160
 30
0.0000
 11
22.6547
 21
13.7160
 31
0.0000
  0
LINE
  8
1
 10
2.7453
 20
13.9700
 30
0.0000
 11
4.9403
 21
13.9700
 31
0.0000
  0
LINE
  8
1
 10
6.6167
 20
13.9700
 30
0.0000
 11
6.7390
 21
13.9700
 31
0.0000
  0
LINE
  8
1
 10
8.5010
 20
13.9700
 30
0.0000
 11
11.0315
 21
13.9700
 31
0.0000
  0
LINE
  8
1
 10
14.3685
 20
13.9700
 30
0.0000
 11
16.4086
 21
13.9700
 31
0.0000
  0
LINE
  8
1
 10
20.6168
 20
13.9700
 30
0.0000
 11
20.6582
 21
13.9700
 31
0.0000
  0
LINE
  8
1
 10
22.5218
 20
13.9700
 30
0.0000
 11
22.6547
 21
13.9700
 31
0.0000
  0
LINE
  8
1
 10
2.7453
 20
14.2240
 30
0.0000
 11
4.9403
 21
14.2240
 31
0.0000
  0
LINE
  8
1
 10
9.7534
 20
14.2240
 30
0.0000
 11
11.2855
 21
14.2240
 31
0.0000
  0
LINE
  8
1
 10
14.1145
 20
14.2240
 30
0.0000
 11
16.8482
 21
14.2240
 31
0.0000
  0
LINE
  8
1
 10
20.6168
 20
14.2240
 30
0.0000
 11
20.6582
 21
14.2240
 31
0.0000
  0
LINE
  8
1
 10
22.5218
 20
14.2240
 30
0.0000
 11
22.6547
 21
14.2240
 31
0.0000
  0
LINE
  8
1
 10
2.7453
 20
14.4780
 30
0.0000
 11
4.9403
 21
14.4780
 31
0.0000
  0
LINE
  8
1
 10
10.0074
 20
14.4780
 30
0.0000
 11
14.9889
 21
14.4780
 31
0.0000
  0
LINE
  8
1
 10
15.4911
 20
14.4780
 30
0.0000
 11
17.0473
 21
14.4780
 31
0.0000
  0
LINE
  8
1
 10
20.4177
 20
14.4780
 30
0.0000
 11
20.8292
 21
14.4780
 31
0.0000
  0
LINE
  8
1
 10
22.3508
 20
14.4780
 30
0.0000
 11
22.6547
 21
14.4780
 31
0.0000
  0
LINE
  8
1
 10
2.6185
 20
14.7320
 30
0.0000
 11
4.9403
 21
14.7320
 31
0.0000
  0
LINE
  8
1
 10
12.4204
 20
14.7320
 30
0.0000
 11
14.6165
 21
14.7320
 31
0.0000
  0
LINE
  8
1
 10
15.8635
 20
14.7320
 30
0.0000
 11
17.0473
 21
14.7320
 31
0.0000
  0
LINE
  8
1
 10
20.4214
 20
14.7320
 30
0.0000
 11
20.7899
 21
14.7320
 31
0.0000
  0
LINE
  8
1
 10
22.3901
 20
14.7320
 30
0.0000
 11
22.7815
 21
14.7320
 31
0.0000
  0
LINE
  8
1
 10
0.5334
 20
14.9860
 30
0.0000
 11
5.1056
 21
14.9860
 31
0.0000
  0
LINE
  8
1
 10
12.6744
 20
14.9860
 30
0.0000
 11
14.4792
 21
14.9860
 31
0.0000
  0
LINE
  8
1
 10
16.0008
 20
14.9860
 30
0.0000
 11
16.8482
 21
14.9860
 31
0.0000
  0
LINE
  8
1
 10
23.0884
 20
14.9860
 30
0.0000
 11
24.8666
 21
14.9860
 31
0.0000
  0
LINE
  8
1
 10
0.5334
 20
15.2400
 30
0.0000
 11
5.3596
 21
15.2400
 31
0.0000
  0
LINE
  8
1
 10
12.9284
 20
15.2400
 30
0.0000
 11
14.4399
 21
15.2400
 31
0.0000
  0
LINE
  8
1
 10
23.3424
 20
15.2400
 30
0.0000
 11
24.8666
 21
15.2400
 31
0.0000
  0
LINE
  8
1
 10
0.5334
 20
15.4940
 30
0.0000
 11
5.6136
 21
15.4940
 31
0.0000
  0
LINE
  8
1
 10
14.0600
 20
15.4940
 30
0.0000
 11
14.4792
 21
15.4940
 31
0.0000
  0
LINE
  8
1
 10
23.8136
 20
15.4940
 30
0.0000
 11
24.8666
 21
15.4940
 31
0.0000
  0
LINE
  8
1
 10
0.5334
 20
15.7480
 30
0.0000
 11
5.8676
 21
15.7480
 31
0.0000
  0
LINE
  8
1
 10
14.2621
 20
15.7480
 30
0.0000
 11
14.6165
 21
15.7480
 31
0.0000
  0
LINE
  8
1
 10
23.9268
 20
15.7480
 30
0.0000
 11
24.8666
 21
15.7480
 31
0.0000
  0
LINE
  8
1
 10
0.5334
 20
16.0020
 30
0.0000
 11
6.1216
 21
16.0020
 31
0.0000
  0
LINE
  8
1
 10
14.7064
 20
16.0020
 30
0.0000
 11
14.9889
 21
16.0020
 31
0.0000
  0
LINE
  8
1
 10
23.9268
 20
16.0020
 30
0.0000
 11
24.8666
 21
16.0020
 31
0.0000
  0
LINE
  8
1
 10
0.5334
 20
16.2560
 30
0.0000
 11
6.6882
 21
16.2560
 31
0.0000
  0
LINE
  8
1
 10
14.9604
 20
16.2560
 30
0.0000
 11
16.8482
 21
16.2560
 31
0.0000
  0
LINE
  8
1
 10
23.9268
 20
16.2560
 30
0.0000
 11
24.8666
 21
16.2560
 31
0.0000
  0
LINE
  8
1
 10
0.5334
 20
16.5100
 30
0.0000
 11
6.8093
 21
16.5100
 31
0.0000
  0
LINE
  8
1
 10
15.2144
 20
16.5100
 30
0.0000
 11
16.9693
 21
16.5100
 31
0.0000
  0
LINE
  8
1
 10
23.9268
 20
16.5100
 30
0.0000
 11
24.8666
 21
16.5100
 31
0.0000
  0
LINE
  8
1
 10
0.5334
 20
16.7640
 30
0.0000
 11
6.6882
 21
16.7640
 31
0.0000
  0
LINE
  8
1
 10
15.4684
 20
16.7640
 30
0.0000
 11
16.8482
 21
16.7640
 31
0.0000
  0
LINE
  8
1
 10
23.9268
 20
16.7640
 30
0.0000
 11
24.8666
 21
16.7640
 31
0.0000
  0
LINE
  8
1
 10
0.5334
 20
17.0180
 30
0.0000
 11
6.6882
 21
17.0180
 31
0.0000
  0
LINE
  8
1
 10
23.9268
 20
17.0180
 30
0.0000
 11
24.8666
 21
17.0180
 31
0.0000
  0
LINE
  8
1
 10
0.5334
 20
17.2720
 30
0.0000
 11
6.6882
 21
17.2720
 31
0.0000
  0
LINE
  8
1
 10
10.8964
 20
17.2720
 30
0.0000
 11
11.1379
 21
17.2720
 31
0.0000
  0
LINE
  8
1
 10
23.9268
 20
17.2720
 30
0.0000
 11
24.8666
 21
17.2720
 31
0.0000
  0
LINE
  8
1
 10
0.5334
 20
17.5260
 30
0.0000
 11
6.6882
 21
17.5260
 31
0.0000
  0
LINE
  8
1
 10
10.6424
 20
17.5260
 30
0.0000
 11
11.3400
 21
17.5260
 31
0.0000
  0
LINE
  8
1
 10
21.2736
 20
17.5260
 30
0.0000
 11
21.9064
 21
17.5260
 31
0.0000
  0
LINE
  8
1
 10
23.8136
 20
17.5260
 30
0.0000
 11
24.8666
 21
17.5260
 31
0.0000
  0
LINE
  8
1
 10
0.5334
 20
17.7800
 30
0.0000
 11
6.6882
 21
17.7800
 31
0.0000
  0
LINE
  8
1
 10
10.3884
 20
17.7800
 30
0.0000
 11
12.1793
 21
17.7800
 31
0.0000
  0
LINE
  8
1
 10
20.8407
 20
17.7800
 30
0.0000
 11
24.8666
 21
17.7800
 31
0.0000
  0
LINE
  8
1
 10
0.5334
 20
18.0340
 30
0.0000
 11
6.6882
 21
18.0340
 31
0.0000
  0
LINE
  8
1
 10
8.5518
 20
18.0340
 30
0.0000
 11
12.2176
 21
18.0340
 31
0.0000
  0
LINE
  8
1
 10
20.8407
 20
18.0340
 30
0.0000
 11
24.8666
 21
18.0340
 31
0.0000
  0
LINE
  8
1
 10
0.5334
 20
18.2880
 30
0.0000
 11
6.8873
 21
18.2880
 31
0.0000
  0
LINE
  8
1
 10
8.3527
 20
18.2880
 30
0.0000
 11
12.4716
 21
18.2880
 31
0.0000
  0
LINE
  8
1
 10
20.8407
 20
18.2880
 30
0.0000
 11
24.8666
 21
18.2880
 31
0.0000
  0
LINE
  8
1
 10
0.5334
 20
18.5420
 30
0.0000
 11
12.7256
 21
18.5420
 31
0.0000
  0
LINE
  8
1
 10
20.8407
 20
18.5420
 30
0.0000
 11
24.8666
 21
18.5420
 31
0.0000
  0
LINE
  8
1
 10
0.5334
 20
18.7960
 30
0.0000
 11
12.9796
 21
18.7960
 31
0.0000
  0
LINE
  8
1
 10
20.6754
 20
18.7960
 30
0.0000
 11
24.8666
 21
18.7960
 31
0.0000
  0
LINE
  8
1
 10
0.5334
 20
19.0500
 30
0.0000
 11
13.2336
 21
19.0500
 31
0.0000
  0
LINE
  8
1
 10
20.4214
 20
19.0500
 30
0.0000
 11
24.8666
 21
19.0500
 31
0.0000
  0
LINE
  8
1
 10
0.5334
 20
19.3040
 30
0.0000
 11
3.1099
 21
19.3040
 31
0.0000
  0
LINE
  8
1
 10
4.5101
 20
19.3040
 30
0.0000
 11
13.4876
 21
19.3040
 31
0.0000
  0
LINE
  8
1
 10
20.1674
 20
19.3040
 30
0.0000
 11
20.8899
 21
19.3040
 31
0.0000
  0
LINE
  8
1
 10
22.2901
 20
19.3040
 30
0.0000
 11
24.8666
 21
19.3040
 31
0.0000
  0
LINE
  8
1
 10
0.5334
 20
19.5580
 30
0.0000
 11
2.5172
 21
19.5580
 31
0.0000
  0
LINE
  8
1
 10
5.1028
 20
19.5580
 30
0.0000
 11
13.7416
 21
19.5580
 31
0.0000
  0
LINE
  8
1
 10
19.9134
 20
19.5580
 30
0.0000
 11
20.2972
 21
19.5580
 31
0.0000
  0
LINE
  8
1
 10
22.8828
 20
19.5580
 30
0.0000
 11
24.8666
 21
19.5580
 31
0.0000
  0
LINE
  8
1
 10
0.5334
 20
19.8120
 30
0.0000
 11
2.2145
 21
19.8120
 31
0.0000
  0
LINE
  8
1
 10
5.4055
 20
19.8120
 30
0.0000
 11
19.9945
 21
19.8120
 31
0.0000
  0
LINE
  8
1
 10
23.1855
 20
19.8120
 30
0.0000
 11
24.8666
 21
19.8120
 31
0.0000
  0
LINE
  8
1
 10
0.5334
 20
20.0660
 30
0.0000
 11
1.9329
 21
20.0660
 31
0.0000
  0
LINE
  8
1
 10
5.6871
 20
20.0660
 30
0.0000
 11
19.7129
 21
20.0660
 31
0.0000
  0
LINE
  8
1
 10
23.4671
 20
20.0660
 30
0.0000
 11
24.8666
 21
20.0660
 31
0.0000
  0
LINE
  8
1
 10
0.5334
 20
20.3200
 30
0.0000
 11
1.7863
 21
20.3200
 31
0.0000
  0
LINE
  8
1
 10
5.8337
 20
20.3200
 30
0.0000
 11
19.5663
 21
20.3200
 31
0.0000
  0
LINE
  8
1
 10
23.6137
 20
20.3200
 30
0.0000
 11
24.8666
 21
20.3200
 31
0.0000
  0
LINE
  8
1
 10
0.5334
 20
20.5740
 30
0.0000
 11
1.6396
 21
20.5740
 31
0.0000
  0
LINE
  8
1
 10
5.9804
 20
20.5740
 30
0.0000
 11
19.4196
 21
20.5740
 31
0.0000
  0
LINE
  8
1
 10
23.7604
 20
20.5740
 30
0.0000
 11
24.8666
 21
20.5740
 31
0.0000
  0
LINE
  8
1
 10
0.5334
 20
20.8280
 30
0.0000
 11
1.5199
 21
20.8280
 31
0.0000
  0
LINE
  8
1
 10
6.1001
 20
20.8280
 30
0.0000
 11
19.2999
 21
20.8280
 31
0.0000
  0
LINE
  8
1
 10
23.8801
 20
20.8280
 30
0.0000
 11
24.8666
 21
20.8280
 31
0.0000
  0
LINE
  8
1
 10
0.5334
 20
21.0820
 30
0.0000
 11
1.4751
 21
21.0820
 31
0.0000
  0
LINE
  8
1
 10
6.1449
 20
21.0820
 30
0.0000
 11
19.2551
 21
21.0820
 31
0.0000
  0
LINE
  8
1
 10
23.9249
 20
21.0820
 30
0.0000
 11
24.8666
 21
21.0820
 31
0.0000
  0
LINE
  8
1
 10
0.5334
 20
21.3360
 30
0.0000
 11
1.4304
 21
21.3360
 31
0.0000
  0
LINE
  8
1
 10
6.1896
 20
21.3360
 30
0.0000
 11
19.2104
 21
21.3360
 31
0.0000
  0
LINE
  8
1
 10
23.9696
 20
21.3360
 30
0.0000
 11
24.8666
 21
21.3360
 31
0.0000
  0
LINE
  8
1
 10
0.5334
 20
21.5900
 30
0.0000
 11
1.3856
 21
21.5900
 31
0.0000
  0
LINE
  8
1
 10
6.2344
 20
21.5900
 30
0.0000
 11
19.1656
 21
21.5900
 31
0.0000
  0
LINE
  8
1
 10
24.0144
 20
21.5900
 30
0.0000
 11
24.8666
 21
21.5900
 31
0.0000
  0
LINE
  8
1
 10
0.5334
 20
21.8440
 30
0.0000
 11
1.4304
 21
21.8440
 31
0.0000
  0
LINE
  8
1
 10
6.1896
 20
21.8440
 30
0.0000
 11
19.2104
 21
21.8440
 31
0.0000
  0
LINE
  8
1
 10
23.9696
 20
21.8440
 30
0.0000
 11
24.8666
 21
21.8440
 31
0.0000
  0
LINE
  8
1
 10
0.5334
 20
22.0980
 30
0.0000
 11
1.4751
 21
22.0980
 31
0.0000
  0
LINE
  8
1
 10
6.1449
 20
22.0980
 30
0.0000
 11
19.2551
 21
22.0980
 31
0.0000
  0
LINE
  8
1
 10
23.9249
 20
22.0980
 30
0.0000
 11
24.8666
 21
22.0980
 31
0.0000
  0
LINE
  8
1
 10
0.5334
 20
22.3520
 30
0.0000
 11
1.5199
 21
22.3520
 31
0.0000
  0
LINE
  8
1
 10
6.1001
 20
22.3520
 30
0.0000
 11
19.2999
 21
22.3520
 31
0.0000
  0
LINE
  8
1
 10
23.8801
 20
22.3520
 30
0.0000
 11
24.8666
 21
22.3520
 31
0.0000
  0
LINE
  8
1
 10
0.5334
 20
22.6060
 30
0.0000
 11
1.6396
 21
22.6060
 31
0.0000
  0
LINE
  8
1
 10
5.9804
 20
22.6060
 30
0.0000
 11
19.4196
 21
22.6060
 31
0.0000
  0
LINE
  8
1
 10
23.7604
 20
22.6060
 30
0.0000
 11
24.8666
 21
22.6060
 31
0.0000
  0
LINE
  8
1
 10
0.5334
 20
22.8600
 30
0.0000
 11
1.7863
 21
22.8600
 31
0.0000
  0
LINE
  8
1
 10
5.8337
 20
22.8600
 30
0.0000
 11
10.5895
 21
22.8600
 31
0.0000
  0
LINE
  8
1
 10
14.8105
 20
22.8600
 30
0.0000
 11
19.5663
 21
22.8600
 31
0.0000
  0
LINE
  8
1
 10
23.6137
 20
22.8600
 30
0.0000
 11
24.8666
 21
22.8600
 31
0.0000
  0
LINE
  8
1
 10
0.5334
 20
23.1140
 30
0.0000
 11
1.9329
 21
23.1140
 31
0.0000
  0
LINE
  8
1
 10
5.6871
 20
23.1140
 30
0.0000
 11
10.5047
 21
23.1140
 31
0.0000
  0
LINE
  8
1
 10
14.8953
 20
23.1140
 30
0.0000
 11
19.7129
 21
23.1140
 31
0.0000
  0
LINE
  8
1
 10
23.4671
 20
23.1140
 30
0.0000
 11
24.8666
 21
23.1140
 31
0.0000
  0
LINE
  8
1
 10
0.5334
 20
23.3680
 30
0.0000
 11
2.2145
 21
23.3680
 31
0.0000
  0
LINE
  8
1
 10
5.4055
 20
23.3680
 30
0.0000
 11
10.5047
 21
23.3680
 31
0.0000
  0
LINE
  8
1
 10
14.8953
 20
23.3680
 30
0.0000
 11
19.9945
 21
23.3680
 31
0.0000
  0
LINE
  8
1
 10
23.1855
 20
23.3680
 30
0.0000
 11
24.8666
 21
23.3680
 31
0.0000
  0
LINE
  8
1
 10
0.5334
 20
23.6220
 30
0.0000
 11
2.5172
 21
23.6220
 31
0.0000
  0
LINE
  8
1
 10
5.1028
 20
23.6220
 30
0.0000
 11
10.5047
 21
23.6220
 31
0.0000
  0
LINE
  8
1
 10
14.8953
 20
23.6220
 30
0.0000
 11
20.2972
 21
23.6220
 31
0.0000
  0
LINE
  8
1
 10
22.8828
 20
23.6220
 30
0.0000
 11
24.8666
 21
23.6220
 31
0.0000
  0
LINE
  8
1
 10
0.5334
 20
23.8760
 30
0.0000
 11
3.1099
 21
23.8760
 31
0.0000
  0
LINE
  8
1
 10
4.5101
 20
23.8760
 30
0.0000
 11
10.5047
 21
23.8760
 31
0.0000
  0
LINE
  8
1
 10
14.8953
 20
23.8760
 30
0.0000
 11
20.8899
 21
23.8760
 31
0.0000
  0
LINE
  8
1
 10
22.2901
 20
23.8760
 30
0.0000
 11
24.8666
 21
23.8760
 31
0.0000
  0
LINE
  8
1
 10
1.3137
 20
24.1300
 30
0.0000
 11
10.5047
 21
24.1300
 31
0.0000
  0
LINE
  8
1
 10
14.8953
 20
24.1300
 30
0.0000
 11
24.8666
 21
24.1300
 31
0.0000
  0
LINE
  8
1
 10
1.4678
 20
24.3840
 30
0.0000
 11
10.5047
 21
24.3840
 31
0.0000
  0
LINE
  8
1
 10
14.8953
 20
24.3840
 30
0.0000
 11
24.8666
 21
24.3840
 31
0.0000
  0
LINE
  8
1
 10
1.5113
 20
24.6380
 30
0.0000
 11
10.5047
 21
24.6380
 31
0.0000
  0
LINE
  8
1
 10
14.8953
 20
24.6380
 30
0.0000
 11
24.8666
 21
24.6380
 31
0.0000
  0
INSERT
  8
18
  2
ROUNDV
 10
8.8900
 20
13.9700
 30
0.0000
 41
0.7366
 42
0.7366
 43
1.0000
 50
0.0000
  0
INSERT
  8
18
  2
ROUNDV
 10
19.6850
 20
10.6680
 30
0.0000
 41
0.7366
 42
0.7366
 43
1.0000
 50
0.0000
  0
INSERT
  8
18
  2
ROUNDV
 10
16.4592
 20
8.8900
 30
0.0000
 41
0.7366
 42
0.7366
 43
1.0000
 50
0.0000
  0
INSERT
  8
18
  2
ROUNDV
 10
20.9042
 20
8.8900
 30
0.0000
 41
0.7366
 42
0.7366
 43
1.0000
 50
0.0000
  0
LINE
  8
1
 10
11.8872
 20
16.5100
 30
0.0000
 11
10.9220
 21
16.5100
 31
0.0000
  0
LINE
  8
1
 10
10.9220
 20
16.5100
 30
0.0000
 11
10.0720
 21
17.3600
 31
0.0000
  0
LINE
  8
1
 10
7.6200
 20
17.3600
 30
0.0000
 11
10.0720
 21
17.3600
 31
0.0000
  0
LINE
  8
1
 10
13.5128
 20
16.5100
 30
0.0000
 11
14.4780
 21
16.5100
 31
0.0000
  0
LINE
  8
1
 10
14.4780
 20
16.5100
 30
0.0000
 11
15.3280
 21
17.3600
 31
0.0000
  0
LINE
  8
1
 10
17.7800
 20
17.3600
 30
0.0000
 11
15.3280
 21
17.3600
 31
0.0000
  0
LINE
  8
1
 10
21.5900
 20
13.5500
 30
0.0000
 11
21.5900
 21
14.7320
 31
0.0000
  0
INSERT
  8
18
  2
ROUNDV
 10
21.5900
 20
14.7320
 30
0.0000
 41
0.7366
 42
0.7366
 43
1.0000
 50
0.0000
  0
LINE
  8
1
 10
13.9700
 20
7.6200
 30
0.0000
 11
8.8900
 21
7.6200
 31
0.0000
  0
LINE
  8
1
 10
20.3200
 20
7.8500
 30
0.0000
 11
21.9950
 21
7.8500
 31
0.0000
  0
LINE
  8
1
 10
21.9950
 20
7.8500
 30
0.0000
 11
23.4950
 21
6.3500
 31
0.0000
  0
LINE
  8
1
 10
5.0800
 20
4.8500
 30
0.0000
 11
5.0800
 21
2.5400
 31
0.0000
  0
LINE
  8
1
 10
8.3820
 20
8.1280
 30
0.0000
 11
8.8900
 21
7.6200
 31
0.0000
  0
LINE
  8
1
 10
17.7800
 20
15.6600
 30
0.0000
 11
15.6600
 21
15.6600
 31
0.0000
  0
LINE
  8
1
 10
15.6600
 20
15.6600
 30
0.0000
 11
15.2400
 21
15.2400
 31
0.0000
  0
LINE
  8
1
 10
13.9700
 20
7.6200
 30
0.0000
 11
15.2400
 21
6.3500
 31
0.0000
  0
LINE
  8
1
 10
15.2400
 20
6.3500
 30
0.0000
 11
15.2400
 21
3.8100
 31
0.0000
  0
LINE
  8
1
 10
8.3820
 20
8.1280
 30
0.0000
 11
8.3820
 21
9.5250
 31
0.0000
  0
LINE
  8
1
 10
8.3820
 20
9.5250
 30
0.0000
 11
8.8900
 21
10.0330
 31
0.0000
  0
LINE
  8
1
 10
8.8900
 20
10.0330
 30
0.0000
 11
10.9220
 21
10.0330
 31
0.0000
  0
LINE
  8
1
 10
10.9220
 20
10.0330
 30
0.0000
 11
11.1760
 21
10.2870
 31
0.0000
  0
LINE
  8
1
 10
11.1760
 20
10.2870
 30
0.0000
 11
11.1760
 21
10.9220
 31
0.0000
  0
LINE
  8
1
 10
11.1760
 20
10.9220
 30
0.0000
 11
10.8100
 21
11.2880
 31
0.0000
  0
LINE
  8
1
 10
10.3750
 20
11.2880
 30
0.0000
 11
10.8100
 21
11.2880
 31
0.0000
  0
INSERT
  8
18
  2
ROUNDV
 10
23.4950
 20
6.3500
 30
0.0000
 41
0.7366
 42
0.7366
 43
1.0000
 50
0.0000
  0
INSERT
  8
18
  2
ROUNDV
 10
15.2400
 20
15.2400
 30
0.0000
 41
0.7366
 42
0.7366
 43
1.0000
 50
0.0000
  0
INSERT
  8
18
  2
ROUNDV
 10
5.0800
 20
2.5400
 30
0.0000
 41
0.7366
 42
0.7366
 43
1.0000
 50
0.0000
  0
INSERT
  8
18
  2
ROUNDV
 10
8.8900
 20
7.6200
 30
0.0000
 41
0.7366
 42
0.7366
 43
1.0000
 50
0.0000
  0
INSERT
  8
18
  2
ROUNDV
 10
13.9700
 20
7.6200
 30
0.0000
 41
0.7366
 42
0.7366
 43
1.0000
 50
0.0000
  0
LINE
  8
1
 10
20.3200
 20
6.8500
 30
0.0000
 11
21.7250
 21
6.8500
 31
0.0000
  0
LINE
  8
1
 10
21.7250
 20
6.8500
 30
0.0000
 11
22.2250
 21
6.3500
 31
0.0000
  0
LINE
  8
1
 10
7.6200
 20
15.6600
 30
0.0000
 11
6.5160
 21
15.6600
 31
0.0000
  0
LINE
  8
1
 10
6.5160
 20
15.6600
 30
0.0000
 11
5.4610
 21
14.6050
 31
0.0000
  0
LINE
  8
1
 10
6.1260
 20
10.6380
 30
0.0000
 11
5.4610
 21
11.3030
 31
0.0000
  0
LINE
  8
1
 10
5.4610
 20
11.3030
 30
0.0000
 11
5.4610
 21
14.6050
 31
0.0000
  0
LINE
  8
1
 10
12.7000
 20
5.0800
 30
0.0000
 11
12.7000
 21
3.8100
 31
0.0000
  0
LINE
  8
1
 10
10.3750
 20
10.6380
 30
0.0000
 11
7.6200
 21
10.6380
 31
0.0000
  0
LINE
  8
1
 10
7.6200
 20
10.6380
 30
0.0000
 11
6.1260
 21
10.6380
 31
0.0000
  0
LINE
  8
1
 10
7.6200
 20
5.8500
 30
0.0000
 11
7.6200
 21
10.6380
 31
0.0000
  0
LINE
  8
1
 10
5.0800
 20
5.8500
 30
0.0000
 11
7.6200
 21
5.8500
 31
0.0000
  0
LINE
  8
1
 10
7.6200
 20
5.8500
 30
0.0000
 11
11.9300
 21
5.8500
 31
0.0000
  0
LINE
  8
1
 10
11.9300
 20
5.8500
 30
0.0000
 11
12.7000
 21
5.0800
 31
0.0000
  0
INSERT
  8
18
  2
ROUNDV
 10
22.2250
 20
6.3500
 30
0.0000
 41
0.7366
 42
0.7366
 43
1.0000
 50
0.0000
  0
LINE
  8
1
 10
11.6450
 20
8.8900
 30
0.0000
 11
13.6280
 21
8.8900
 31
0.0000
  0
LINE
  8
1
 10
15.0250
 20
13.2380
 30
0.0000
 11
14.3556
 21
13.2380
 31
0.0000
  0
LINE
  8
1
 10
13.8430
 20
11.0998
 30
0.0000
 11
13.8430
 21
10.2870
 31
0.0000
  0
LINE
  8
1
 10
14.3556
 20
13.2380
 30
0.0000
 11
14.2494
 21
13.1318
 31
0.0000
  0
LINE
  8
1
 10
14.2494
 20
13.1318
 30
0.0000
 11
14.2494
 21
11.5062
 31
0.0000
  0
LINE
  8
1
 10
14.2494
 20
11.5062
 30
0.0000
 11
13.8430
 21
11.0998
 31
0.0000
  0
LINE
  8
1
 10
13.6280
 20
8.8900
 30
0.0000
 11
13.6280
 21
10.0720
 31
0.0000
  0
LINE
  8
1
 10
13.6280
 20
10.0720
 30
0.0000
 11
13.8430
 21
10.2870
 31
0.0000
  0
ENDSEC
  0
EOF
