G75*
%MOIN*%
%OFA0B0*%
%FSLAX25Y25*%
%IPPOS*%
%LPD*%
%AMOC8*
5,1,8,0,0,1.08239X$1,22.5*
%
%ADD10C,0.00500*%
D10*
X0206640Y0077559D02*
X0220026Y0077559D01*
X0220026Y0083858D01*
X0206640Y0083858D01*
X0206640Y0077559D01*
X0206640Y0077991D02*
X0220026Y0077991D01*
X0220026Y0078490D02*
X0206640Y0078490D01*
X0206640Y0078988D02*
X0220026Y0078988D01*
X0220026Y0079487D02*
X0206640Y0079487D01*
X0206640Y0079985D02*
X0220026Y0079985D01*
X0220026Y0080484D02*
X0206640Y0080484D01*
X0206640Y0080982D02*
X0220026Y0080982D01*
X0220026Y0081481D02*
X0206640Y0081481D01*
X0206640Y0081979D02*
X0220026Y0081979D01*
X0220026Y0082478D02*
X0206640Y0082478D01*
X0206640Y0082976D02*
X0220026Y0082976D01*
X0220026Y0083475D02*
X0206640Y0083475D01*
X0172192Y0118307D02*
X0165892Y0118307D01*
X0165892Y0131693D01*
X0172192Y0131693D01*
X0172192Y0118307D01*
X0172192Y0118370D02*
X0165892Y0118370D01*
X0165892Y0118869D02*
X0172192Y0118869D01*
X0172192Y0119368D02*
X0165892Y0119368D01*
X0165892Y0119866D02*
X0172192Y0119866D01*
X0172192Y0120365D02*
X0165892Y0120365D01*
X0165892Y0120863D02*
X0172192Y0120863D01*
X0172192Y0121362D02*
X0165892Y0121362D01*
X0165892Y0121860D02*
X0172192Y0121860D01*
X0172192Y0122359D02*
X0165892Y0122359D01*
X0165892Y0122857D02*
X0172192Y0122857D01*
X0172192Y0123356D02*
X0165892Y0123356D01*
X0165892Y0123854D02*
X0172192Y0123854D01*
X0172192Y0124353D02*
X0165892Y0124353D01*
X0165892Y0124851D02*
X0172192Y0124851D01*
X0172192Y0125350D02*
X0165892Y0125350D01*
X0165892Y0125848D02*
X0172192Y0125848D01*
X0172192Y0126347D02*
X0165892Y0126347D01*
X0165892Y0126845D02*
X0172192Y0126845D01*
X0172192Y0127344D02*
X0165892Y0127344D01*
X0165892Y0127842D02*
X0172192Y0127842D01*
X0172192Y0128341D02*
X0165892Y0128341D01*
X0165892Y0128839D02*
X0172192Y0128839D01*
X0172192Y0129338D02*
X0165892Y0129338D01*
X0165892Y0129836D02*
X0172192Y0129836D01*
X0172192Y0130335D02*
X0165892Y0130335D01*
X0165892Y0130833D02*
X0172192Y0130833D01*
X0172192Y0131332D02*
X0165892Y0131332D01*
X0208609Y0129087D02*
X0208609Y0120819D01*
X0218058Y0120819D01*
X0218058Y0129087D01*
X0208609Y0129087D01*
X0254475Y0128839D02*
X0260774Y0128839D01*
X0254475Y0128839D01*
X0254475Y0128341D02*
X0260774Y0128341D01*
X0254475Y0128341D01*
X0254475Y0127842D02*
X0260774Y0127842D01*
X0254475Y0127842D01*
X0254475Y0127344D02*
X0260774Y0127344D01*
X0254475Y0127344D01*
X0254475Y0126845D02*
X0260774Y0126845D01*
X0254475Y0126845D01*
X0254475Y0126347D02*
X0260774Y0126347D01*
X0254475Y0126347D01*
X0254475Y0125848D02*
X0260774Y0125848D01*
X0254475Y0125848D01*
X0254475Y0125350D02*
X0260774Y0125350D01*
X0254475Y0125350D01*
X0254475Y0124851D02*
X0260774Y0124851D01*
X0254475Y0124851D01*
X0254475Y0124353D02*
X0260774Y0124353D01*
X0254475Y0124353D01*
X0254475Y0123854D02*
X0260774Y0123854D01*
X0254475Y0123854D01*
X0254475Y0123356D02*
X0260774Y0123356D01*
X0254475Y0123356D01*
X0254475Y0122857D02*
X0260774Y0122857D01*
X0254475Y0122857D01*
X0254475Y0122359D02*
X0260774Y0122359D01*
X0254475Y0122359D01*
X0254475Y0121860D02*
X0260774Y0121860D01*
X0254475Y0121860D01*
X0254475Y0121362D02*
X0260774Y0121362D01*
X0254475Y0121362D01*
X0254475Y0120863D02*
X0260774Y0120863D01*
X0254475Y0120863D01*
X0254475Y0120365D02*
X0260774Y0120365D01*
X0254475Y0120365D01*
X0254475Y0119866D02*
X0260774Y0119866D01*
X0254475Y0119866D01*
X0254475Y0119368D02*
X0260774Y0119368D01*
X0254475Y0119368D01*
X0254475Y0118869D02*
X0260774Y0118869D01*
X0254475Y0118869D01*
X0254475Y0118370D02*
X0260774Y0118370D01*
X0254475Y0118370D01*
X0254475Y0118307D02*
X0260774Y0118307D01*
X0260774Y0131693D01*
X0254475Y0131693D01*
X0254475Y0118307D01*
X0260774Y0118307D01*
X0260774Y0131693D01*
X0254475Y0131693D01*
X0254475Y0118307D01*
X0254475Y0129338D02*
X0260774Y0129338D01*
X0254475Y0129338D01*
X0254475Y0129836D02*
X0260774Y0129836D01*
X0254475Y0129836D01*
X0254475Y0130335D02*
X0260774Y0130335D01*
X0254475Y0130335D01*
X0254475Y0130833D02*
X0260774Y0130833D01*
X0254475Y0130833D01*
X0254475Y0131332D02*
X0260774Y0131332D01*
X0254475Y0131332D01*
X0220026Y0166142D02*
X0206640Y0166142D01*
X0206640Y0172441D01*
X0220026Y0172441D01*
X0220026Y0166142D01*
X0220026Y0166228D02*
X0206640Y0166228D01*
X0206640Y0166726D02*
X0220026Y0166726D01*
X0220026Y0167225D02*
X0206640Y0167225D01*
X0206640Y0167723D02*
X0220026Y0167723D01*
X0220026Y0168222D02*
X0206640Y0168222D01*
X0206640Y0168720D02*
X0220026Y0168720D01*
X0220026Y0169219D02*
X0206640Y0169219D01*
X0206640Y0169717D02*
X0220026Y0169717D01*
X0220026Y0170216D02*
X0206640Y0170216D01*
X0206640Y0170714D02*
X0220026Y0170714D01*
X0220026Y0171213D02*
X0206640Y0171213D01*
X0206640Y0171711D02*
X0220026Y0171711D01*
X0220026Y0172210D02*
X0206640Y0172210D01*
M02*
