  0
SECTION
  2
HEADER
  9
$ACADVER
  1
AC1009
  9
$FILLMODE
 70
1
  9
$EXTMIN
 10
-1.0160
 20
-17.5260
 30
0.0000
  9
$EXTMAX
 10
215.0000
 20
248.4900
 30
0.0000
  0
ENDSEC
  0
SECTION
  2
TABLES
  0
TABLE
  2
LTYPE
 70
1
  0
LTYPE
  2
CONTINUOUS
 70
64
  3
Solid line
 72
65
 73
0
 40
0
  0
ENDTAB
  0
TABLE
  2
LAYER
 70
255
  0
LAYER
  2
1
 70
64
 62
14
  6
CONTINUOUS
  0
LAYER
  2
16
 70
64
 62
174
  6
CONTINUOUS
  0
LAYER
  2
17
 70
64
 62
94
  6
CONTINUOUS
  0
LAYER
  2
18
 70
64
 62
94
  6
CONTINUOUS
  0
LAYER
  2
19
 70
64
 62
54
  6
CONTINUOUS
  0
LAYER
  2
20
 70
64
 62
178
  6
CONTINUOUS
  0
LAYER
  2
21
 70
64
 62
250
  6
CONTINUOUS
  0
LAYER
  2
22
 70
64
 62
250
  6
CONTINUOUS
  0
LAYER
  2
23
 70
64
 62
178
  6
CONTINUOUS
  0
LAYER
  2
24
 70
64
 62
178
  6
CONTINUOUS
  0
LAYER
  2
25
 70
64
 62
250
  6
CONTINUOUS
  0
LAYER
  2
26
 70
64
 62
250
  6
CONTINUOUS
  0
LAYER
  2
27
 70
64
 62
250
  6
CONTINUOUS
  0
LAYER
  2
28
 70
64
 62
250
  6
CONTINUOUS
  0
LAYER
  2
39
 70
64
 62
14
  6
CONTINUOUS
  0
LAYER
  2
40
 70
64
 62
174
  6
CONTINUOUS
  0
LAYER
  2
41
 70
64
 62
14
  6
CONTINUOUS
  0
LAYER
  2
42
 70
64
 62
174
  6
CONTINUOUS
  0
LAYER
  2
43
 70
64
 62
94
  6
CONTINUOUS
  0
LAYER
  2
48
 70
64
 62
250
  6
CONTINUOUS
  0
LAYER
  2
49
 70
64
 62
250
  6
CONTINUOUS
  0
LAYER
  2
51
 70
64
 62
250
  6
CONTINUOUS
  0
LAYER
  2
52
 70
64
 62
250
  6
CONTINUOUS
  0
ENDTAB
  0
ENDSEC
  0
SECTION
  2
BLOCKS
  0
BLOCK
  8
0
  2
RECT
 70
64
 10
0.0000
 20
0.0000
 30
0.0000
  3
RECT
  0
SOLID
  8
0
 10
-0.5000
 20
-0.5000
 30
0.0000
 11
0.5000
 21
-0.5000
 31
0.0000
 12
-0.5000
 22
0.5000
 32
0.0000
 13
0.5000
 23
0.5000
 33
0.0000
  0
ENDBLK
  8
0
  0
BLOCK
  8
0
  2
PIE
 70
64
 10
0.0000
 20
0.0000
 30
0.0000
  3
PIE
  0
POLYLINE
  8
0
 66
1
 10
0.0000
 20
0.0000
 30
0.0000
 40
0.5000
 41
0.5000
 70
0
  0
VERTEX
  8
0
 10
0.0000
 20
-0.2500
 30
0.0000
 42
1.0000
  0
VERTEX
  8
0
 10
0.0000
 20
0.2500
 30
0.0000
 42
1.0000
  0
VERTEX
  8
0
 10
0.0000
 20
-0.2500
 30
0.0000
  0
SEQEND
  8
0
  0
ENDBLK
  8
0
  0
BLOCK
  8
0
  2
OCTAGONP
 70
64
 10
0.0000
 20
0.0000
 30
0.0000
  3
OCTAGONP
  0
POLYLINE
  8
0
 66
1
 10
0.0000
 20
0.0000
 30
0.0000
 40
0.5000
 41
0.5000
 70
0
  0
VERTEX
  8
0
 10
-0.2500
 20
-0.1036
 30
0.0000
  0
VERTEX
  8
0
 10
-0.2500
 20
0.1036
 30
0.0000
  0
VERTEX
  8
0
 10
-0.1036
 20
0.2500
 30
0.0000
  0
VERTEX
  8
0
 10
0.1036
 20
0.2500
 30
0.0000
  0
VERTEX
  8
0
 10
0.2500
 20
0.1036
 30
0.0000
  0
VERTEX
  8
0
 10
0.2500
 20
-0.1036
 30
0.0000
  0
VERTEX
  8
0
 10
0.1036
 20
-0.2500
 30
0.0000
  0
VERTEX
  8
0
 10
-0.1036
 20
-0.2500
 30
0.0000
  0
VERTEX
  8
0
 10
-0.2500
 20
-0.1036
 30
0.0000
  0
VERTEX
  8
0
 10
-0.2500
 20
0.1036
 30
0.0000
  0
SEQEND
  8
0
  0
ENDBLK
  8
0
  0
BLOCK
  8
0
  2
SQUAREP
 70
64
 10
0.0000
 20
0.0000
 30
0.0000
  3
SQUAREP
  0
SOLID
  8
0
 10
-0.5000
 20
-0.5000
 30
0.0000
 11
0.5000
 21
-0.5000
 31
0.0000
 12
-0.5000
 22
0.5000
 32
0.0000
 13
0.5000
 23
0.5000
 33
0.0000
  0
ENDBLK
  8
0
  0
BLOCK
  8
0
  2
ROUNDP
 70
64
 10
0.0000
 20
0.0000
 30
0.0000
  3
ROUNDP
  0
POLYLINE
  8
0
 66
1
 10
0.0000
 20
0.0000
 30
0.0000
 40
0.5000
 41
0.5000
 70
0
  0
VERTEX
  8
0
 10
0.0000
 20
-0.2500
 30
0.0000
 42
1.0000
  0
VERTEX
  8
0
 10
0.0000
 20
0.2500
 30
0.0000
 42
1.0000
  0
VERTEX
  8
0
 10
0.0000
 20
-0.2500
 30
0.0000
  0
SEQEND
  8
0
  0
ENDBLK
  8
0
  0
BLOCK
  8
0
  2
ANNULUSP
 70
64
 10
0.0000
 20
0.0000
 30
0.0000
  3
ANNULUSP
  0
POLYLINE
  8
0
 66
1
 10
0.0000
 20
0.0000
 30
0.0000
 40
0.5000
 41
0.5000
 70
0
  0
VERTEX
  8
0
 10
0.0000
 20
-0.2500
 30
0.0000
 42
1.0000
  0
VERTEX
  8
0
 10
0.0000
 20
0.2500
 30
0.0000
 42
1.0000
  0
VERTEX
  8
0
 10
0.0000
 20
-0.2500
 30
0.0000
  0
SEQEND
  8
0
  0
ENDBLK
  8
0
  0
BLOCK
  8
0
  2
THERMALP
 70
64
 10
0.0000
 20
0.0000
 30
0.0000
  3
THERMALP
  0
POLYLINE
  8
0
 66
1
 10
0.0000
 20
0.0000
 30
0.0000
 40
0.1000
 41
0.1000
 70
0
  0
VERTEX
  8
0
 10
-0.2379
 20
0.4500
 30
0.0000
  0
VERTEX
  8
0
 10
0.2379
 20
0.4500
 30
0.0000
  0
SEQEND
  8
0
  0
POLYLINE
  8
0
 66
1
 10
0.0000
 20
0.0000
 30
0.0000
 40
0.0500
 41
0.0500
 70
0
  0
VERTEX
  8
0
 10
0.2379
 20
0.4250
 30
0.0000
 42
1.0000
  0
VERTEX
  8
0
 10
0.2379
 20
0.4750
 30
0.0000
  0
SEQEND
  8
0
  0
POLYLINE
  8
0
 66
1
 10
0.0000
 20
0.0000
 30
0.0000
 40
0.0500
 41
0.0500
 70
0
  0
VERTEX
  8
0
 10
-0.2379
 20
0.4750
 30
0.0000
 42
1.0000
  0
VERTEX
  8
0
 10
-0.2379
 20
0.4250
 30
0.0000
  0
SEQEND
  8
0
  0
POLYLINE
  8
0
 66
1
 10
0.0000
 20
0.0000
 30
0.0000
 40
0.1000
 41
0.1000
 70
0
  0
VERTEX
  8
0
 10
0.4500
 20
0.2379
 30
0.0000
  0
VERTEX
  8
0
 10
0.4500
 20
-0.2379
 30
0.0000
  0
SEQEND
  8
0
  0
POLYLINE
  8
0
 66
1
 10
0.0000
 20
0.0000
 30
0.0000
 40
0.0500
 41
0.0500
 70
0
  0
VERTEX
  8
0
 10
0.4250
 20
-0.2379
 30
0.0000
 42
1.0000
  0
VERTEX
  8
0
 10
0.4750
 20
-0.2379
 30
0.0000
  0
SEQEND
  8
0
  0
POLYLINE
  8
0
 66
1
 10
0.0000
 20
0.0000
 30
0.0000
 40
0.0500
 41
0.0500
 70
0
  0
VERTEX
  8
0
 10
0.4750
 20
0.2379
 30
0.0000
 42
1.0000
  0
VERTEX
  8
0
 10
0.4250
 20
0.2379
 30
0.0000
  0
SEQEND
  8
0
  0
POLYLINE
  8
0
 66
1
 10
0.0000
 20
0.0000
 30
0.0000
 40
0.1000
 41
0.1000
 70
0
  0
VERTEX
  8
0
 10
0.2379
 20
-0.4500
 30
0.0000
  0
VERTEX
  8
0
 10
-0.2379
 20
-0.4500
 30
0.0000
  0
SEQEND
  8
0
  0
POLYLINE
  8
0
 66
1
 10
0.0000
 20
0.0000
 30
0.0000
 40
0.0500
 41
0.0500
 70
0
  0
VERTEX
  8
0
 10
-0.2379
 20
-0.4250
 30
0.0000
 42
1.0000
  0
VERTEX
  8
0
 10
-0.2379
 20
-0.4750
 30
0.0000
  0
SEQEND
  8
0
  0
POLYLINE
  8
0
 66
1
 10
0.0000
 20
0.0000
 30
0.0000
 40
0.0500
 41
0.0500
 70
0
  0
VERTEX
  8
0
 10
0.2379
 20
-0.4750
 30
0.0000
 42
1.0000
  0
VERTEX
  8
0
 10
0.2379
 20
-0.4250
 30
0.0000
  0
SEQEND
  8
0
  0
POLYLINE
  8
0
 66
1
 10
0.0000
 20
0.0000
 30
0.0000
 40
0.1000
 41
0.1000
 70
0
  0
VERTEX
  8
0
 10
-0.4500
 20
-0.2379
 30
0.0000
  0
VERTEX
  8
0
 10
-0.4500
 20
0.2379
 30
0.0000
  0
SEQEND
  8
0
  0
POLYLINE
  8
0
 66
1
 10
0.0000
 20
0.0000
 30
0.0000
 40
0.0500
 41
0.0500
 70
0
  0
VERTEX
  8
0
 10
-0.4250
 20
0.2379
 30
0.0000
 42
1.0000
  0
VERTEX
  8
0
 10
-0.4750
 20
0.2379
 30
0.0000
  0
SEQEND
  8
0
  0
POLYLINE
  8
0
 66
1
 10
0.0000
 20
0.0000
 30
0.0000
 40
0.0500
 41
0.0500
 70
0
  0
VERTEX
  8
0
 10
-0.4750
 20
-0.2379
 30
0.0000
 42
1.0000
  0
VERTEX
  8
0
 10
-0.4250
 20
-0.2379
 30
0.0000
  0
SEQEND
  8
0
  0
ENDBLK
  8
0
  0
BLOCK
  8
0
  2
OCTAGONV
 70
64
 10
0.0000
 20
0.0000
 30
0.0000
  3
OCTAGONV
  0
POLYLINE
  8
0
 66
1
 10
0.0000
 20
0.0000
 30
0.0000
 40
0.5000
 41
0.5000
 70
0
  0
VERTEX
  8
0
 10
-0.2500
 20
-0.1036
 30
0.0000
  0
VERTEX
  8
0
 10
-0.2500
 20
0.1036
 30
0.0000
  0
VERTEX
  8
0
 10
-0.1036
 20
0.2500
 30
0.0000
  0
VERTEX
  8
0
 10
0.1036
 20
0.2500
 30
0.0000
  0
VERTEX
  8
0
 10
0.2500
 20
0.1036
 30
0.0000
  0
VERTEX
  8
0
 10
0.2500
 20
-0.1036
 30
0.0000
  0
VERTEX
  8
0
 10
0.1036
 20
-0.2500
 30
0.0000
  0
VERTEX
  8
0
 10
-0.1036
 20
-0.2500
 30
0.0000
  0
VERTEX
  8
0
 10
-0.2500
 20
-0.1036
 30
0.0000
  0
VERTEX
  8
0
 10
-0.2500
 20
0.1036
 30
0.0000
  0
SEQEND
  8
0
  0
ENDBLK
  8
0
  0
BLOCK
  8
0
  2
SQUAREV
 70
64
 10
0.0000
 20
0.0000
 30
0.0000
  3
SQUAREV
  0
SOLID
  8
0
 10
-0.5000
 20
-0.5000
 30
0.0000
 11
0.5000
 21
-0.5000
 31
0.0000
 12
-0.5000
 22
0.5000
 32
0.0000
 13
0.5000
 23
0.5000
 33
0.0000
  0
ENDBLK
  8
0
  0
BLOCK
  8
0
  2
ROUNDV
 70
64
 10
0.0000
 20
0.0000
 30
0.0000
  3
ROUNDV
  0
POLYLINE
  8
0
 66
1
 10
0.0000
 20
0.0000
 30
0.0000
 40
0.5000
 41
0.5000
 70
0
  0
VERTEX
  8
0
 10
0.0000
 20
-0.2500
 30
0.0000
 42
1.0000
  0
VERTEX
  8
0
 10
0.0000
 20
0.2500
 30
0.0000
 42
1.0000
  0
VERTEX
  8
0
 10
0.0000
 20
-0.2500
 30
0.0000
  0
SEQEND
  8
0
  0
ENDBLK
  8
0
  0
BLOCK
  8
0
  2
ANNULUSV
 70
64
 10
0.0000
 20
0.0000
 30
0.0000
  3
ANNULUSV
  0
POLYLINE
  8
0
 66
1
 10
0.0000
 20
0.0000
 30
0.0000
 40
0.5000
 41
0.5000
 70
0
  0
VERTEX
  8
0
 10
0.0000
 20
-0.2500
 30
0.0000
 42
1.0000
  0
VERTEX
  8
0
 10
0.0000
 20
0.2500
 30
0.0000
 42
1.0000
  0
VERTEX
  8
0
 10
0.0000
 20
-0.2500
 30
0.0000
  0
SEQEND
  8
0
  0
ENDBLK
  8
0
  0
BLOCK
  8
0
  2
THERMALV
 70
64
 10
0.0000
 20
0.0000
 30
0.0000
  3
THERMALV
  0
POLYLINE
  8
0
 66
1
 10
0.0000
 20
0.0000
 30
0.0000
 40
0.1000
 41
0.1000
 70
0
  0
VERTEX
  8
0
 10
-0.2379
 20
0.4500
 30
0.0000
  0
VERTEX
  8
0
 10
0.2379
 20
0.4500
 30
0.0000
  0
SEQEND
  8
0
  0
POLYLINE
  8
0
 66
1
 10
0.0000
 20
0.0000
 30
0.0000
 40
0.0500
 41
0.0500
 70
0
  0
VERTEX
  8
0
 10
0.2379
 20
0.4250
 30
0.0000
 42
1.0000
  0
VERTEX
  8
0
 10
0.2379
 20
0.4750
 30
0.0000
  0
SEQEND
  8
0
  0
POLYLINE
  8
0
 66
1
 10
0.0000
 20
0.0000
 30
0.0000
 40
0.0500
 41
0.0500
 70
0
  0
VERTEX
  8
0
 10
-0.2379
 20
0.4750
 30
0.0000
 42
1.0000
  0
VERTEX
  8
0
 10
-0.2379
 20
0.4250
 30
0.0000
  0
SEQEND
  8
0
  0
POLYLINE
  8
0
 66
1
 10
0.0000
 20
0.0000
 30
0.0000
 40
0.1000
 41
0.1000
 70
0
  0
VERTEX
  8
0
 10
0.4500
 20
0.2379
 30
0.0000
  0
VERTEX
  8
0
 10
0.4500
 20
-0.2379
 30
0.0000
  0
SEQEND
  8
0
  0
POLYLINE
  8
0
 66
1
 10
0.0000
 20
0.0000
 30
0.0000
 40
0.0500
 41
0.0500
 70
0
  0
VERTEX
  8
0
 10
0.4250
 20
-0.2379
 30
0.0000
 42
1.0000
  0
VERTEX
  8
0
 10
0.4750
 20
-0.2379
 30
0.0000
  0
SEQEND
  8
0
  0
POLYLINE
  8
0
 66
1
 10
0.0000
 20
0.0000
 30
0.0000
 40
0.0500
 41
0.0500
 70
0
  0
VERTEX
  8
0
 10
0.4750
 20
0.2379
 30
0.0000
 42
1.0000
  0
VERTEX
  8
0
 10
0.4250
 20
0.2379
 30
0.0000
  0
SEQEND
  8
0
  0
POLYLINE
  8
0
 66
1
 10
0.0000
 20
0.0000
 30
0.0000
 40
0.1000
 41
0.1000
 70
0
  0
VERTEX
  8
0
 10
0.2379
 20
-0.4500
 30
0.0000
  0
VERTEX
  8
0
 10
-0.2379
 20
-0.4500
 30
0.0000
  0
SEQEND
  8
0
  0
POLYLINE
  8
0
 66
1
 10
0.0000
 20
0.0000
 30
0.0000
 40
0.0500
 41
0.0500
 70
0
  0
VERTEX
  8
0
 10
-0.2379
 20
-0.4250
 30
0.0000
 42
1.0000
  0
VERTEX
  8
0
 10
-0.2379
 20
-0.4750
 30
0.0000
  0
SEQEND
  8
0
  0
POLYLINE
  8
0
 66
1
 10
0.0000
 20
0.0000
 30
0.0000
 40
0.0500
 41
0.0500
 70
0
  0
VERTEX
  8
0
 10
0.2379
 20
-0.4750
 30
0.0000
 42
1.0000
  0
VERTEX
  8
0
 10
0.2379
 20
-0.4250
 30
0.0000
  0
SEQEND
  8
0
  0
POLYLINE
  8
0
 66
1
 10
0.0000
 20
0.0000
 30
0.0000
 40
0.1000
 41
0.1000
 70
0
  0
VERTEX
  8
0
 10
-0.4500
 20
-0.2379
 30
0.0000
  0
VERTEX
  8
0
 10
-0.4500
 20
0.2379
 30
0.0000
  0
SEQEND
  8
0
  0
POLYLINE
  8
0
 66
1
 10
0.0000
 20
0.0000
 30
0.0000
 40
0.0500
 41
0.0500
 70
0
  0
VERTEX
  8
0
 10
-0.4250
 20
0.2379
 30
0.0000
 42
1.0000
  0
VERTEX
  8
0
 10
-0.4750
 20
0.2379
 30
0.0000
  0
SEQEND
  8
0
  0
POLYLINE
  8
0
 66
1
 10
0.0000
 20
0.0000
 30
0.0000
 40
0.0500
 41
0.0500
 70
0
  0
VERTEX
  8
0
 10
-0.4750
 20
-0.2379
 30
0.0000
 42
1.0000
  0
VERTEX
  8
0
 10
-0.4250
 20
-0.2379
 30
0.0000
  0
SEQEND
  8
0
  0
ENDBLK
  8
0
  0
ENDSEC
  0
SECTION
  2
ENTITIES
  0
POINT
  8
23
 10
0.0000
 20
-16.5100
 30
0.0000
  0
LINE
  8
1
 10
32.5000
 20
-16.5100
 30
0.0000
 11
182.5000
 21
-16.5100
 31
0.0000
  0
LINE
  8
1
 10
215.0000
 20
3.4900
 30
0.0000
 11
215.0000
 21
228.4900
 31
0.0000
  0
LINE
  8
1
 10
182.5000
 20
248.4900
 30
0.0000
 11
32.5000
 21
248.4900
 31
0.0000
  0
LINE
  8
1
 10
0.0000
 20
228.4900
 30
0.0000
 11
0.0000
 21
3.4900
 31
0.0000
  0
LINE
  8
1
 10
32.5000
 20
-16.5100
 30
0.0000
 11
32.5000
 21
3.4900
 31
0.0000
  0
LINE
  8
1
 10
182.5000
 20
-16.5100
 30
0.0000
 11
182.5000
 21
3.4900
 31
0.0000
  0
LINE
  8
1
 10
0.0000
 20
3.4900
 30
0.0000
 11
32.5000
 21
3.4900
 31
0.0000
  0
LINE
  8
1
 10
182.5000
 20
3.4900
 30
0.0000
 11
215.0000
 21
3.4900
 31
0.0000
  0
LINE
  8
1
 10
32.5000
 20
248.4900
 30
0.0000
 11
32.5000
 21
228.4900
 31
0.0000
  0
LINE
  8
1
 10
32.5000
 20
228.4900
 30
0.0000
 11
0.0000
 21
228.4900
 31
0.0000
  0
LINE
  8
1
 10
182.5000
 20
248.4900
 30
0.0000
 11
182.5000
 21
228.4900
 31
0.0000
  0
LINE
  8
1
 10
182.5000
 20
228.4900
 30
0.0000
 11
215.0000
 21
228.4900
 31
0.0000
  0
POLYLINE
  8
1
 66
1
 10
0.0000
 20
0.0000
 30
0.0000
 40
0.1270
 41
0.1270
 70
0
  0
VERTEX
  8
1
 10
37.0430
 20
196.0450
 30
0.0000
  0
VERTEX
  8
1
 10
97.0430
 20
196.0450
 30
0.0000
  0
SEQEND
  8
0
  0
POLYLINE
  8
1
 66
1
 10
0.0000
 20
0.0000
 30
0.0000
 40
0.0635
 41
0.0635
 70
0
  0
VERTEX
  8
1
 10
97.0430
 20
196.0133
 30
0.0000
 42
1.0000
  0
VERTEX
  8
1
 10
97.0430
 20
196.0768
 30
0.0000
  0
SEQEND
  8
0
  0
POLYLINE
  8
1
 66
1
 10
0.0000
 20
0.0000
 30
0.0000
 40
0.0635
 41
0.0635
 70
0
  0
VERTEX
  8
1
 10
37.0430
 20
196.0768
 30
0.0000
 42
1.0000
  0
VERTEX
  8
1
 10
37.0430
 20
196.0133
 30
0.0000
  0
SEQEND
  8
0
  0
POLYLINE
  8
1
 66
1
 10
0.0000
 20
0.0000
 30
0.0000
 40
0.1270
 41
0.1270
 70
0
  0
VERTEX
  8
1
 10
97.0430
 20
196.0450
 30
0.0000
  0
VERTEX
  8
1
 10
97.0430
 20
126.0450
 30
0.0000
  0
SEQEND
  8
0
  0
POLYLINE
  8
1
 66
1
 10
0.0000
 20
0.0000
 30
0.0000
 40
0.0635
 41
0.0635
 70
0
  0
VERTEX
  8
1
 10
97.0113
 20
126.0450
 30
0.0000
 42
1.0000
  0
VERTEX
  8
1
 10
97.0748
 20
126.0450
 30
0.0000
  0
SEQEND
  8
0
  0
POLYLINE
  8
1
 66
1
 10
0.0000
 20
0.0000
 30
0.0000
 40
0.0635
 41
0.0635
 70
0
  0
VERTEX
  8
1
 10
97.0748
 20
196.0450
 30
0.0000
 42
1.0000
  0
VERTEX
  8
1
 10
97.0113
 20
196.0450
 30
0.0000
  0
SEQEND
  8
0
  0
POLYLINE
  8
1
 66
1
 10
0.0000
 20
0.0000
 30
0.0000
 40
0.1270
 41
0.1270
 70
0
  0
VERTEX
  8
1
 10
97.0430
 20
126.0450
 30
0.0000
  0
VERTEX
  8
1
 10
37.0430
 20
126.0450
 30
0.0000
  0
SEQEND
  8
0
  0
POLYLINE
  8
1
 66
1
 10
0.0000
 20
0.0000
 30
0.0000
 40
0.0635
 41
0.0635
 70
0
  0
VERTEX
  8
1
 10
37.0430
 20
126.0768
 30
0.0000
 42
1.0000
  0
VERTEX
  8
1
 10
37.0430
 20
126.0132
 30
0.0000
  0
SEQEND
  8
0
  0
POLYLINE
  8
1
 66
1
 10
0.0000
 20
0.0000
 30
0.0000
 40
0.0635
 41
0.0635
 70
0
  0
VERTEX
  8
1
 10
97.0430
 20
126.0132
 30
0.0000
 42
1.0000
  0
VERTEX
  8
1
 10
97.0430
 20
126.0768
 30
0.0000
  0
SEQEND
  8
0
  0
POLYLINE
  8
1
 66
1
 10
0.0000
 20
0.0000
 30
0.0000
 40
0.1270
 41
0.1270
 70
0
  0
VERTEX
  8
1
 10
37.0430
 20
126.0450
 30
0.0000
  0
VERTEX
  8
1
 10
37.0430
 20
196.0450
 30
0.0000
  0
SEQEND
  8
0
  0
POLYLINE
  8
1
 66
1
 10
0.0000
 20
0.0000
 30
0.0000
 40
0.0635
 41
0.0635
 70
0
  0
VERTEX
  8
1
 10
37.0748
 20
196.0450
 30
0.0000
 42
1.0000
  0
VERTEX
  8
1
 10
37.0112
 20
196.0450
 30
0.0000
  0
SEQEND
  8
0
  0
POLYLINE
  8
1
 66
1
 10
0.0000
 20
0.0000
 30
0.0000
 40
0.0635
 41
0.0635
 70
0
  0
VERTEX
  8
1
 10
37.0112
 20
126.0450
 30
0.0000
 42
1.0000
  0
VERTEX
  8
1
 10
37.0748
 20
126.0450
 30
0.0000
  0
SEQEND
  8
0
  0
POLYLINE
  8
1
 66
1
 10
0.0000
 20
0.0000
 30
0.0000
 40
0.1270
 41
0.1270
 70
0
  0
VERTEX
  8
1
 10
22.2800
 20
181.9100
 30
0.0000
 42
1.0000
  0
VERTEX
  8
1
 10
22.2800
 20
185.1100
 30
0.0000
 42
1.0000
  0
VERTEX
  8
1
 10
22.2800
 20
181.9100
 30
0.0000
  0
SEQEND
  8
0
  0
POLYLINE
  8
1
 66
1
 10
0.0000
 20
0.0000
 30
0.0000
 40
0.1270
 41
0.1270
 70
0
  0
VERTEX
  8
1
 10
22.2800
 20
139.9100
 30
0.0000
 42
1.0000
  0
VERTEX
  8
1
 10
22.2800
 20
143.1100
 30
0.0000
 42
1.0000
  0
VERTEX
  8
1
 10
22.2800
 20
139.9100
 30
0.0000
  0
SEQEND
  8
0
  0
POLYLINE
  8
1
 66
1
 10
0.0000
 20
0.0000
 30
0.0000
 40
0.1270
 41
0.1270
 70
0
  0
VERTEX
  8
1
 10
115.1800
 20
181.9100
 30
0.0000
 42
1.0000
  0
VERTEX
  8
1
 10
115.1800
 20
185.1100
 30
0.0000
 42
1.0000
  0
VERTEX
  8
1
 10
115.1800
 20
181.9100
 30
0.0000
  0
SEQEND
  8
0
  0
POLYLINE
  8
1
 66
1
 10
0.0000
 20
0.0000
 30
0.0000
 40
0.1270
 41
0.1270
 70
0
  0
VERTEX
  8
1
 10
115.1800
 20
139.9100
 30
0.0000
 42
1.0000
  0
VERTEX
  8
1
 10
115.1800
 20
143.1100
 30
0.0000
 42
1.0000
  0
VERTEX
  8
1
 10
115.1800
 20
139.9100
 30
0.0000
  0
SEQEND
  8
0
  0
POLYLINE
  8
1
 66
1
 10
0.0000
 20
0.0000
 30
0.0000
 40
0.1270
 41
0.1270
 70
0
  0
VERTEX
  8
1
 10
33.1900
 20
10.9800
 30
0.0000
 42
1.0000
  0
VERTEX
  8
1
 10
33.1900
 20
14.0800
 30
0.0000
 42
1.0000
  0
VERTEX
  8
1
 10
33.1900
 20
10.9800
 30
0.0000
  0
SEQEND
  8
0
  0
POLYLINE
  8
1
 66
1
 10
0.0000
 20
0.0000
 30
0.0000
 40
0.1270
 41
0.1270
 70
0
  0
VERTEX
  8
1
 10
150.1000
 20
14.7400
 30
0.0000
 42
1.0000
  0
VERTEX
  8
1
 10
150.1000
 20
17.8400
 30
0.0000
 42
1.0000
  0
VERTEX
  8
1
 10
150.1000
 20
14.7400
 30
0.0000
  0
SEQEND
  8
0
  0
POLYLINE
  8
1
 66
1
 10
0.0000
 20
0.0000
 30
0.0000
 40
0.1270
 41
0.1270
 70
0
  0
VERTEX
  8
1
 10
150.1000
 20
30.5700
 30
0.0000
 42
1.0000
  0
VERTEX
  8
1
 10
150.1000
 20
33.6700
 30
0.0000
 42
1.0000
  0
VERTEX
  8
1
 10
150.1000
 20
30.5700
 30
0.0000
  0
SEQEND
  8
0
  0
POLYLINE
  8
1
 66
1
 10
0.0000
 20
0.0000
 30
0.0000
 40
0.1270
 41
0.1270
 70
0
  0
VERTEX
  8
1
 10
33.1900
 20
68.8600
 30
0.0000
 42
1.0000
  0
VERTEX
  8
1
 10
33.1900
 20
71.9600
 30
0.0000
 42
1.0000
  0
VERTEX
  8
1
 10
33.1900
 20
68.8600
 30
0.0000
  0
SEQEND
  8
0
  0
POLYLINE
  8
1
 66
1
 10
0.0000
 20
0.0000
 30
0.0000
 40
0.1270
 41
0.1270
 70
0
  0
VERTEX
  8
1
 10
25.0000
 20
11.4900
 30
0.0000
 42
1.0000
  0
VERTEX
  8
1
 10
25.0000
 20
15.4900
 30
0.0000
 42
1.0000
  0
VERTEX
  8
1
 10
25.0000
 20
11.4900
 30
0.0000
  0
SEQEND
  8
0
  0
POLYLINE
  8
1
 66
1
 10
0.0000
 20
0.0000
 30
0.0000
 40
0.1270
 41
0.1270
 70
0
  0
VERTEX
  8
1
 10
15.0000
 20
21.4900
 30
0.0000
 42
1.0000
  0
VERTEX
  8
1
 10
15.0000
 20
25.4900
 30
0.0000
 42
1.0000
  0
VERTEX
  8
1
 10
15.0000
 20
21.4900
 30
0.0000
  0
SEQEND
  8
0
  0
POLYLINE
  8
1
 66
1
 10
0.0000
 20
0.0000
 30
0.0000
 40
0.1270
 41
0.1270
 70
0
  0
VERTEX
  8
1
 10
15.0000
 20
41.4900
 30
0.0000
 42
1.0000
  0
VERTEX
  8
1
 10
15.0000
 20
45.4900
 30
0.0000
 42
1.0000
  0
VERTEX
  8
1
 10
15.0000
 20
41.4900
 30
0.0000
  0
SEQEND
  8
0
  0
POLYLINE
  8
1
 66
1
 10
0.0000
 20
0.0000
 30
0.0000
 40
0.1270
 41
0.1270
 70
0
  0
VERTEX
  8
1
 10
15.0000
 20
61.4900
 30
0.0000
 42
1.0000
  0
VERTEX
  8
1
 10
15.0000
 20
65.4900
 30
0.0000
 42
1.0000
  0
VERTEX
  8
1
 10
15.0000
 20
61.4900
 30
0.0000
  0
SEQEND
  8
0
  0
POLYLINE
  8
1
 66
1
 10
0.0000
 20
0.0000
 30
0.0000
 40
0.1270
 41
0.1270
 70
0
  0
VERTEX
  8
1
 10
15.0000
 20
81.4900
 30
0.0000
 42
1.0000
  0
VERTEX
  8
1
 10
15.0000
 20
85.4900
 30
0.0000
 42
1.0000
  0
VERTEX
  8
1
 10
15.0000
 20
81.4900
 30
0.0000
  0
SEQEND
  8
0
  0
POLYLINE
  8
1
 66
1
 10
0.0000
 20
0.0000
 30
0.0000
 40
0.1270
 41
0.1270
 70
0
  0
VERTEX
  8
1
 10
15.0000
 20
101.4900
 30
0.0000
 42
1.0000
  0
VERTEX
  8
1
 10
15.0000
 20
105.4900
 30
0.0000
 42
1.0000
  0
VERTEX
  8
1
 10
15.0000
 20
101.4900
 30
0.0000
  0
SEQEND
  8
0
  0
POLYLINE
  8
1
 66
1
 10
0.0000
 20
0.0000
 30
0.0000
 40
0.1270
 41
0.1270
 70
0
  0
VERTEX
  8
1
 10
15.0000
 20
121.4900
 30
0.0000
 42
1.0000
  0
VERTEX
  8
1
 10
15.0000
 20
125.4900
 30
0.0000
 42
1.0000
  0
VERTEX
  8
1
 10
15.0000
 20
121.4900
 30
0.0000
  0
SEQEND
  8
0
  0
POLYLINE
  8
1
 66
1
 10
0.0000
 20
0.0000
 30
0.0000
 40
0.1270
 41
0.1270
 70
0
  0
VERTEX
  8
1
 10
15.0000
 20
141.4900
 30
0.0000
 42
1.0000
  0
VERTEX
  8
1
 10
15.0000
 20
145.4900
 30
0.0000
 42
1.0000
  0
VERTEX
  8
1
 10
15.0000
 20
141.4900
 30
0.0000
  0
SEQEND
  8
0
  0
POLYLINE
  8
1
 66
1
 10
0.0000
 20
0.0000
 30
0.0000
 40
0.1270
 41
0.1270
 70
0
  0
VERTEX
  8
1
 10
15.0000
 20
161.4900
 30
0.0000
 42
1.0000
  0
VERTEX
  8
1
 10
15.0000
 20
165.4900
 30
0.0000
 42
1.0000
  0
VERTEX
  8
1
 10
15.0000
 20
161.4900
 30
0.0000
  0
SEQEND
  8
0
  0
POLYLINE
  8
1
 66
1
 10
0.0000
 20
0.0000
 30
0.0000
 40
0.1270
 41
0.1270
 70
0
  0
VERTEX
  8
1
 10
15.0000
 20
181.4900
 30
0.0000
 42
1.0000
  0
VERTEX
  8
1
 10
15.0000
 20
185.4900
 30
0.0000
 42
1.0000
  0
VERTEX
  8
1
 10
15.0000
 20
181.4900
 30
0.0000
  0
SEQEND
  8
0
  0
POLYLINE
  8
1
 66
1
 10
0.0000
 20
0.0000
 30
0.0000
 40
0.1270
 41
0.1270
 70
0
  0
VERTEX
  8
1
 10
15.0000
 20
201.4900
 30
0.0000
 42
1.0000
  0
VERTEX
  8
1
 10
15.0000
 20
205.4900
 30
0.0000
 42
1.0000
  0
VERTEX
  8
1
 10
15.0000
 20
201.4900
 30
0.0000
  0
SEQEND
  8
0
  0
POLYLINE
  8
1
 66
1
 10
0.0000
 20
0.0000
 30
0.0000
 40
0.1270
 41
0.1270
 70
0
  0
VERTEX
  8
1
 10
15.0000
 20
221.4900
 30
0.0000
 42
1.0000
  0
VERTEX
  8
1
 10
15.0000
 20
225.4900
 30
0.0000
 42
1.0000
  0
VERTEX
  8
1
 10
15.0000
 20
221.4900
 30
0.0000
  0
SEQEND
  8
0
  0
POLYLINE
  8
1
 66
1
 10
0.0000
 20
0.0000
 30
0.0000
 40
0.1270
 41
0.1270
 70
0
  0
VERTEX
  8
1
 10
25.0000
 20
31.4900
 30
0.0000
 42
1.0000
  0
VERTEX
  8
1
 10
25.0000
 20
35.4900
 30
0.0000
 42
1.0000
  0
VERTEX
  8
1
 10
25.0000
 20
31.4900
 30
0.0000
  0
SEQEND
  8
0
  0
POLYLINE
  8
1
 66
1
 10
0.0000
 20
0.0000
 30
0.0000
 40
0.1270
 41
0.1270
 70
0
  0
VERTEX
  8
1
 10
25.0000
 20
51.4900
 30
0.0000
 42
1.0000
  0
VERTEX
  8
1
 10
25.0000
 20
55.4900
 30
0.0000
 42
1.0000
  0
VERTEX
  8
1
 10
25.0000
 20
51.4900
 30
0.0000
  0
SEQEND
  8
0
  0
POLYLINE
  8
1
 66
1
 10
0.0000
 20
0.0000
 30
0.0000
 40
0.1270
 41
0.1270
 70
0
  0
VERTEX
  8
1
 10
25.0000
 20
71.4900
 30
0.0000
 42
1.0000
  0
VERTEX
  8
1
 10
25.0000
 20
75.4900
 30
0.0000
 42
1.0000
  0
VERTEX
  8
1
 10
25.0000
 20
71.4900
 30
0.0000
  0
SEQEND
  8
0
  0
POLYLINE
  8
1
 66
1
 10
0.0000
 20
0.0000
 30
0.0000
 40
0.1270
 41
0.1270
 70
0
  0
VERTEX
  8
1
 10
25.0000
 20
91.4900
 30
0.0000
 42
1.0000
  0
VERTEX
  8
1
 10
25.0000
 20
95.4900
 30
0.0000
 42
1.0000
  0
VERTEX
  8
1
 10
25.0000
 20
91.4900
 30
0.0000
  0
SEQEND
  8
0
  0
POLYLINE
  8
1
 66
1
 10
0.0000
 20
0.0000
 30
0.0000
 40
0.1270
 41
0.1270
 70
0
  0
VERTEX
  8
1
 10
25.0000
 20
111.4900
 30
0.0000
 42
1.0000
  0
VERTEX
  8
1
 10
25.0000
 20
115.4900
 30
0.0000
 42
1.0000
  0
VERTEX
  8
1
 10
25.0000
 20
111.4900
 30
0.0000
  0
SEQEND
  8
0
  0
POLYLINE
  8
1
 66
1
 10
0.0000
 20
0.0000
 30
0.0000
 40
0.1270
 41
0.1270
 70
0
  0
VERTEX
  8
1
 10
25.0000
 20
131.4900
 30
0.0000
 42
1.0000
  0
VERTEX
  8
1
 10
25.0000
 20
135.4900
 30
0.0000
 42
1.0000
  0
VERTEX
  8
1
 10
25.0000
 20
131.4900
 30
0.0000
  0
SEQEND
  8
0
  0
POLYLINE
  8
1
 66
1
 10
0.0000
 20
0.0000
 30
0.0000
 40
0.1270
 41
0.1270
 70
0
  0
VERTEX
  8
1
 10
25.0000
 20
151.4900
 30
0.0000
 42
1.0000
  0
VERTEX
  8
1
 10
25.0000
 20
155.4900
 30
0.0000
 42
1.0000
  0
VERTEX
  8
1
 10
25.0000
 20
151.4900
 30
0.0000
  0
SEQEND
  8
0
  0
POLYLINE
  8
1
 66
1
 10
0.0000
 20
0.0000
 30
0.0000
 40
0.1270
 41
0.1270
 70
0
  0
VERTEX
  8
1
 10
25.0000
 20
171.4900
 30
0.0000
 42
1.0000
  0
VERTEX
  8
1
 10
25.0000
 20
175.4900
 30
0.0000
 42
1.0000
  0
VERTEX
  8
1
 10
25.0000
 20
171.4900
 30
0.0000
  0
SEQEND
  8
0
  0
POLYLINE
  8
1
 66
1
 10
0.0000
 20
0.0000
 30
0.0000
 40
0.1270
 41
0.1270
 70
0
  0
VERTEX
  8
1
 10
25.0000
 20
191.4900
 30
0.0000
 42
1.0000
  0
VERTEX
  8
1
 10
25.0000
 20
195.4900
 30
0.0000
 42
1.0000
  0
VERTEX
  8
1
 10
25.0000
 20
191.4900
 30
0.0000
  0
SEQEND
  8
0
  0
POLYLINE
  8
1
 66
1
 10
0.0000
 20
0.0000
 30
0.0000
 40
0.1270
 41
0.1270
 70
0
  0
VERTEX
  8
1
 10
25.0000
 20
211.4900
 30
0.0000
 42
1.0000
  0
VERTEX
  8
1
 10
25.0000
 20
215.4900
 30
0.0000
 42
1.0000
  0
VERTEX
  8
1
 10
25.0000
 20
211.4900
 30
0.0000
  0
SEQEND
  8
0
  0
POLYLINE
  8
1
 66
1
 10
0.0000
 20
0.0000
 30
0.0000
 40
0.1270
 41
0.1270
 70
0
  0
VERTEX
  8
1
 10
5.0000
 20
51.4900
 30
0.0000
 42
1.0000
  0
VERTEX
  8
1
 10
5.0000
 20
55.4900
 30
0.0000
 42
1.0000
  0
VERTEX
  8
1
 10
5.0000
 20
51.4900
 30
0.0000
  0
SEQEND
  8
0
  0
POLYLINE
  8
1
 66
1
 10
0.0000
 20
0.0000
 30
0.0000
 40
0.1270
 41
0.1270
 70
0
  0
VERTEX
  8
1
 10
5.0000
 20
113.9900
 30
0.0000
 42
1.0000
  0
VERTEX
  8
1
 10
5.0000
 20
117.9900
 30
0.0000
 42
1.0000
  0
VERTEX
  8
1
 10
5.0000
 20
113.9900
 30
0.0000
  0
SEQEND
  8
0
  0
POLYLINE
  8
1
 66
1
 10
0.0000
 20
0.0000
 30
0.0000
 40
0.1270
 41
0.1270
 70
0
  0
VERTEX
  8
1
 10
5.0000
 20
176.4900
 30
0.0000
 42
1.0000
  0
VERTEX
  8
1
 10
5.0000
 20
180.4900
 30
0.0000
 42
1.0000
  0
VERTEX
  8
1
 10
5.0000
 20
176.4900
 30
0.0000
  0
SEQEND
  8
0
  0
POLYLINE
  8
1
 66
1
 10
0.0000
 20
0.0000
 30
0.0000
 40
0.1270
 41
0.1270
 70
0
  0
VERTEX
  8
1
 10
38.5000
 20
-13.7600
 30
0.0000
 42
1.0000
  0
VERTEX
  8
1
 10
38.5000
 20
-9.2600
 30
0.0000
 42
1.0000
  0
VERTEX
  8
1
 10
38.5000
 20
-13.7600
 30
0.0000
  0
SEQEND
  8
0
  0
POLYLINE
  8
1
 66
1
 10
0.0000
 20
0.0000
 30
0.0000
 40
0.1270
 41
0.1270
 70
0
  0
VERTEX
  8
1
 10
176.5000
 20
-13.7600
 30
0.0000
 42
1.0000
  0
VERTEX
  8
1
 10
176.5000
 20
-9.2600
 30
0.0000
 42
1.0000
  0
VERTEX
  8
1
 10
176.5000
 20
-13.7600
 30
0.0000
  0
SEQEND
  8
0
  0
POLYLINE
  8
1
 66
1
 10
0.0000
 20
0.0000
 30
0.0000
 40
0.1270
 41
0.1270
 70
0
  0
VERTEX
  8
1
 10
210.0000
 20
51.4900
 30
0.0000
 42
1.0000
  0
VERTEX
  8
1
 10
210.0000
 20
55.4900
 30
0.0000
 42
1.0000
  0
VERTEX
  8
1
 10
210.0000
 20
51.4900
 30
0.0000
  0
SEQEND
  8
0
  0
POLYLINE
  8
1
 66
1
 10
0.0000
 20
0.0000
 30
0.0000
 40
0.1270
 41
0.1270
 70
0
  0
VERTEX
  8
1
 10
210.0000
 20
113.9900
 30
0.0000
 42
1.0000
  0
VERTEX
  8
1
 10
210.0000
 20
117.9900
 30
0.0000
 42
1.0000
  0
VERTEX
  8
1
 10
210.0000
 20
113.9900
 30
0.0000
  0
SEQEND
  8
0
  0
POLYLINE
  8
1
 66
1
 10
0.0000
 20
0.0000
 30
0.0000
 40
0.1270
 41
0.1270
 70
0
  0
VERTEX
  8
1
 10
210.0000
 20
176.4900
 30
0.0000
 42
1.0000
  0
VERTEX
  8
1
 10
210.0000
 20
180.4900
 30
0.0000
 42
1.0000
  0
VERTEX
  8
1
 10
210.0000
 20
176.4900
 30
0.0000
  0
SEQEND
  8
0
  0
POLYLINE
  8
1
 66
1
 10
0.0000
 20
0.0000
 30
0.0000
 40
0.1270
 41
0.1270
 70
0
  0
VERTEX
  8
1
 10
176.5000
 20
241.2400
 30
0.0000
 42
1.0000
  0
VERTEX
  8
1
 10
176.5000
 20
245.7400
 30
0.0000
 42
1.0000
  0
VERTEX
  8
1
 10
176.5000
 20
241.2400
 30
0.0000
  0
SEQEND
  8
0
  0
POLYLINE
  8
1
 66
1
 10
0.0000
 20
0.0000
 30
0.0000
 40
0.1270
 41
0.1270
 70
0
  0
VERTEX
  8
1
 10
38.5000
 20
241.2400
 30
0.0000
 42
1.0000
  0
VERTEX
  8
1
 10
38.5000
 20
245.7400
 30
0.0000
 42
1.0000
  0
VERTEX
  8
1
 10
38.5000
 20
241.2400
 30
0.0000
  0
SEQEND
  8
0
  0
POLYLINE
  8
1
 66
1
 10
0.0000
 20
0.0000
 30
0.0000
 40
0.1270
 41
0.1270
 70
0
  0
VERTEX
  8
1
 10
47.5000
 20
3.9900
 30
0.0000
 42
1.0000
  0
VERTEX
  8
1
 10
47.5000
 20
27.9900
 30
0.0000
 42
1.0000
  0
VERTEX
  8
1
 10
47.5000
 20
3.9900
 30
0.0000
  0
SEQEND
  8
0
  0
POLYLINE
  8
1
 66
1
 10
0.0000
 20
0.0000
 30
0.0000
 40
0.1270
 41
0.1270
 70
0
  0
VERTEX
  8
1
 10
167.5000
 20
3.9900
 30
0.0000
 42
1.0000
  0
VERTEX
  8
1
 10
167.5000
 20
27.9900
 30
0.0000
 42
1.0000
  0
VERTEX
  8
1
 10
167.5000
 20
3.9900
 30
0.0000
  0
SEQEND
  8
0
  0
POLYLINE
  8
1
 66
1
 10
0.0000
 20
0.0000
 30
0.0000
 40
0.1270
 41
0.1270
 70
0
  0
VERTEX
  8
1
 10
167.5000
 20
203.9900
 30
0.0000
 42
1.0000
  0
VERTEX
  8
1
 10
167.5000
 20
227.9900
 30
0.0000
 42
1.0000
  0
VERTEX
  8
1
 10
167.5000
 20
203.9900
 30
0.0000
  0
SEQEND
  8
0
  0
POLYLINE
  8
1
 66
1
 10
0.0000
 20
0.0000
 30
0.0000
 40
0.1270
 41
0.1270
 70
0
  0
VERTEX
  8
1
 10
47.5000
 20
203.9900
 30
0.0000
 42
1.0000
  0
VERTEX
  8
1
 10
47.5000
 20
227.9900
 30
0.0000
 42
1.0000
  0
VERTEX
  8
1
 10
47.5000
 20
203.9900
 30
0.0000
  0
SEQEND
  8
0
  0
POLYLINE
  8
1
 66
1
 10
0.0000
 20
0.0000
 30
0.0000
 40
0.1270
 41
0.1270
 70
0
  0
VERTEX
  8
1
 10
177.0000
 20
192.4900
 30
0.0000
 42
1.0000
  0
VERTEX
  8
1
 10
177.0000
 20
202.4900
 30
0.0000
 42
1.0000
  0
VERTEX
  8
1
 10
177.0000
 20
192.4900
 30
0.0000
  0
SEQEND
  8
0
  0
POLYLINE
  8
1
 66
1
 10
0.0000
 20
0.0000
 30
0.0000
 40
0.1270
 41
0.1270
 70
0
  0
VERTEX
  8
1
 10
177.0000
 20
102.4900
 30
0.0000
 42
1.0000
  0
VERTEX
  8
1
 10
177.0000
 20
112.4900
 30
0.0000
 42
1.0000
  0
VERTEX
  8
1
 10
177.0000
 20
102.4900
 30
0.0000
  0
SEQEND
  8
0
  0
POLYLINE
  8
1
 66
1
 10
0.0000
 20
0.0000
 30
0.0000
 40
0.1270
 41
0.1270
 70
0
  0
VERTEX
  8
1
 10
207.5000
 20
152.4900
 30
0.0000
 42
1.0000
  0
VERTEX
  8
1
 10
207.5000
 20
162.4900
 30
0.0000
 42
1.0000
  0
VERTEX
  8
1
 10
207.5000
 20
152.4900
 30
0.0000
  0
SEQEND
  8
0
  0
POLYLINE
  8
1
 66
1
 10
0.0000
 20
0.0000
 30
0.0000
 40
0.1270
 41
0.1270
 70
0
  0
VERTEX
  8
1
 10
142.5000
 20
152.4900
 30
0.0000
 42
1.0000
  0
VERTEX
  8
1
 10
142.5000
 20
162.4900
 30
0.0000
 42
1.0000
  0
VERTEX
  8
1
 10
142.5000
 20
152.4900
 30
0.0000
  0
SEQEND
  8
0
  0
POLYLINE
  8
1
 66
1
 10
0.0000
 20
0.0000
 30
0.0000
 40
0.1270
 41
0.1270
 70
0
  0
VERTEX
  8
1
 10
65.0000
 20
200.4900
 30
0.0000
 42
1.0000
  0
VERTEX
  8
1
 10
65.0000
 20
210.4900
 30
0.0000
 42
1.0000
  0
VERTEX
  8
1
 10
65.0000
 20
200.4900
 30
0.0000
  0
SEQEND
  8
0
  0
POLYLINE
  8
1
 66
1
 10
0.0000
 20
0.0000
 30
0.0000
 40
0.1270
 41
0.1270
 70
0
  0
VERTEX
  8
1
 10
65.0000
 20
110.4900
 30
0.0000
 42
1.0000
  0
VERTEX
  8
1
 10
65.0000
 20
120.4900
 30
0.0000
 42
1.0000
  0
VERTEX
  8
1
 10
65.0000
 20
110.4900
 30
0.0000
  0
SEQEND
  8
0
  0
POLYLINE
  8
1
 66
1
 10
0.0000
 20
0.0000
 30
0.0000
 40
0.1270
 41
0.1270
 70
0
  0
VERTEX
  8
1
 10
29.0000
 20
158.4900
 30
0.0000
 42
1.0000
  0
VERTEX
  8
1
 10
29.0000
 20
168.4900
 30
0.0000
 42
1.0000
  0
VERTEX
  8
1
 10
29.0000
 20
158.4900
 30
0.0000
  0
SEQEND
  8
0
  0
POLYLINE
  8
1
 66
1
 10
0.0000
 20
0.0000
 30
0.0000
 40
0.1270
 41
0.1270
 70
0
  0
VERTEX
  8
1
 10
109.0000
 20
158.4900
 30
0.0000
 42
1.0000
  0
VERTEX
  8
1
 10
109.0000
 20
168.4900
 30
0.0000
 42
1.0000
  0
VERTEX
  8
1
 10
109.0000
 20
158.4900
 30
0.0000
  0
SEQEND
  8
0
  0
ENDSEC
  0
EOF
